<?xml version="1.0" encoding="utf-8"?>
<!-- Generator: Adobe Illustrator 25.4.1, SVG Export Plug-In . SVG Version: 6.00 Build 0)  -->
<svg version="1.1" id="Capa_1" xmlns="http://www.w3.org/2000/svg" xmlns:xlink="http://www.w3.org/1999/xlink" x="0px" y="0px"
	 viewBox="0 0 512 512" style="enable-background:new 0 0 512 512;" xml:space="preserve">
<style type="text/css">
	.st0{fill:#28482C;}
	.st1{opacity:0.1;fill:#2626BC;enable-background:new    ;}
	.st2{fill:url(#SVGID_1_);}
	.st3{fill:#FFFFFF;}
	.st4{fill:url(#SVGID_00000014619320392003878820000005385738130781663421_);}
	.st5{fill:#1D1D1B;}
	.st6{fill:url(#SVGID_00000088093124787088757140000016322339257396851078_);}
	.st7{fill:url(#SVGID_00000038412360012897237070000003935297617862917768_);}
	.st8{fill:#FF0037;}
	.st9{fill:#B50F3A;}
	.st10{fill:#C2D5D8;}
	.st11{fill:#B7C9CC;}
	.st12{fill:#649937;}
	.st13{fill:#5C8C32;}
</style>
<rect x="741.9" y="36" class="st0" width="512" height="512"/>
<text transform="matrix(0.9838 0 0 1 -885.2079 251.2302)" class="st5" style="font-family:'Montserrat-ExtraBold'; font-size:64px;">NEW</text>
<path class="st1" d="M364,499.7H155.2c-18.4,0-33.2-14.9-33.2-33.2V44.7c0-18.4,14.9-33.2,33.2-33.2H364c18.4,0,33.2,14.9,33.2,33.2
	v421.7C397.2,484.8,382.4,499.7,364,499.7z"/>
<linearGradient id="SVGID_1_" gradientUnits="userSpaceOnUse" x1="86.6466" y1="146.8271" x2="135.7569" y2="146.8271">
	<stop  offset="0" style="stop-color:#B50F3A;stop-opacity:0.5"/>
	<stop  offset="1" style="stop-color:#FF0037"/>
</linearGradient>
<polygon class="st2" points="86.6,155.2 124.3,175.8 135.8,117.8 "/>
<g>
	<path class="st3" d="M363.3,506.4h-207c-21.2,0-38.4-17.2-38.4-38.4V49.9c0-21.2,17.2-38.4,38.4-38.4h207
		c21.2,0,38.4,17.2,38.4,38.4V468C401.7,489.1,384.5,506.4,363.3,506.4L363.3,506.4z M156.3,22.4c-15.1,0-27.5,12.3-27.5,27.5V468
		c0,15.1,12.3,27.5,27.5,27.5h207c15.1,0,27.5-12.3,27.5-27.5V49.9c0-15.1-12.3-27.5-27.5-27.5H156.3z"/>
	<g>
		<path class="st3" d="M279,47h-38.4c-3,0-5.5-2.5-5.5-5.5s2.5-5.5,5.5-5.5H279c3,0,5.5,2.5,5.5,5.5S282.1,47,279,47z"/>
	</g>
	<circle class="st3" cx="304.6" cy="41.5" r="5.5"/>
	<g>
		<path class="st3" d="M338.7,205H180.9c-3,0-5.5,2.5-5.5,5.5c0,3,2.5,5.5,5.5,5.5h157.8c3,0,5.5-2.5,5.5-5.5
			C344.2,207.4,341.8,205,338.7,205z"/>
		<path class="st3" d="M307.4,180.6h-95.2c-3,0-5.5,2.5-5.5,5.5s2.5,5.5,5.5,5.5h95.2c3,0,5.5-2.5,5.5-5.5S310.5,180.6,307.4,180.6z
			"/>
		<g>
			<path class="st3" d="M338.7,226.3H180.9c-3,0-5.5,2.5-5.5,5.5s2.5,5.5,5.5,5.5h157.8c3,0,5.5-2.5,5.5-5.5
				S341.8,226.3,338.7,226.3z"/>
		</g>
	</g>
	<g>
		<path class="st3" d="M312.9,453.3c0-3-2.5-5.5-5.5-5.5h-95.2c-3,0-5.5,2.5-5.5,5.5s2.5,5.5,5.5,5.5h95.2
			C310.5,458.8,312.9,456.3,312.9,453.3z"/>
	</g>
</g>
<linearGradient id="SVGID_00000057115243903741120520000012357384376706420100_" gradientUnits="userSpaceOnUse" x1="66.6502" y1="111.5775" x2="289.2154" y2="111.5775">
	<stop  offset="0" style="stop-color:#B50F3A"/>
	<stop  offset="1" style="stop-color:#FF0037"/>
</linearGradient>
<path style="fill:url(#SVGID_00000057115243903741120520000012357384376706420100_);" d="M289.2,132.6c0,12.5-10.1,22.6-22.6,22.6
	H89.2c-12.5,0-22.6-10.1-22.6-22.6V90.5c0-12.5,10.1-22.6,22.6-22.6h177.4c12.5,0,22.6,10.1,22.6,22.6V132.6z"/>
<g>
	<path class="st3" d="M143.2,87v49.2H132L110.6,110v26.2H97.2V87h11.3l21.4,26.2V87H143.2z"/>
	<path class="st3" d="M192.5,125.4v10.8h-38.9V87h38v10.8h-24.4v8.3h21.5v10.4h-21.5v9H192.5z"/>
	<path class="st3" d="M276,87l-15.7,49.2h-14.7l-9.3-29.9l-9.7,29.9H212L196.3,87h14.1l9.7,31.4L230.4,87H243l9.7,31.7L262.9,87H276
		z"/>
</g>
<g>
	<path class="st5" d="M-244.2,379.2V424h-10.3l-19.5-23.9V424h-12.2v-44.8h10.3l19.5,23.9v-23.9H-244.2z"/>
	<path class="st5" d="M-199.4,414.2v9.8h-35.4v-44.8h34.6v9.8h-22.2v7.6h19.6v9.5h-19.6v8.2H-199.4z"/>
	<path class="st5" d="M-123.3,379.2l-14.3,44.8h-13.3l-8.4-27.3l-8.8,27.3h-13.3l-14.3-44.8h12.8l8.9,28.6l9.3-28.6h11.5l8.9,28.9
		l9.3-28.9H-123.3z"/>
</g>
<g>
	
		<linearGradient id="SVGID_00000046302594479749758550000017922967651420870272_" gradientUnits="userSpaceOnUse" x1="-864.2229" y1="479.649" x2="-821.3219" y2="479.649">
		<stop  offset="0" style="stop-color:#946203"/>
		<stop  offset="1" style="stop-color:#A09107"/>
	</linearGradient>
	<polygon style="fill:url(#SVGID_00000046302594479749758550000017922967651420870272_);" points="-864.2,486.9 -831.4,505 
		-821.3,454.3 	"/>
	<g>
		
			<linearGradient id="SVGID_00000152240393118272450040000000958516258690959763_" gradientUnits="userSpaceOnUse" x1="-880.8007" y1="449.1558" x2="-686.3759" y2="449.1558">
			<stop  offset="0" style="stop-color:#F3A105"/>
			<stop  offset="1" style="stop-color:#FFE70B"/>
		</linearGradient>
		<path style="fill:url(#SVGID_00000152240393118272450040000000958516258690959763_);" d="M-686.4,467.6c0,10.9-8.8,19.7-19.7,19.7
			h-155c-10.9,0-19.7-8.8-19.7-19.7v-36.8c0-10.9,8.8-19.7,19.7-19.7h155c10.9,0,19.7,8.8,19.7,19.7V467.6z"/>
		
			<text transform="matrix(0.9838 0 0 1 -858.4552 465.3384)" class="st5" style="font-family:'Montserrat-ExtraBold'; font-size:50.1475px;">final</text>
	</g>
</g>
<rect x="-290.1" y="-384.3" class="st8" width="216.7" height="207"/>
<rect x="-73.4" y="-384.3" class="st9" width="216.7" height="207"/>
<g>
	<circle class="st10" cx="257.7" cy="341.6" r="60"/>
	<path class="st11" d="M306.5,376.5c0-0.1-0.1-0.1-0.1-0.2c-0.1-0.2-0.1-0.3-0.2-0.5c-0.1-0.2-0.1-0.3-0.2-0.5
		c-0.1-0.2-0.1-0.3-0.2-0.5c-0.1-0.2-0.1-0.3-0.2-0.5c-0.1-0.2-0.1-0.3-0.2-0.5c-0.1-0.2-0.1-0.3-0.2-0.5c-0.1-0.2-0.1-0.3-0.2-0.5
		c-0.1-0.2-0.1-0.3-0.2-0.5c-0.1-0.2-0.1-0.3-0.2-0.5c-0.1-0.2-0.1-0.3-0.2-0.5c-0.1-0.2-0.1-0.3-0.2-0.5c-0.1-0.2-0.1-0.3-0.2-0.5
		c-0.1-0.2-0.1-0.3-0.2-0.5c-0.1-0.2-0.1-0.3-0.2-0.5c-0.1-0.2-0.1-0.3-0.2-0.5c-0.1-0.2-0.1-0.3-0.2-0.5c-0.1-0.2-0.1-0.3-0.2-0.5
		c-0.1-0.2-0.1-0.3-0.2-0.5c-0.1-0.2-0.1-0.3-0.2-0.5c-0.1-0.2-0.1-0.3-0.2-0.5c-0.1-0.2-0.1-0.3-0.2-0.5c-0.1-0.2-0.1-0.3-0.2-0.5
		c-0.1-0.2-0.1-0.3-0.2-0.5c-0.1-0.2-0.1-0.3-0.2-0.5c-0.1-0.2-0.1-0.3-0.2-0.5c-0.1-0.2-0.1-0.3-0.2-0.5c-0.1-0.2-0.1-0.3-0.2-0.5
		c-0.1-0.2-0.1-0.3-0.2-0.5c-0.1-0.2-0.1-0.3-0.2-0.5c-0.1-0.2-0.1-0.3-0.2-0.5c-0.1-0.2-0.1-0.3-0.2-0.5c-0.1-0.2-0.1-0.3-0.2-0.5
		c-0.1-0.2-0.1-0.3-0.2-0.5c-0.1-0.2-0.1-0.3-0.2-0.5c-0.1-0.2-0.1-0.3-0.2-0.5c-0.1-0.2-0.1-0.3-0.2-0.5c-0.1-0.2-0.1-0.3-0.2-0.5
		c-0.1-0.2-0.1-0.3-0.2-0.5c-0.1-0.2-0.1-0.3-0.2-0.5c-0.1-0.2-0.1-0.3-0.2-0.5c-0.1-0.2-0.1-0.3-0.2-0.5c-0.1-0.2-0.1-0.3-0.2-0.5
		c-0.1-0.2-0.1-0.3-0.2-0.5c-0.1-0.2-0.1-0.3-0.2-0.5c-0.1-0.2-0.1-0.3-0.2-0.5c-0.1-0.2-0.1-0.3-0.2-0.5c-0.1-0.2-0.1-0.3-0.2-0.5
		c-0.1-0.2-0.1-0.3-0.2-0.5c-0.1-0.2-0.1-0.3-0.2-0.5c-0.1-0.2-0.1-0.3-0.2-0.5c-0.1-0.2-0.1-0.3-0.2-0.5c-0.1-0.2-0.1-0.3-0.2-0.5
		c-0.1-0.2-0.1-0.3-0.2-0.5c-0.1-0.2-0.1-0.3-0.2-0.5c-0.1-0.2-0.1-0.3-0.2-0.5c-0.1-0.2-0.1-0.3-0.2-0.5c-0.1-0.2-0.1-0.3-0.2-0.5
		c-0.1-0.2-0.1-0.3-0.2-0.5c-0.1-0.2-0.1-0.3-0.2-0.5c-0.1-0.2-0.1-0.3-0.2-0.5c-0.1-0.2-0.1-0.3-0.2-0.5c-0.1-0.2-0.1-0.3-0.2-0.5
		c-0.1-0.2-0.1-0.3-0.2-0.5c-0.1-0.2-0.1-0.3-0.2-0.5c-0.1-0.2-0.1-0.3-0.2-0.5c-0.1-0.2-0.1-0.3-0.2-0.5c-0.1-0.2-0.1-0.3-0.2-0.5
		c-0.1-0.2-0.1-0.3-0.2-0.5c-0.1-0.2-0.1-0.3-0.2-0.5c-0.1-0.2-0.1-0.3-0.2-0.5c-0.1-0.2-0.1-0.3-0.2-0.5c-0.1-0.2-0.1-0.3-0.2-0.5
		c-0.1-0.2-0.1-0.3-0.2-0.5c-0.1-0.2-0.1-0.3-0.2-0.5c-0.1-0.2-0.1-0.3-0.2-0.5c-0.1-0.2-0.1-0.3-0.2-0.5c-0.1-0.2-0.1-0.3-0.2-0.5
		c-0.1-0.2-0.1-0.3-0.2-0.5c-0.1-0.2-0.1-0.3-0.2-0.5c-0.1-0.2-0.1-0.3-0.2-0.5c-0.1-0.2-0.1-0.3-0.2-0.5c-0.1-0.2-0.1-0.3-0.2-0.5
		c-0.1-0.2-0.1-0.3-0.2-0.5c-0.1-0.2-0.1-0.3-0.2-0.5c-0.1-0.2-0.1-0.3-0.2-0.5c-0.1-0.2-0.1-0.3-0.2-0.5c-0.1-0.2-0.1-0.3-0.2-0.5
		c-0.1-0.2-0.1-0.3-0.2-0.5c-0.1-0.2-0.1-0.3-0.2-0.5c-0.1-0.2-0.1-0.3-0.2-0.5c-0.1-0.2-0.1-0.3-0.2-0.5c-0.1-0.2-0.1-0.3-0.2-0.5
		c-0.1-0.2-0.1-0.3-0.2-0.5c-0.6-1.8-2.4-3.1-4.4-3.1c-1.3,0-2.4,0.5-3.3,1.3c0-0.2-0.1-0.3-0.2-0.5c0-0.2-0.1-0.3-0.2-0.5
		c0-0.2-0.1-0.3-0.2-0.5c0-0.2-0.1-0.3-0.2-0.5c0-0.2-0.1-0.3-0.2-0.5c0-0.2-0.1-0.3-0.2-0.5c0-0.2-0.1-0.3-0.2-0.5
		c0-0.2-0.1-0.3-0.2-0.5c0-0.2-0.1-0.3-0.2-0.5c0-0.2-0.1-0.3-0.2-0.5c0-0.2-0.1-0.3-0.2-0.5c0-0.2-0.1-0.3-0.2-0.5
		c0-0.2-0.1-0.3-0.2-0.5c0-0.2-0.1-0.3-0.2-0.5c0-0.2-0.1-0.3-0.2-0.5c0-0.2-0.1-0.3-0.2-0.5c0-0.2-0.1-0.3-0.2-0.5
		c0-0.2-0.1-0.3-0.2-0.5c0-0.2-0.1-0.3-0.2-0.5c0-0.2-0.1-0.3-0.2-0.5c0-0.2-0.1-0.3-0.2-0.5c0-0.2-0.1-0.3-0.2-0.5
		c0-0.2-0.1-0.3-0.2-0.5c0-0.2-0.1-0.3-0.2-0.5c0-0.2-0.1-0.3-0.2-0.5c0-0.2-0.1-0.3-0.2-0.5c0-0.2-0.1-0.3-0.2-0.5
		c0-0.2-0.1-0.3-0.2-0.5c0-0.2-0.1-0.3-0.2-0.5c0-0.2-0.1-0.3-0.2-0.5c0-0.2-0.1-0.3-0.2-0.5c0-0.2-0.1-0.3-0.2-0.5
		c0-0.2-0.1-0.3-0.2-0.5c0-0.2-0.1-0.3-0.2-0.5c0-0.2-0.1-0.3-0.2-0.5c0-0.2-0.1-0.3-0.2-0.5c0-0.2-0.1-0.3-0.2-0.5
		c0-0.2-0.1-0.3-0.2-0.5c0-0.2-0.1-0.3-0.2-0.5c0-0.2-0.1-0.3-0.2-0.5c0-0.2-0.1-0.3-0.2-0.5c0-0.2-0.1-0.3-0.2-0.5
		c0-0.2-0.1-0.3-0.2-0.5c0-0.2-0.1-0.3-0.2-0.5c0-0.2-0.1-0.3-0.2-0.5c0-0.2-0.1-0.3-0.2-0.5c0-0.2-0.1-0.3-0.2-0.5
		c0-0.2-0.1-0.3-0.2-0.5c0-0.2-0.1-0.3-0.2-0.5c0-0.2-0.1-0.3-0.2-0.5c0-0.3-0.2-0.6-0.5-0.7c-0.5-0.2-1-0.1-1.3,0.4l-2.5,4.6
		c-2.7-1.4-5.8-2.2-9-2.2c-3.3,0-6.3,0.8-9,2.2l-2.5-4.6c-0.2-0.5-0.8-0.6-1.3-0.4c-0.5,0.2-0.6,0.8-0.4,1.3l0.1,0.2
		c0,0.1,0,0.2,0.1,0.3l0.1,0.2c0,0.1,0,0.2,0.1,0.3l0.1,0.2c0,0.1,0,0.2,0.1,0.3l0.1,0.2c0,0.1,0,0.2,0.1,0.3l0.1,0.2
		c0,0.1,0,0.2,0.1,0.3l0.1,0.2c0,0.1,0,0.2,0.1,0.3l0.1,0.2c0,0.1,0,0.2,0.1,0.3l0.1,0.2c0,0.1,0,0.2,0.1,0.3l0.1,0.2
		c0,0.1,0,0.2,0.1,0.3l0.1,0.2c0,0.1,0,0.2,0.1,0.3l0.1,0.2c-5.1,3.5-8.5,9.5-8.5,16.2h0.2c0,0.2,0,0.3,0,0.5h0.2c0,0.2,0,0.3,0,0.5
		h0.2c0,0.2,0,0.3,0,0.5h0.2c0,0.1,0,0.3,0,0.4H238v7.5c0,0,0,0,0,0c-0.1-0.2-0.1-0.3-0.2-0.5c-0.1-0.2-0.1-0.3-0.2-0.5
		c-0.1-0.2-0.1-0.3-0.2-0.5c-0.1-0.2-0.1-0.3-0.2-0.5c-0.1-0.2-0.1-0.3-0.2-0.5c-0.1-0.2-0.1-0.3-0.2-0.5c-0.1-0.2-0.1-0.3-0.2-0.5
		c-0.1-0.2-0.1-0.3-0.2-0.5c-0.1-0.2-0.1-0.3-0.2-0.5c-0.1-0.2-0.1-0.3-0.2-0.5c-0.1-0.2-0.1-0.3-0.2-0.5c-0.6-1.8-2.4-3.1-4.4-3.1
		c-2.6,0-4.7,2.1-4.7,4.7v18.8c0,0.7,0.2,1.4,0.5,2c0.1,0.2,0.1,0.3,0.2,0.5c0.1,0.2,0.1,0.3,0.2,0.5c0.1,0.2,0.1,0.3,0.2,0.5
		c0.1,0.2,0.1,0.3,0.2,0.5c0.1,0.2,0.1,0.3,0.2,0.5c0.1,0.2,0.1,0.3,0.2,0.5c0.1,0.2,0.1,0.3,0.2,0.5c0.1,0.2,0.1,0.3,0.2,0.5
		c0.1,0.2,0.1,0.3,0.2,0.5c0.1,0.2,0.1,0.3,0.2,0.5c0.1,0.2,0.1,0.3,0.2,0.5c0.1,0.2,0.1,0.3,0.2,0.5c0.1,0.2,0.1,0.3,0.2,0.5
		c0.1,0.2,0.1,0.3,0.2,0.5c0.1,0.2,0.1,0.3,0.2,0.5c0.1,0.2,0.1,0.3,0.2,0.5c0.1,0.2,0.1,0.3,0.2,0.5c0.1,0.2,0.1,0.3,0.2,0.5
		c0.1,0.2,0.1,0.3,0.2,0.5c0.1,0.2,0.1,0.3,0.2,0.5c0.1,0.2,0.1,0.3,0.2,0.5c0.1,0.2,0.1,0.3,0.2,0.5c0.1,0.2,0.1,0.3,0.2,0.5
		c0.1,0.2,0.1,0.3,0.2,0.5c0.1,0.2,0.1,0.3,0.2,0.5c0.1,0.2,0.1,0.3,0.2,0.5c0.1,0.2,0.1,0.3,0.2,0.5c0.1,0.2,0.1,0.3,0.2,0.5
		c0.1,0.2,0.1,0.3,0.2,0.5c0.1,0.2,0.1,0.3,0.2,0.5c0.1,0.2,0.1,0.3,0.2,0.5c0.1,0.2,0.1,0.3,0.2,0.5c0.1,0.2,0.1,0.3,0.2,0.5
		c0.1,0.2,0.1,0.3,0.2,0.5c0.1,0.2,0.1,0.3,0.2,0.5c0.1,0.2,0.1,0.3,0.2,0.5c0.1,0.2,0.1,0.3,0.2,0.5c0.1,0.2,0.1,0.3,0.2,0.5
		c0.1,0.2,0.1,0.3,0.2,0.5c0.1,0.2,0.1,0.3,0.2,0.5c0.1,0.2,0.1,0.3,0.2,0.5c0.1,0.2,0.1,0.3,0.2,0.5c0.1,0.2,0.1,0.3,0.2,0.5
		c0.1,0.2,0.1,0.3,0.2,0.5c0.1,0.2,0.1,0.3,0.2,0.5c0.1,0.2,0.1,0.3,0.2,0.5c0.1,0.2,0.1,0.3,0.2,0.5c0.1,0.2,0.1,0.3,0.2,0.5
		c0.1,0.2,0.1,0.3,0.2,0.5c0.1,0.2,0.1,0.3,0.2,0.5c0.1,0.2,0.1,0.3,0.2,0.5c0.1,0.2,0.1,0.3,0.2,0.5c0.1,0.2,0.1,0.3,0.2,0.5
		c0.1,0.2,0.1,0.3,0.2,0.5c0.1,0.2,0.1,0.3,0.2,0.5c0.1,0.2,0.1,0.3,0.2,0.5c0.1,0.2,0.1,0.3,0.2,0.5c0.1,0.2,0.1,0.3,0.2,0.5
		c0.1,0.2,0.1,0.3,0.2,0.5c0.1,0.2,0.1,0.3,0.2,0.5c0.1,0.2,0.1,0.3,0.2,0.5c0.1,0.2,0.1,0.3,0.2,0.5c0.1,0.2,0.1,0.3,0.2,0.5
		c0.1,0.2,0.1,0.3,0.2,0.5c0.1,0.2,0.1,0.3,0.2,0.5c0.1,0.2,0.1,0.3,0.2,0.5c0.1,0.2,0.1,0.3,0.2,0.5c0.1,0.2,0.1,0.3,0.2,0.5
		c0.1,0.2,0.1,0.3,0.2,0.5c0.1,0.2,0.1,0.3,0.2,0.5c0.1,0.2,0.1,0.3,0.2,0.5c0.1,0.2,0.1,0.3,0.2,0.5c0.1,0.2,0.1,0.3,0.2,0.5
		c0.1,0.2,0.1,0.3,0.2,0.5c0.1,0.2,0.1,0.3,0.2,0.5c0.1,0.2,0.1,0.3,0.2,0.5c0.1,0.2,0.1,0.3,0.2,0.5c0.1,0.2,0.1,0.3,0.2,0.5
		c0.1,0.2,0.1,0.3,0.2,0.5c0.1,0.2,0.1,0.3,0.2,0.5c0.1,0.2,0.1,0.3,0.2,0.5c0.1,0.2,0.1,0.3,0.2,0.5c0.1,0.2,0.1,0.3,0.2,0.5
		c0.1,0.2,0.1,0.3,0.2,0.5c0.1,0.2,0.1,0.3,0.2,0.5c0.1,0.2,0.1,0.3,0.2,0.5c0.1,0.2,0.1,0.3,0.2,0.5c0.1,0.2,0.1,0.3,0.2,0.5
		c0.1,0.2,0.1,0.3,0.2,0.5c0.1,0.2,0.1,0.3,0.2,0.5c0.1,0.2,0.1,0.3,0.2,0.5c0.1,0.2,0.1,0.3,0.2,0.5c0.1,0.2,0.1,0.3,0.2,0.5
		c0.1,0.2,0.1,0.3,0.2,0.5c0.1,0.2,0.1,0.3,0.2,0.5c0.1,0.2,0.1,0.3,0.2,0.5c0.1,0.1,0.1,0.3,0.2,0.4c3.8,0.7,7.7,1.1,11.7,1.1
		C277.8,401.6,295.6,391.7,306.5,376.5z"/>
	<g>
		<path class="st12" d="M238,357.5c0,3.1,2.5,5.6,5.6,5.6h1.9v9.4c0,2.6,2.1,4.7,4.7,4.7c2.6,0,4.7-2.1,4.7-4.7v-9.4h5.6v9.4
			c0,2.6,2.1,4.7,4.7,4.7c2.6,0,4.7-2.1,4.7-4.7v-9.4h1.9c3.1,0,5.6-2.5,5.6-5.6v-28.1H238V357.5z"/>
		<path class="st12" d="M283.9,328.5c-2.6,0-4.7,2.1-4.7,4.7v18.8c0,2.6,2.1,4.7,4.7,4.7c2.6,0,4.7-2.1,4.7-4.7v-18.8
			C288.6,330.6,286.5,328.5,283.9,328.5z"/>
		<path class="st12" d="M231.4,328.5c-2.6,0-4.7,2.1-4.7,4.7v18.8c0,2.6,2.1,4.7,4.7,4.7c2.6,0,4.7-2.1,4.7-4.7v-18.8
			C236.1,330.6,234,328.5,231.4,328.5z"/>
		<path class="st12" d="M268.3,311l2.5-4.6c0.2-0.5,0.1-1-0.4-1.3c-0.5-0.2-1-0.1-1.3,0.4l-2.5,4.6c-2.7-1.4-5.8-2.2-9-2.2
			c-3.3,0-6.3,0.8-9,2.2l-2.5-4.6c-0.2-0.5-0.8-0.6-1.3-0.4c-0.5,0.2-0.6,0.8-0.4,1.3l2.5,4.6c-5.4,3.5-9,9.6-9,16.5h39.4
			C277.4,320.6,273.8,314.5,268.3,311z M249.3,321c-1,0-1.9-0.8-1.9-1.9s0.8-1.9,1.9-1.9c1,0,1.9,0.8,1.9,1.9S250.3,321,249.3,321z
			 M266.1,321c-1,0-1.9-0.8-1.9-1.9s0.8-1.9,1.9-1.9c1,0,1.9,0.8,1.9,1.9S267.2,321,266.1,321z"/>
	</g>
	<g>
		<path class="st13" d="M257.7,363.1h2.8v9.4c0,2.6,2.1,4.7,4.7,4.7c2.6,0,4.7-2.1,4.7-4.7v-9.4h1.9c3.1,0,5.6-2.5,5.6-5.6v-28.1
			h-19.7V363.1z"/>
		<path class="st13" d="M268.3,311l2.5-4.6c0.2-0.5,0.1-1-0.4-1.3c-0.5-0.2-1-0.1-1.3,0.4l-2.5,4.6c-2.7-1.4-5.8-2.2-9-2.2v19.7
			h19.7C277.4,320.6,273.8,314.5,268.3,311z M266.1,321c-1,0-1.9-0.8-1.9-1.9s0.8-1.9,1.9-1.9c1,0,1.9,0.8,1.9,1.9
			S267.2,321,266.1,321z"/>
		<path class="st13" d="M283.9,328.5c-2.6,0-4.7,2.1-4.7,4.7v18.8c0,2.6,2.1,4.7,4.7,4.7c2.6,0,4.7-2.1,4.7-4.7v-18.8
			C288.6,330.6,286.5,328.5,283.9,328.5z"/>
	</g>
</g>
</svg>
