<?xml version="1.0" encoding="utf-8"?>
<!-- Generator: Adobe Illustrator 25.4.1, SVG Export Plug-In . SVG Version: 6.00 Build 0)  -->
<svg version="1.1" id="Layer_1" xmlns="http://www.w3.org/2000/svg" xmlns:xlink="http://www.w3.org/1999/xlink" x="0px" y="0px"
	 viewBox="0 0 20 20" style="enable-background:new 0 0 20 20;" xml:space="preserve">
<style type="text/css">
	.st0{fill:#FFFFFF;}
</style>
<path class="st0" d="M18.9,10.1c0.2,0.2,0.2,0.5,0,0.7l-6,6c-0.1,0.1-0.2,0.1-0.4,0.1s-0.3,0-0.4-0.1c-0.2-0.2-0.2-0.5,0-0.7
	l5.1-5.1H1c-0.3,0-0.5-0.2-0.5-0.5C0.5,10.2,0.7,10,1,10h16.3l-5.1-5.1c-0.2-0.2-0.2-0.5,0-0.7c0.2-0.2,0.5-0.2,0.7,0L18.9,10.1
	L18.9,10.1z"/>
</svg>
