<?xml version="1.0" encoding="utf-8"?>
<!-- Generator: Adobe Illustrator 25.4.1, SVG Export Plug-In . SVG Version: 6.00 Build 0)  -->
<svg version="1.1" id="Capa_1" xmlns="http://www.w3.org/2000/svg" xmlns:xlink="http://www.w3.org/1999/xlink" x="0px" y="0px"
	 viewBox="0 0 512 512" style="enable-background:new 0 0 512 512;" xml:space="preserve">
<style type="text/css">
	.st0{fill:#FFFFFF;}
</style>
<g>
	<g>
		<path class="st0" d="M466.3,21.3l-210.3,0l-210.3,0C20.5,21.3,0,42,0,67.4c0,6.9,1.6,13.7,4.7,20c34.1,70,91.2,169.2,141.7,256.7
			c26.4,45.8,51.2,89,69.2,121.8c8.5,15.5,23.6,24.8,40.4,24.8c16.8,0,31.9-9.3,40.4-24.8c18-32.8,42.9-76,69.2-121.7
			C416,256.6,473.2,157.4,507.3,87.4c3.1-6.4,4.7-13.1,4.7-20C512,42,491.5,21.3,466.3,21.3z"/>
	</g>
</g>
</svg>
