<?xml version="1.0" encoding="utf-8"?>
<!-- Generator: Adobe Illustrator 25.4.1, SVG Export Plug-In . SVG Version: 6.00 Build 0)  -->
<svg version="1.1" id="Layer_1" xmlns="http://www.w3.org/2000/svg" xmlns:xlink="http://www.w3.org/1999/xlink" x="0px" y="0px"
	 viewBox="0 0 300 300" style="enable-background:new 0 0 300 300;" xml:space="preserve">
<style type="text/css">
	.st0{fill-rule:evenodd;clip-rule:evenodd;fill:#FFFFFF;}
	.st1{fill:#FFFFFF;}
	.st2{fill:none;}
	.st3{font-family:'Montserrat-ExtraBold';}
	.st4{font-size:36px;}
</style>
<g>
	<path class="st0" d="M150,57.6c41,0,74.2,33.3,74.2,74.3s-33.3,74.2-74.3,74.2c-41,0-74.2-33.3-74.2-74.3c0-10.7,2.3-21.2,6.8-30.9
		c1.6-3.8-0.3-8.1-4-9.7c-3.6-1.5-7.7,0.1-9.4,3.5c-20.5,44.7-0.9,97.6,43.8,118.1s97.6,0.9,118.1-43.8s0.9-97.6-43.8-118.1
		c-11.7-5.3-24.3-8.1-37.1-8.1V57.6z"/>
	<path class="st1" d="M150,79.4V21c0-2-1.7-3.7-3.7-3.7c-0.9,0-1.7,0.3-2.4,0.9l-35,29.2c-1.6,1.3-1.8,3.7-0.5,5.2
		c0.1,0.2,0.3,0.3,0.5,0.5l35,29.2c1.6,1.3,3.9,1.1,5.2-0.5C149.7,81.1,150,80.3,150,79.4z"/>
</g>
<rect x="16.6" y="245.6" class="st2" width="266.8" height="35.2"/>
<text transform="matrix(1 0 0 1 18.2774 272.3154)" class="st1 st3 st4">AUTO SELECT</text>
</svg>
