<?xml version="1.0" encoding="utf-8"?>
<!-- Generator: Adobe Illustrator 25.4.1, SVG Export Plug-In . SVG Version: 6.00 Build 0)  -->
<svg version="1.1" id="Layer_1" xmlns="http://www.w3.org/2000/svg" xmlns:xlink="http://www.w3.org/1999/xlink" x="0px" y="0px"
	 viewBox="0 0 20 20" style="enable-background:new 0 0 20 20;" xml:space="preserve">
<style type="text/css">
	.st0{fill:#FFFFFF;}
</style>
<path class="st0" d="M0.6,10.1l6-6C6.8,4,7.2,4,7.4,4.1c0.2,0.2,0.2,0.5,0,0.7L2.2,10h16.3c0.3,0,0.5,0.2,0.5,0.5S18.8,11,18.5,11
	H2.2l5.1,5.1c0.2,0.2,0.2,0.5,0,0.7C7.3,17,7.1,17,7,17s-0.3,0-0.4-0.1l-6-6C0.5,10.7,0.5,10.3,0.6,10.1L0.6,10.1z"/>
</svg>
