<?xml version="1.0" encoding="utf-8"?>
<!-- Generator: Adobe Illustrator 25.3.1, SVG Export Plug-In . SVG Version: 6.00 Build 0)  -->
<svg version="1.1" id="Capa_1" xmlns="http://www.w3.org/2000/svg" xmlns:xlink="http://www.w3.org/1999/xlink" x="0px" y="0px"
	 viewBox="0 0 512 512" style="enable-background:new 0 0 512 512;" xml:space="preserve">
<style type="text/css">
	.st0{fill:#FFFFFF;}
</style>
<g>
	<g>
		<path class="st0" d="M121.3,32.7c-20.6,0-37.4,16.8-37.4,37.4v334.8h204c4.1,0,7.5,3.4,7.5,7.5v0.1V423
			c0.4,31.2,25.9,56.2,57.1,55.8c30.7-0.3,55.5-25.1,55.8-55.8V73.3c0-15.4,6.4-30.2,17.8-40.6L121.3,32.7z M182.3,114.2
			c0-2,0.8-4,2.3-5.4c1.5-1.4,3.5-2.2,5.5-2.1c19.5,1.4,38.5-6.9,50.7-22.2c1.5-1.8,3.8-2.9,6.1-2.7c2.3,0.1,4.5,1.3,5.9,3.2
			c9.5,13.6,25.7,20.5,50.9,21.8c4,0.2,7.2,3.5,7.2,7.5v22.9c0.4,20.6-5.1,40.9-16.1,58.3c-11.7,17.3-26.5,32.2-43.7,44
			c-1.3,1-2.8,1.5-4.5,1.5c-1.6,0-3.2-0.5-4.5-1.5c-31.1-22.9-59.8-51.3-59.8-102.3L182.3,114.2z M359.8,346.5H133.5
			c-4.2,0.1-7.6-3.1-7.8-7.3c-0.1-4.2,3.1-7.6,7.3-7.8c0.2,0,0.3,0,0.5,0h226.2c4.2,0.1,7.4,3.6,7.3,7.8
			C366.9,343.2,363.7,346.4,359.8,346.5L359.8,346.5z M359.8,293.7H133.5c-4.2,0.1-7.6-3.1-7.8-7.3c-0.1-4.2,3.1-7.6,7.3-7.8
			c0.2,0,0.3,0,0.5,0h226.2c4.2-0.1,7.6,3.1,7.8,7.3c0.1,4.2-3.1,7.6-7.3,7.8C360.1,293.7,359.9,293.7,359.8,293.7z"/>
		<path class="st0" d="M351.9,482.3c-15.7,0-30.6-6-41.9-17.1c-11.4-11.2-17.8-26.2-18-42.2l0-10.6c0-1.1-0.4-2.2-1.2-2.9
			c-0.8-0.8-1.8-1.2-2.9-1.2c0,0,0,0,0,0H80.5V70.1c0-22.5,18.3-40.8,40.8-40.9l313.7,0l-6.5,6c-10.6,9.8-16.7,23.7-16.7,38.1V423
			c-0.2,15.8-6.4,30.6-17.5,41.7c-11.1,11.1-25.9,17.4-41.7,17.5C352.4,482.3,352.2,482.3,351.9,482.3L351.9,482.3z M288,401.4
			c2.9,0,5.7,1.1,7.7,3.2c2.1,2.1,3.2,4.8,3.2,7.8V423c0.2,14.1,5.8,27.4,15.9,37.3c10.1,9.9,23.5,15.2,37.6,15.1
			c28.6-0.3,52.1-23.8,52.4-52.4l0-349.7c0-13.6,4.8-26.8,13.3-37.2l-296.9,0h0c-18.7,0-33.9,15.3-33.9,33.9v331.3L288,401.4
			C288,401.4,288,401.4,288,401.4L288,401.4z M133.3,350c-2.8,0-5.5-1.1-7.5-3c-2.1-2-3.4-4.7-3.5-7.7c-0.2-6.1,4.6-11.1,10.7-11.3
			c0.2,0,0.4,0,0.6,0l226.3,0c2.9,0.1,5.7,1.3,7.7,3.5c2,2.1,3.1,4.9,3,7.9c-0.2,5.8-4.9,10.5-10.7,10.7l-0.1,0H133.6
			C133.5,350,133.4,350,133.3,350L133.3,350z M133.3,334.9c0,0-0.1,0-0.1,0c-2.3,0.1-4,2-4,4.2c0,1.1,0.5,2.1,1.3,2.9
			c0.8,0.7,1.8,1.1,2.9,1.1l0.1,0h226.2c2.1-0.1,3.8-1.8,3.9-4c0-1.1-0.4-2.1-1.1-2.9c-0.7-0.8-1.7-1.2-2.8-1.3l-226.3,0
			C133.4,334.9,133.4,334.9,133.3,334.9L133.3,334.9z M133.3,297.2c-2.8,0-5.5-1.1-7.5-3c-2.1-2-3.4-4.7-3.5-7.7
			c-0.1-2.9,1-5.7,3-7.9c2-2.1,4.7-3.4,7.7-3.5c0.2,0,0.4,0,0.6,0h226.1c2.9-0.1,5.7,1,7.8,3c2.1,2,3.4,4.7,3.5,7.7
			c0.2,6.1-4.6,11.1-10.7,11.3c-0.2,0-0.4,0-0.6,0H133.6C133.5,297.2,133.4,297.2,133.3,297.2L133.3,297.2z M133.3,282.1
			c0,0-0.1,0-0.1,0c-2.3,0.1-4,2-4,4.2c0,1.1,0.5,2.1,1.3,2.9c0.8,0.7,1.8,1.1,2.9,1.1l0.1,0l226.3,0c0.1,0,0.2,0,0.3,0
			c2.2-0.1,4-2,3.9-4.2c0-1.1-0.5-2.1-1.3-2.9c-0.8-0.7-1.8-1.1-2.9-1.1l-0.1,0l-226.3,0C133.4,282.1,133.4,282.1,133.3,282.1
			L133.3,282.1z M246.7,244.4c-2.4,0-4.7-0.8-6.6-2.2c-31.8-23.5-61.2-52.4-61.2-105.1l0-22.9c0-3,1.2-5.8,3.3-7.9
			c2.2-2.1,5.1-3.2,8.1-3.1l0.1,0c18.4,1.3,36.3-6.5,47.8-21c2.2-2.7,5.5-4.2,9-4c3.4,0.1,6.5,1.8,8.5,4.6
			c8.9,12.7,24.2,19.1,48.3,20.4c5.9,0.3,10.5,5.1,10.4,11v22.9c0.5,21.2-5.3,42.1-16.6,60.1l-0.1,0.1c-12,17.7-27,32.8-44.6,44.9
			C251.2,243.6,249,244.4,246.7,244.4z M185.8,114.2l0,22.9c0,49.6,28.1,77.2,58.4,99.5c0.7,0.5,1.6,0.8,2.5,0.8
			c0.8,0,1.6-0.3,2.3-0.8l0.1-0.1c16.9-11.6,31.3-26.1,42.8-43.1c10.6-16.9,15.9-36.4,15.5-56.3l0-23c0-2.2-1.7-4-3.9-4.1
			c-26.4-1.3-43.4-8.7-53.6-23.3c-0.7-1-1.9-1.6-3.2-1.7c-1.3-0.1-2.5,0.4-3.3,1.4c-12.9,16.2-33,25-53.6,23.5
			c-1.1,0-2.1,0.4-2.9,1.2C186.2,112,185.8,113.1,185.8,114.2z"/>
	</g>
	<g>
		<path class="st0" d="M246.3,100.7c-13.1,12.9-30.6,20.4-48.9,21v15.5c0,34.9,13.9,59.6,49.2,86.9c13.9-10,25.9-22.4,35.4-36.6
			c9.4-15.1,14.1-32.6,13.7-50.3v-15.9C277.4,120.5,259.8,113.2,246.3,100.7L246.3,100.7z M273.9,147.1l-32.6,32.6
			c-2.9,2.9-7.7,2.9-10.7,0l-11.5-11.5c-2.9-3-2.9-7.7,0-10.7c2.9-2.9,7.7-3,10.6,0l0,0l6.2,6.1l27.2-27.2c2.9-2.9,7.7-3,10.6,0
			c0,0,0,0,0,0C276.9,139.3,276.9,144.1,273.9,147.1L273.9,147.1z"/>
		<path class="st0" d="M246.6,228.3l-2-1.6C208.6,199,194,173.1,194,137.1v-18.8l3.3-0.1c17.5-0.6,34.1-7.7,46.6-20l2.4-2.3l2.4,2.3
			c12.9,12,29.7,19,47.2,19.6l3.3,0.1v19.2c0.4,18.4-4.5,36.4-14.2,52.1l-0.1,0.1c-9.8,14.6-22,27.1-36.3,37.4L246.6,228.3z
			 M200.9,124.9v12.2c0,33.3,12.9,56.6,45.8,82.5c12.7-9.5,23.6-21,32.5-34.1c9-14.5,13.6-31.2,13.2-48.3v-12.7
			c-16.9-1.3-33-8-46-19.1C233.8,116.8,217.8,123.6,200.9,124.9L200.9,124.9z M236,185.3c-2.8,0-5.6-1.1-7.8-3.2l-11.5-11.5
			c-4.3-4.3-4.3-11.3,0-15.6c2.1-2.1,4.8-3.2,7.7-3.2h0c2.9,0,5.6,1.1,7.7,3.2l3.8,3.8l24.8-24.8c4.2-4.3,11.2-4.3,15.5-0.1l0.1,0.1
			c4.2,4.2,4.1,11.2-0.1,15.5l0,0l-32.6,32.6C241.7,184.2,238.8,185.3,236,185.3L236,185.3z M224.6,158.7
			C224.6,158.7,224.6,158.7,224.6,158.7c-1.1,0-2.1,0.4-2.9,1.2c-1.6,1.6-1.6,4.2,0,5.8l11.5,11.5c1.6,1.6,4.2,1.6,5.8,0l32.6-32.6
			c1.6-1.6,1.6-4.2,0-5.8c-1.6-1.6-4.2-1.6-5.7,0l-29.7,29.7l-8.6-8.6C226.7,159.1,225.7,158.7,224.6,158.7L224.6,158.7z"/>
	</g>
	<g>
		<path class="st0" d="M464.2,32.7c-22.4,0-40.6,18.2-40.7,40.7v32.9h81.3V73.3C504.8,50.9,486.6,32.7,464.2,32.7L464.2,32.7z"/>
	</g>
	<g>
		<path class="st0" d="M508.4,109.8H420V73.3c0-24.4,19.8-44.2,44.2-44.2c24.4,0,44.2,19.8,44.2,44.2v0L508.4,109.8L508.4,109.8
			L508.4,109.8z M427.1,102.7h74.2V73.3c0-20.5-16.6-37.1-37.1-37.1c-20.5,0-37.1,16.6-37.1,37.1v0L427.1,102.7z"/>
	</g>
	<g>
		<path class="st0" d="M280.5,422.9v-3H7.2v1.5c0,32,25.9,57.9,57.9,57.9h243.1C290.7,465.9,280.5,445,280.5,422.9L280.5,422.9z"/>
	</g>
	<g>
		<path class="st0" d="M318.4,482.9H65c-33.9,0-61.4-27.5-61.4-61.4v-5.1H284v6.5c0,21,9.7,40.8,26.3,53.6L318.4,482.9z M10.7,423.5
			c1.1,29.2,25.1,52.3,54.3,52.3h233.7c-13.9-13.9-21.7-32.7-21.8-52.3H10.7z"/>
	</g>
</g>
</svg>
