<?xml version="1.0" encoding="utf-8"?>
<!-- Generator: Adobe Illustrator 25.3.1, SVG Export Plug-In . SVG Version: 6.00 Build 0)  -->
<svg version="1.1" id="Capa_1" xmlns="http://www.w3.org/2000/svg" xmlns:xlink="http://www.w3.org/1999/xlink" x="0px" y="0px"
	 viewBox="0 0 512 512" style="enable-background:new 0 0 512 512;" xml:space="preserve">
<style type="text/css">
	.st0{fill:#FFFFFF;}
</style>
<path class="st0" d="M256,2.1C115.8,2.1,2.1,115.8,2.1,256S115.8,509.9,256,509.9S509.9,396.2,509.9,256S396.2,2.1,256,2.1z
	 M343.7,269.5l-126.9,79.3c-2.6,1.6-5.5,2.4-8.4,2.4c-2.6,0-5.3-0.7-7.7-2c-5-2.8-8.2-8.1-8.2-13.9V176.7c0-5.8,3.1-11.1,8.2-13.9
	c5-2.8,11.2-2.6,16.1,0.4l126.9,79.3c4.6,2.9,7.5,8,7.5,13.5C351.2,261.5,348.4,266.6,343.7,269.5z"/>
</svg>
