<svg width="100.4" height="100.4" xmlns="http://www.w3.org/2000/svg">

 <g>
  <title>background</title>
  <rect fill="none" id="canvas_background" height="402" width="582" y="-1" x="-1"/>
 </g>
 <g>
  <title>Layer 1</title>
  <path fill="#ffffff" id="svg_2" d="m88.5,15.3c-0.3,-0.3 -0.7,-0.5 -1.1,-0.5l-15.2,0l0,-7c0,-0.8 -0.7,-1.5 -1.5,-1.5l-42.7,0c-0.8,0 -1.5,0.7 -1.5,1.5l0,7l-15.6,0c-0.4,0 -0.8,0.2 -1.1,0.5c-0.3,0.3 -0.4,0.7 -0.4,1.1c0,0.3 0.3,6.7 2.6,14.1c3.2,9.9 8.6,16.9 15.8,20.1c2.4,8 7.9,14.3 14.8,16.8l0,0.3c0,8.3 -6.3,14.9 -14.4,14.9c-0.8,0 -1.5,0.7 -1.5,1.5l0,8.5c0,0.8 0.7,1.5 1.5,1.5l42.5,0c0.8,0 1.5,-0.7 1.5,-1.5l0,-8.5c0,-0.8 -0.7,-1.5 -1.5,-1.5c-8.2,0 -14.9,-6.7 -14.9,-14.9l0,-0.2c7.2,-2.5 12.8,-8.9 15.2,-17.1c6.9,-3.3 12.2,-10.2 15.3,-19.9c2.4,-7.4 2.6,-13.9 2.6,-14.1c0.1,-0.4 -0.1,-0.8 -0.4,-1.1zm-76,2.5l14,0l0,24c0,1.7 0.1,3.3 0.4,4.9c-11.4,-6.8 -13.9,-23.7 -14.4,-28.9zm56.7,67.7l0,5.5l-39.5,0l0,-5.5c8.8,-0.7 15.6,-8 15.8,-17.3c1.2,0.2 2.5,0.4 3.8,0.4c1.2,0 2.4,-0.1 3.5,-0.3c0.4,9.1 7.5,16.5 16.4,17.2zm-15.9,-20.3c-1.3,0.3 -2.6,0.5 -3.9,0.5c-1.5,0 -3,-0.2 -4.4,-0.6c-0.3,-0.1 -0.8,-0.3 -1,-0.3c-8.3,-2.8 -14.5,-12 -14.5,-22.9l0,-32.5l39.7,0l0,6l0,1.9l0,24.6c0,10.9 -6.2,20.1 -14.6,22.9m17.3,-18.3c0.2,-1.5 0.4,-3.1 0.4,-4.7l0,-24l13.6,0c-0.5,5.2 -2.9,21.6 -14,28.7z"/>
  <path fill="#ffffff" id="svg_3" d="m63.8,27.3l-8.2,-1.2l-3.7,-7.5c-0.4,-0.8 -1.3,-1.4 -2.2,-1.4c0,0 0,0 0,0c-0.9,0 -1.8,0.5 -2.2,1.4l-3.7,7.5l-8.2,1.2c-0.9,0.1 -1.7,0.8 -2,1.7c-0.3,0.9 -0.1,1.9 0.6,2.5l6,5.8l-1.4,8.2c-0.2,0.9 0.2,1.8 1,2.4c0.4,0.3 0.9,0.5 1.5,0.5c0.4,0 0.8,-0.1 1.1,-0.3l7.6,-3.8l7.2,3.8c0.8,0.4 1.8,0.4 2.6,-0.2c0.8,-0.6 1.1,-1.5 1,-2.4l-1.4,-8.2l6,-5.8c0.7,-0.7 0.9,-1.6 0.6,-2.5c-0.5,-0.9 -1.2,-1.6 -2.2,-1.7zm-7.2,8.4c-0.4,0.3 -0.5,0.8 -0.4,1.3l1.4,7.9l-6.9,-3.6c-0.4,-0.2 -0.9,-0.2 -1.4,0l-7.4,3.7l1.4,-8c0.1,-0.5 -0.1,-1 -0.4,-1.3l-5.7,-5.6l7.9,-1.2c0.5,-0.1 0.9,-0.4 1.1,-0.8l3.5,-7.2l3.5,7.2c0.2,0.4 0.6,0.8 1.1,0.8l7.9,1.2l-5.6,5.6z"/>
 </g>
</svg>