<?xml version="1.0" encoding="utf-8"?>
<!-- Generator: Adobe Illustrator 25.4.1, SVG Export Plug-In . SVG Version: 6.00 Build 0)  -->
<svg version="1.1" id="Capa_1" xmlns="http://www.w3.org/2000/svg" xmlns:xlink="http://www.w3.org/1999/xlink" x="0px" y="0px"
	 viewBox="0 0 512 512" style="enable-background:new 0 0 512 512;" xml:space="preserve">
<style type="text/css">
	.st0{opacity:0.8;fill:#FFFFFF;enable-background:new    ;}
	.st1{fill:url(#SVGID_1_);}
	.st2{fill:#FFFFFF;}
	.st3{fill:#28482C;}
	.st4{fill:url(#SVGID_00000062883259719643022980000007279969944694219189_);}
	.st5{fill:#C2D5D8;}
	.st6{fill:#B7C9CC;}
	.st7{fill:#649937;}
	.st8{fill:#5C8C32;}
</style>
<path class="st0" d="M385.9,496.8H177.1c-18.4,0-33.2-14.9-33.2-33.2V41.8c0-18.4,14.9-33.2,33.2-33.2h208.8
	c18.4,0,33.2,14.9,33.2,33.2v421.7C419.1,481.8,404.2,496.8,385.9,496.8z"/>
<linearGradient id="SVGID_1_" gradientUnits="userSpaceOnUse" x1="108.45" y1="368.15" x2="157.5603" y2="368.15" gradientTransform="matrix(1 0 0 -1 0 512)">
	<stop  offset="0" style="stop-color:#B50F3A;stop-opacity:0.5"/>
	<stop  offset="1" style="stop-color:#FF0037"/>
</linearGradient>
<polygon class="st1" points="108.5,152.2 146.2,172.9 157.7,114.9 "/>
<g>
	<path class="st2" d="M385.1,503.5h-207c-21.2,0-38.4-17.2-38.4-38.4V47c0-21.2,17.2-38.4,38.4-38.4h207c21.2,0,38.4,17.2,38.4,38.4
		V465C423.6,486.2,406.4,503.5,385.1,503.5L385.1,503.5z M178.2,19.5c-15.1,0-27.5,12.3-27.5,27.5V465c0,15.1,12.3,27.5,27.5,27.5
		h207c15.1,0,27.5-12.3,27.5-27.5V47c0-15.1-12.3-27.5-27.5-27.5C385.1,19.5,178.2,19.5,178.2,19.5z"/>
	<g>
		<path class="st2" d="M300.9,44.1h-38.4c-3,0-5.5-2.5-5.5-5.5s2.5-5.5,5.5-5.5h38.4c3,0,5.5,2.5,5.5,5.5S304,44.1,300.9,44.1z"/>
	</g>
	<circle class="st2" cx="326.5" cy="38.6" r="5.5"/>
	<g>
		<path class="st3" d="M360.6,202.1H202.8c-3,0-5.5,2.5-5.5,5.5s2.5,5.5,5.5,5.5h157.8c3,0,5.5-2.5,5.5-5.5
			C366.1,204.4,363.6,202.1,360.6,202.1z"/>
		<path class="st3" d="M329.2,177.7h-95.2c-3,0-5.5,2.5-5.5,5.5s2.5,5.5,5.5,5.5h95.2c3,0,5.5-2.5,5.5-5.5S332.4,177.7,329.2,177.7z
			"/>
		<g>
			<path class="st3" d="M360.6,223.4H202.8c-3,0-5.5,2.5-5.5,5.5s2.5,5.5,5.5,5.5h157.8c3,0,5.5-2.5,5.5-5.5
				S363.6,223.4,360.6,223.4z"/>
		</g>
	</g>
	<g>
		<path class="st3" d="M334.8,450.3c0-3-2.5-5.5-5.5-5.5h-95.2c-3,0-5.5,2.5-5.5,5.5s2.5,5.5,5.5,5.5h95.2
			C332.4,455.8,334.8,453.3,334.8,450.3z"/>
	</g>
</g>
<linearGradient id="SVGID_00000070083906103652211170000006445539333595351476_" gradientUnits="userSpaceOnUse" x1="88.45" y1="403.4" x2="311.05" y2="403.4" gradientTransform="matrix(1 0 0 -1 0 512)">
	<stop  offset="0" style="stop-color:#B50F3A"/>
	<stop  offset="1" style="stop-color:#FF0037"/>
</linearGradient>
<path style="fill:url(#SVGID_00000070083906103652211170000006445539333595351476_);" d="M311.1,129.7c0,12.5-10.1,22.6-22.6,22.6
	H111.1c-12.5,0-22.6-10.1-22.6-22.6V87.6c0-12.5,10.1-22.6,22.6-22.6h177.4c12.5,0,22.6,10.1,22.6,22.6L311.1,129.7L311.1,129.7z"/>
<g>
	<path class="st2" d="M165.1,84.1v49.2h-11.2l-21.4-26.2v26.2h-13.4V84.1h11.3l21.4,26.2V84.1H165.1z"/>
	<path class="st2" d="M214.4,122.5v10.8h-38.9V84.1h38v10.8h-24.4v8.3h21.5v10.4h-21.5v9h25.3V122.5z"/>
	<path class="st2" d="M297.9,84.1l-15.7,49.2h-14.7l-9.3-29.9l-9.7,29.9h-14.6l-15.7-49.2h14.1l9.7,31.4l10.3-31.4h12.6l9.7,31.7
		l10.2-31.7H297.9z"/>
</g>
<g>
	<circle class="st5" cx="279.6" cy="338.7" r="60"/>
	<path class="st6" d="M328.4,373.5c0-0.1-0.1-0.1-0.1-0.2c-0.1-0.2-0.1-0.3-0.2-0.5s-0.1-0.3-0.2-0.5s-0.1-0.3-0.2-0.5
		s-0.1-0.3-0.2-0.5s-0.1-0.3-0.2-0.5s-0.1-0.3-0.2-0.5s-0.1-0.3-0.2-0.5s-0.1-0.3-0.2-0.5s-0.1-0.3-0.2-0.5s-0.1-0.3-0.2-0.5
		s-0.1-0.3-0.2-0.5s-0.1-0.3-0.2-0.5s-0.1-0.3-0.2-0.5s-0.1-0.3-0.2-0.5s-0.1-0.3-0.2-0.5s-0.1-0.3-0.2-0.5s-0.1-0.3-0.2-0.5
		s-0.1-0.3-0.2-0.5s-0.1-0.3-0.2-0.5s-0.1-0.3-0.2-0.5s-0.1-0.3-0.2-0.5s-0.1-0.3-0.2-0.5s-0.1-0.3-0.2-0.5s-0.1-0.3-0.2-0.5
		s-0.1-0.3-0.2-0.5s-0.1-0.3-0.2-0.5s-0.1-0.3-0.2-0.5s-0.1-0.3-0.2-0.5s-0.1-0.3-0.2-0.5s-0.1-0.3-0.2-0.5s-0.1-0.3-0.2-0.5
		s-0.1-0.3-0.2-0.5s-0.1-0.3-0.2-0.5s-0.1-0.3-0.2-0.5s-0.1-0.3-0.2-0.5s-0.1-0.3-0.2-0.5s-0.1-0.3-0.2-0.5s-0.1-0.3-0.2-0.5
		s-0.1-0.3-0.2-0.5s-0.1-0.3-0.2-0.5s-0.1-0.3-0.2-0.5s-0.1-0.3-0.2-0.5s-0.1-0.3-0.2-0.5s-0.1-0.3-0.2-0.5s-0.1-0.3-0.2-0.5
		s-0.1-0.3-0.2-0.5s-0.1-0.3-0.2-0.5s-0.1-0.3-0.2-0.5s-0.1-0.3-0.2-0.5s-0.1-0.3-0.2-0.5s-0.1-0.3-0.2-0.5s-0.1-0.3-0.2-0.5
		s-0.1-0.3-0.2-0.5s-0.1-0.3-0.2-0.5s-0.1-0.3-0.2-0.5s-0.1-0.3-0.2-0.5s-0.1-0.3-0.2-0.5s-0.1-0.3-0.2-0.5s-0.1-0.3-0.2-0.5
		s-0.1-0.3-0.2-0.5s-0.1-0.3-0.2-0.5s-0.1-0.3-0.2-0.5s-0.1-0.3-0.2-0.5s-0.1-0.3-0.2-0.5s-0.1-0.3-0.2-0.5s-0.1-0.3-0.2-0.5
		s-0.1-0.3-0.2-0.5s-0.1-0.3-0.2-0.5s-0.1-0.3-0.2-0.5s-0.1-0.3-0.2-0.5s-0.1-0.3-0.2-0.5s-0.1-0.3-0.2-0.5s-0.1-0.3-0.2-0.5
		s-0.1-0.3-0.2-0.5s-0.1-0.3-0.2-0.5s-0.1-0.3-0.2-0.5s-0.1-0.3-0.2-0.5s-0.1-0.3-0.2-0.5s-0.1-0.3-0.2-0.5s-0.1-0.3-0.2-0.5
		s-0.1-0.3-0.2-0.5s-0.1-0.3-0.2-0.5s-0.1-0.3-0.2-0.5s-0.1-0.3-0.2-0.5s-0.1-0.3-0.2-0.5s-0.1-0.3-0.2-0.5s-0.1-0.3-0.2-0.5
		s-0.1-0.3-0.2-0.5s-0.1-0.3-0.2-0.5s-0.1-0.3-0.2-0.5s-0.1-0.3-0.2-0.5s-0.1-0.3-0.2-0.5s-0.1-0.3-0.2-0.5
		c-0.6-1.8-2.4-3.1-4.4-3.1c-1.3,0-2.4,0.5-3.3,1.3c0-0.2-0.1-0.3-0.2-0.5c0-0.2-0.1-0.3-0.2-0.5c0-0.2-0.1-0.3-0.2-0.5
		c0-0.2-0.1-0.3-0.2-0.5c0-0.2-0.1-0.3-0.2-0.5c0-0.2-0.1-0.3-0.2-0.5c0-0.2-0.1-0.3-0.2-0.5c0-0.2-0.1-0.3-0.2-0.5
		c0-0.2-0.1-0.3-0.2-0.5c0-0.2-0.1-0.3-0.2-0.5c0-0.2-0.1-0.3-0.2-0.5c0-0.2-0.1-0.3-0.2-0.5c0-0.2-0.1-0.3-0.2-0.5
		c0-0.2-0.1-0.3-0.2-0.5c0-0.2-0.1-0.3-0.2-0.5c0-0.2-0.1-0.3-0.2-0.5c0-0.2-0.1-0.3-0.2-0.5c0-0.2-0.1-0.3-0.2-0.5
		c0-0.2-0.1-0.3-0.2-0.5c0-0.2-0.1-0.3-0.2-0.5c0-0.2-0.1-0.3-0.2-0.5c0-0.2-0.1-0.3-0.2-0.5c0-0.2-0.1-0.3-0.2-0.5
		c0-0.2-0.1-0.3-0.2-0.5c0-0.2-0.1-0.3-0.2-0.5c0-0.2-0.1-0.3-0.2-0.5c0-0.2-0.1-0.3-0.2-0.5c0-0.2-0.1-0.3-0.2-0.5
		c0-0.2-0.1-0.3-0.2-0.5c0-0.2-0.1-0.3-0.2-0.5c0-0.2-0.1-0.3-0.2-0.5c0-0.2-0.1-0.3-0.2-0.5c0-0.2-0.1-0.3-0.2-0.5
		c0-0.2-0.1-0.3-0.2-0.5c0-0.2-0.1-0.3-0.2-0.5c0-0.2-0.1-0.3-0.2-0.5c0-0.2-0.1-0.3-0.2-0.5c0-0.2-0.1-0.3-0.2-0.5
		c0-0.2-0.1-0.3-0.2-0.5c0-0.2-0.1-0.3-0.2-0.5c0-0.2-0.1-0.3-0.2-0.5c0-0.2-0.1-0.3-0.2-0.5c0-0.2-0.1-0.3-0.2-0.5
		c0-0.2-0.1-0.3-0.2-0.5c0-0.2-0.1-0.3-0.2-0.5c0-0.2-0.1-0.3-0.2-0.5c0-0.2-0.1-0.3-0.2-0.5c0-0.2-0.1-0.3-0.2-0.5
		c0-0.2-0.1-0.3-0.2-0.5c0-0.2-0.1-0.3-0.2-0.5c0-0.3-0.2-0.6-0.5-0.7c-0.5-0.2-1-0.1-1.3,0.4l-2.5,4.6c-2.7-1.4-5.8-2.2-9-2.2
		c-3.3,0-6.3,0.8-9,2.2l-2.5-4.6c-0.2-0.5-0.8-0.6-1.3-0.4s-0.6,0.8-0.4,1.3l0.1,0.2c0,0.1,0,0.2,0.1,0.3l0.1,0.2
		c0,0.1,0,0.2,0.1,0.3l0.1,0.2c0,0.1,0,0.2,0.1,0.3l0.1,0.2c0,0.1,0,0.2,0.1,0.3l0.1,0.2c0,0.1,0,0.2,0.1,0.3l0.1,0.2
		c0,0.1,0,0.2,0.1,0.3l0.1,0.2c0,0.1,0,0.2,0.1,0.3l0.1,0.2c0,0.1,0,0.2,0.1,0.3l0.1,0.2c0,0.1,0,0.2,0.1,0.3l0.1,0.2
		c0,0.1,0,0.2,0.1,0.3l0.1,0.2c-5.1,3.5-8.5,9.5-8.5,16.2h0.2c0,0.2,0,0.3,0,0.5h0.2c0,0.2,0,0.3,0,0.5h0.2c0,0.2,0,0.3,0,0.5h0.2
		c0,0.1,0,0.3,0,0.4h0v7.5l0,0c-0.1-0.2-0.1-0.3-0.2-0.5c-0.1-0.2-0.1-0.3-0.2-0.5s-0.1-0.3-0.2-0.5c-0.1-0.2-0.1-0.3-0.2-0.5
		s-0.1-0.3-0.2-0.5c-0.1-0.2-0.1-0.3-0.2-0.5s-0.1-0.3-0.2-0.5c-0.1-0.2-0.1-0.3-0.2-0.5s-0.1-0.3-0.2-0.5c-0.1-0.2-0.1-0.3-0.2-0.5
		s-0.1-0.3-0.2-0.5c-0.6-1.8-2.4-3.1-4.4-3.1c-2.6,0-4.7,2.1-4.7,4.7v18.8c0,0.7,0.2,1.4,0.5,2c0.1,0.2,0.1,0.3,0.2,0.5
		c0.1,0.2,0.1,0.3,0.2,0.5c0.1,0.2,0.1,0.3,0.2,0.5c0.1,0.2,0.1,0.3,0.2,0.5c0.1,0.2,0.1,0.3,0.2,0.5c0.1,0.2,0.1,0.3,0.2,0.5
		c0.1,0.2,0.1,0.3,0.2,0.5c0.1,0.2,0.1,0.3,0.2,0.5c0.1,0.2,0.1,0.3,0.2,0.5c0.1,0.2,0.1,0.3,0.2,0.5c0.1,0.2,0.1,0.3,0.2,0.5
		c0.1,0.2,0.1,0.3,0.2,0.5c0.1,0.2,0.1,0.3,0.2,0.5c0.1,0.2,0.1,0.3,0.2,0.5c0.1,0.2,0.1,0.3,0.2,0.5c0.1,0.2,0.1,0.3,0.2,0.5
		c0.1,0.2,0.1,0.3,0.2,0.5c0.1,0.2,0.1,0.3,0.2,0.5c0.1,0.2,0.1,0.3,0.2,0.5c0.1,0.2,0.1,0.3,0.2,0.5c0.1,0.2,0.1,0.3,0.2,0.5
		c0.1,0.2,0.1,0.3,0.2,0.5c0.1,0.2,0.1,0.3,0.2,0.5c0.1,0.2,0.1,0.3,0.2,0.5c0.1,0.2,0.1,0.3,0.2,0.5c0.1,0.2,0.1,0.3,0.2,0.5
		c0.1,0.2,0.1,0.3,0.2,0.5c0.1,0.2,0.1,0.3,0.2,0.5c0.1,0.2,0.1,0.3,0.2,0.5c0.1,0.2,0.1,0.3,0.2,0.5c0.1,0.2,0.1,0.3,0.2,0.5
		c0.1,0.2,0.1,0.3,0.2,0.5c0.1,0.2,0.1,0.3,0.2,0.5c0.1,0.2,0.1,0.3,0.2,0.5c0.1,0.2,0.1,0.3,0.2,0.5s0.1,0.3,0.2,0.5
		c0.1,0.2,0.1,0.3,0.2,0.5s0.1,0.3,0.2,0.5c0.1,0.2,0.1,0.3,0.2,0.5s0.1,0.3,0.2,0.5c0.1,0.2,0.1,0.3,0.2,0.5s0.1,0.3,0.2,0.5
		c0.1,0.2,0.1,0.3,0.2,0.5s0.1,0.3,0.2,0.5c0.1,0.2,0.1,0.3,0.2,0.5s0.1,0.3,0.2,0.5c0.1,0.2,0.1,0.3,0.2,0.5s0.1,0.3,0.2,0.5
		c0.1,0.2,0.1,0.3,0.2,0.5s0.1,0.3,0.2,0.5c0.1,0.2,0.1,0.3,0.2,0.5s0.1,0.3,0.2,0.5c0.1,0.2,0.1,0.3,0.2,0.5s0.1,0.3,0.2,0.5
		c0.1,0.2,0.1,0.3,0.2,0.5s0.1,0.3,0.2,0.5c0.1,0.2,0.1,0.3,0.2,0.5s0.1,0.3,0.2,0.5c0.1,0.2,0.1,0.3,0.2,0.5s0.1,0.3,0.2,0.5
		c0.1,0.2,0.1,0.3,0.2,0.5s0.1,0.3,0.2,0.5c0.1,0.2,0.1,0.3,0.2,0.5s0.1,0.3,0.2,0.5c0.1,0.2,0.1,0.3,0.2,0.5s0.1,0.3,0.2,0.5
		c0.1,0.2,0.1,0.3,0.2,0.5s0.1,0.3,0.2,0.5c0.1,0.2,0.1,0.3,0.2,0.5s0.1,0.3,0.2,0.5c0.1,0.2,0.1,0.3,0.2,0.5s0.1,0.3,0.2,0.5
		c0.1,0.2,0.1,0.3,0.2,0.5s0.1,0.3,0.2,0.5c0.1,0.2,0.1,0.3,0.2,0.5s0.1,0.3,0.2,0.5c0.1,0.2,0.1,0.3,0.2,0.5s0.1,0.3,0.2,0.5
		c0.1,0.2,0.1,0.3,0.2,0.5s0.1,0.3,0.2,0.5c0.1,0.2,0.1,0.3,0.2,0.5s0.1,0.3,0.2,0.5c0.1,0.2,0.1,0.3,0.2,0.5s0.1,0.3,0.2,0.5
		c0.1,0.2,0.1,0.3,0.2,0.5s0.1,0.3,0.2,0.5c0.1,0.2,0.1,0.3,0.2,0.5s0.1,0.3,0.2,0.5c0.1,0.2,0.1,0.3,0.2,0.5s0.1,0.3,0.2,0.5
		c0.1,0.2,0.1,0.3,0.2,0.5s0.1,0.3,0.2,0.5c0.1,0.2,0.1,0.3,0.2,0.5s0.1,0.3,0.2,0.5c0.1,0.2,0.1,0.3,0.2,0.5s0.1,0.3,0.2,0.5
		c0.1,0.1,0.1,0.3,0.2,0.4c3.8,0.7,7.7,1.1,11.7,1.1C299.6,398.7,317.5,388.8,328.4,373.5z"/>
	<g>
		<path class="st7" d="M259.9,354.5c0,3.1,2.5,5.6,5.6,5.6h1.9v9.4c0,2.6,2.1,4.7,4.7,4.7s4.7-2.1,4.7-4.7v-9.4h5.6v9.4
			c0,2.6,2.1,4.7,4.7,4.7s4.7-2.1,4.7-4.7v-9.4h1.9c3.1,0,5.6-2.5,5.6-5.6v-28.1h-39.4V354.5z"/>
		<path class="st7" d="M305.8,325.5c-2.6,0-4.7,2.1-4.7,4.7V349c0,2.6,2.1,4.7,4.7,4.7s4.7-2.1,4.7-4.7v-18.8
			C310.5,327.7,308.4,325.5,305.8,325.5z"/>
		<path class="st7" d="M253.2,325.5c-2.6,0-4.7,2.1-4.7,4.7V349c0,2.6,2.1,4.7,4.7,4.7c2.6,0,4.7-2.1,4.7-4.7v-18.8
			C258,327.7,255.9,325.5,253.2,325.5z"/>
		<path class="st7" d="M290.1,308l2.5-4.6c0.2-0.5,0.1-1-0.4-1.3c-0.5-0.2-1-0.1-1.3,0.4l-2.5,4.6c-2.7-1.4-5.8-2.2-9-2.2
			c-3.3,0-6.3,0.8-9,2.2l-2.5-4.6c-0.2-0.5-0.8-0.6-1.3-0.4s-0.6,0.8-0.4,1.3l2.5,4.6c-5.4,3.5-9,9.6-9,16.5h39.4
			C299.2,317.7,295.6,311.5,290.1,308z M271.2,318c-1,0-1.9-0.8-1.9-1.9c0-1.1,0.8-1.9,1.9-1.9c1,0,1.9,0.8,1.9,1.9
			C273.1,317.2,272.2,318,271.2,318z M288,318c-1,0-1.9-0.8-1.9-1.9c0-1.1,0.8-1.9,1.9-1.9c1,0,1.9,0.8,1.9,1.9
			C289.9,317.2,289.1,318,288,318z"/>
	</g>
	<g>
		<path class="st8" d="M279.6,360.2h2.8v9.4c0,2.6,2.1,4.7,4.7,4.7s4.7-2.1,4.7-4.7v-9.4h1.9c3.1,0,5.6-2.5,5.6-5.6v-28.1h-19.7
			V360.2z"/>
		<path class="st8" d="M290.1,308l2.5-4.6c0.2-0.5,0.1-1-0.4-1.3c-0.5-0.2-1-0.1-1.3,0.4l-2.5,4.6c-2.7-1.4-5.8-2.2-9-2.2v19.7h19.7
			C299.2,317.7,295.6,311.5,290.1,308z M288,318c-1,0-1.9-0.8-1.9-1.9c0-1.1,0.8-1.9,1.9-1.9c1,0,1.9,0.8,1.9,1.9
			C289.9,317.2,289.1,318,288,318z"/>
		<path class="st8" d="M305.8,325.5c-2.6,0-4.7,2.1-4.7,4.7V349c0,2.6,2.1,4.7,4.7,4.7s4.7-2.1,4.7-4.7v-18.8
			C310.5,327.7,308.4,325.5,305.8,325.5z"/>
	</g>
</g>
</svg>
