<?xml version="1.0" encoding="utf-8"?>
<!-- Generator: Adobe Illustrator 25.4.1, SVG Export Plug-In . SVG Version: 6.00 Build 0)  -->
<svg version="1.1" id="Capa_1" xmlns="http://www.w3.org/2000/svg" xmlns:xlink="http://www.w3.org/1999/xlink" x="0px" y="0px"
	 viewBox="0 0 512 512" style="enable-background:new 0 0 512 512;" xml:space="preserve">
<style type="text/css">
	.st0{fill:url(#SVGID_1_);}
	.st1{fill:url(#SVGID_00000040568227584368366890000007737026055368848831_);}
	.st2{fill:#FFFFFF;}
	.st3{fill:#FEA832;}
	.st4{fill:#FE9923;}
	.st5{fill:#FEDB41;}
	.st6{fill:#FFCC33;}
	.st7{fill:url(#SVGID_00000096061128697504304520000014530615766022875807_);}
	.st8{font-family:'Montserrat-ExtraBold';}
	.st9{font-size:64px;}
</style>
<g>
	<g>
		<linearGradient id="SVGID_1_" gradientUnits="userSpaceOnUse" x1="93.0211" y1="169.952" x2="160.5446" y2="169.952">
			<stop  offset="0" style="stop-color:#B50F3A"/>
			<stop  offset="1" style="stop-color:#FF0037"/>
		</linearGradient>
		<polygon class="st0" points="93,181.4 144.7,209.8 160.5,130.1 		"/>
		
			<linearGradient id="SVGID_00000006709804640486844470000012226067907508592780_" gradientUnits="userSpaceOnUse" x1="523.462" y1="169.952" x2="590.9852" y2="169.952" gradientTransform="matrix(-1 0 0 1 942.3047 0)">
			<stop  offset="0" style="stop-color:#B50F3A"/>
			<stop  offset="1" style="stop-color:#FF0037"/>
		</linearGradient>
		<polygon style="fill:url(#SVGID_00000006709804640486844470000012226067907508592780_);" points="418.8,181.4 367.1,209.8 
			351.3,130.1 		"/>
	</g>
	<g>
		<g>
			<path class="st2" d="M357.9,20.7C291.9,1.5,220,1.5,154,20.7c-11.1,3.2-16.4,16-10.4,26.3l27,48.4c47-18.7,116.7-21.5,170.5,0
				l27-48.4C374.3,36.8,369,24,357.9,20.7z"/>
		</g>
	</g>
	<g>
		<g>
			<path class="st2" d="M323.9,111.1c-27.4-19.3-107.7-20.1-136,0.1c-12.2,8.6-18.6,22.1-18.5,36.1c28.1-14.9,61-22,86.6-22
				c31.1,0,60.3,8.1,86.6,22C342.7,133.8,336.7,120.1,323.9,111.1z"/>
		</g>
	</g>
	<path class="st2" d="M256,154.6c-107.1,0-190.2,118-190.2,219.4c0,118,108.5,131.7,190.2,131.7S446.2,492,446.2,374
		C446.2,272.5,363.1,154.6,256,154.6z"/>
	<g>
		<g>
			<path class="st3" d="M247.5,404.2v16.8c0,19.1-25.8,33.7-59.5,33.7s-59.5-14.5-59.5-33.6v-16.8h119.1V404.2z"/>
			<path class="st4" d="M247.5,404.2v16.8c0,19.1-25.8,33.7-59.5,33.7v-50.5H247.5z"/>
			<path class="st3" d="M247.5,387.3V404c0,19.1-25.8,33.7-59.5,33.7s-59.5-14.6-59.5-33.7v-16.8L247.5,387.3L247.5,387.3z"/>
			<path class="st4" d="M247.5,387.3V404c0,19.1-25.8,33.7-59.5,33.7v-50.5H247.5z"/>
			<path class="st5" d="M247.5,387.3V404c0,19.1-25.8,33.7-59.5,33.7s-59.5-14.6-59.5-33.7v-16.8L247.5,387.3L247.5,387.3z"/>
			<path class="st6" d="M247.5,387.3V404c0,19.1-25.8,33.7-59.5,33.7v-50.5H247.5z"/>
			<path class="st3" d="M247.5,370.5v16.8c0,19.1-25.8,33.7-59.5,33.7s-59.5-14.6-59.5-33.7v-16.8H247.5z"/>
			<path class="st4" d="M247.5,370.5v16.8c0,19.1-25.8,33.7-59.5,33.7v-50.5H247.5z"/>
			<path class="st5" d="M247.5,353.5v16.8c0,19.1-25.8,33.7-59.5,33.7s-59.5-14.6-59.5-33.7v-16.8H247.5z"/>
			<path class="st6" d="M247.5,353.5v16.8c0,19.1-25.8,33.7-59.5,33.7v-50.5H247.5z"/>
			<path class="st3" d="M247.5,336.8v16.8c0,19.1-25.8,33.7-59.5,33.7s-59.5-14.6-59.5-33.7v-16.8L247.5,336.8L247.5,336.8z"/>
			<path class="st4" d="M247.5,336.8v16.8c0,19.1-25.8,33.7-59.5,33.7v-50.5H247.5z"/>
			<path class="st5" d="M247.5,320v16.8c0,19.1-25.8,33.7-59.5,33.7s-59.5-14.6-59.5-33.7V320H247.5z"/>
			<path class="st6" d="M247.5,320v16.8c0,19.1-25.8,33.7-59.5,33.7V320H247.5z"/>
			<path class="st3" d="M247.5,303v16.8c0,19.1-25.8,33.7-59.5,33.7s-59.5-14.6-59.5-33.7V303H247.5z"/>
			<path class="st4" d="M247.5,303v16.8c0,19.1-25.8,33.7-59.5,33.7V303H247.5z"/>
			<path class="st5" d="M247.5,286.3V303c0,19.1-25.8,33.7-59.5,33.7s-59.5-14.6-59.5-33.7v-16.8L247.5,286.3L247.5,286.3z"/>
			<path class="st6" d="M247.5,286.3V303c0,19.1-25.8,33.7-59.5,33.7v-50.5H247.5z"/>
			<path class="st3" d="M247.5,269.5v16.8c0,19.1-25.8,33.7-59.5,33.7s-59.5-14.6-59.5-33.7v-16.8H247.5z"/>
			<path class="st4" d="M247.5,269.5v16.8c0,19.1-25.8,33.7-59.5,33.7v-50.5H247.5z"/>
			<path class="st5" d="M247.5,252.5v16.8c0,19.1-25.8,33.7-59.5,33.7s-59.5-14.6-59.5-33.7v-16.8H247.5z"/>
			<path class="st6" d="M247.5,252.5v16.8c0,19.1-25.8,33.7-59.5,33.7v-50.5H247.5z"/>
			<path class="st3" d="M247.5,235.8v16.8c0,19.1-25.8,33.7-59.5,33.7s-59.5-14.6-59.5-33.7v-16.8L247.5,235.8L247.5,235.8z"/>
			<path class="st4" d="M247.5,235.8v16.8c0,19.1-25.8,33.7-59.5,33.7v-50.5H247.5z"/>
			<path class="st5" d="M187.9,202c-33.7,0-59.5,14.6-59.5,33.7s25.8,33.7,59.5,33.7s59.5-14.6,59.5-33.7
				C247.5,216.5,221.7,202,187.9,202z"/>
			<path class="st6" d="M247.5,235.8c0,19.1-25.8,33.7-59.5,33.7v-67.3C221.7,202,247.5,216.5,247.5,235.8z"/>
			<path class="st3" d="M365.5,404.2v16.8c0,19.1-25.3,33.7-58.9,33.7c-33.7,0-58.9-14.6-58.9-33.7v-16.8H365.5z"/>
			<path class="st4" d="M365.5,404.2v16.8c0,19.1-25.3,33.7-58.9,33.7v-50.5H365.5z"/>
			<path class="st5" d="M365.5,387.3V404c0,19.1-25.3,33.7-58.9,33.7c-33.7,0-58.9-14.6-58.9-33.7v-16.8H365.5z"/>
			<path class="st6" d="M365.5,387.3V404c0,19.1-25.3,33.7-58.9,33.7v-50.5H365.5z"/>
			<path class="st3" d="M365.5,370.5v16.8c0,19.1-25.3,33.7-58.9,33.7c-33.7,0-58.9-14.6-58.9-33.7v-16.8H365.5z"/>
			<path class="st4" d="M365.5,370.5v16.8c0,19.1-25.3,33.7-58.9,33.7v-50.5H365.5z"/>
			<path class="st5" d="M365.5,353.5v16.8c0,19.1-25.3,33.7-58.9,33.7c-33.7,0-58.9-14.6-58.9-33.7v-16.8H365.5z"/>
			<path class="st6" d="M365.5,353.5v16.8c0,19.1-25.3,33.7-58.9,33.7v-50.5H365.5z"/>
			<path class="st3" d="M365.5,336.8v16.8c0,19.1-25.3,33.7-58.9,33.7c-33.7,0-58.9-14.6-58.9-33.7v-16.8H365.5z"/>
			<path class="st4" d="M365.5,336.8v16.8c0,19.1-25.3,33.7-58.9,33.7v-50.5H365.5z"/>
			<path class="st5" d="M365.5,320v16.8c0,19.1-25.3,33.7-58.9,33.7c-33.7,0-58.9-14.6-58.9-33.7V320H365.5z"/>
			<path class="st6" d="M365.5,320v16.8c0,19.1-25.3,33.7-58.9,33.7V320H365.5z"/>
			<path class="st3" d="M365.5,303v16.8c0,19.1-25.3,33.7-58.9,33.7c-33.7,0-58.9-14.6-58.9-33.7V303H365.5z"/>
			<path class="st4" d="M365.5,303v16.8c0,19.1-25.3,33.7-58.9,33.7V303H365.5z"/>
			<path class="st5" d="M365.5,286.3V303c0,19.1-25.3,33.7-58.9,33.7c-33.7,0-58.9-14.6-58.9-33.7v-16.8H365.5z"/>
			<path class="st6" d="M365.5,286.3V303c0,19.1-25.3,33.7-58.9,33.7v-50.5H365.5z"/>
			<path class="st3" d="M365.5,269.5v16.8c0,19.1-25.3,33.7-58.9,33.7c-33.7,0-58.9-14.6-58.9-33.7v-16.8H365.5z"/>
			<path class="st4" d="M365.5,269.5v16.8c0,19.1-25.3,33.7-58.9,33.7v-50.5H365.5z"/>
			<path class="st5" d="M306.5,235.8c-33.7,0-58.9,14.6-58.9,33.7s25.3,33.7,58.9,33.7s58.9-14.6,58.9-33.7
				C365.5,250.2,340.2,235.8,306.5,235.8z"/>
			<path class="st6" d="M365.5,269.5c0,19.1-25.3,33.7-58.9,33.7V236C340.2,235.8,365.5,250.2,365.5,269.5z"/>
			<path class="st3" d="M348.5,334.2c-37.2,0-67.3,30.2-67.3,67.3c0,37.2,30.2,67.3,67.3,67.3s67.3-30.2,67.3-67.3
				C416,364.4,385.8,334.2,348.5,334.2z"/>
			<path class="st4" d="M416,401.7c0,37.2-30.2,67.3-67.3,67.3V334.2C385.8,334.2,416,364.4,416,401.7z"/>
			<path class="st5" d="M348.5,351.2c-27.8,0-50.5,22.7-50.5,50.5s22.7,50.5,50.5,50.5c27.8,0,50.5-22.7,50.5-50.5
				C399.2,373.9,376.3,351.2,348.5,351.2z"/>
			<path class="st6" d="M399.2,401.7c0,27.8-22.7,50.5-50.5,50.5v-101C376.3,351.2,399.2,373.9,399.2,401.7z"/>
		</g>
	</g>
	
		<linearGradient id="SVGID_00000162310533724062406090000003717395243431077764_" gradientUnits="userSpaceOnUse" x1="83.0893" y1="130.6761" x2="428.9108" y2="130.6761">
		<stop  offset="0" style="stop-color:#B50F3A"/>
		<stop  offset="1" style="stop-color:#FF0037"/>
	</linearGradient>
	<path style="fill:url(#SVGID_00000162310533724062406090000003717395243431077764_);" d="M416.9,181.5H95.1c-6.6,0-12-5.4-12-12
		V91.9c0-6.6,5.4-12,12-12h321.8c6.6,0,12,5.4,12,12v77.6C428.9,176.1,423.5,181.5,416.9,181.5z"/>
	<text transform="matrix(0.9838 0 0 1 97.1667 151.8052)" class="st2 st8 st9">Jackpot</text>
</g>
</svg>
