<?xml version="1.0" encoding="utf-8"?>
<!-- Generator: Adobe Illustrator 25.4.1, SVG Export Plug-In . SVG Version: 6.00 Build 0)  -->
<svg version="1.1" id="Layer_1" xmlns="http://www.w3.org/2000/svg" xmlns:xlink="http://www.w3.org/1999/xlink" x="0px" y="0px"
	 viewBox="0 0 520 520" style="enable-background:new 0 0 520 520;" xml:space="preserve">
<style type="text/css">
	.st0{fill:#FFFFFF;}
</style>
<g>
	<path id="svg_2" class="st0" d="M407.7,89.5c-2.6,1-3.8,4.9-2.4,7.1c0.4,0.5,3,3,5.9,5.6c34.2,29.9,57.6,69.9,65.9,112.6
		c2.4,12.2,3.1,19.7,3.4,33.6c0.2,12.8-0.2,20.4-1.7,30.7c-7.2,49.2-33,93.8-73.1,126.8c-5.1,4.2-10.8,8.4-17.8,13.1
		c-5.3,3.6-6,4.4-6,6.9c0,3.2,2.7,5.4,5.9,4.9c0.8-0.1,3.5-1.7,7.4-4.4c40-27,69.5-64.9,84.7-108.6c11.8-34,14.3-70.9,7.2-105.9
		c-9.3-45.7-34-87.2-70.5-118.7C411.5,88.8,410.4,88.3,407.7,89.5L407.7,89.5z"/>
	<path id="svg_3" class="st0" d="M107.8,90c-1.7,1.1-8.8,7.3-14,12.3c-17.4,16.8-31.9,36.5-42.9,58c-20.6,40.6-27,87.2-18,131.3
		C41.2,332.3,61.2,369,91.4,399c10.3,10.3,19.1,17.7,30.4,25.6c8.3,5.8,9.8,6.6,11.7,6.5c3.9-0.4,6-4.8,3.8-7.8
		c-0.4-0.5-3.3-2.7-6.5-4.9c-20.8-14.2-37.1-29.6-51.1-48.2c-21.8-28.7-35.1-61.4-39.2-96.4c-1.3-11.2-1.4-31.7-0.3-41.9
		c2.8-23.7,8.9-44.5,19-65.2c12.3-25.1,28.8-46.3,51.4-65.9c2.1-1.9,4-3.8,4.2-4.3c0.5-1.4,0.4-3.7-0.4-4.9
		C113.1,89.4,110,88.6,107.8,90L107.8,90z"/>
	<path id="svg_4" class="st0" d="M369.1,112.4c-2.1,1-3.1,2.5-3.2,4.9c-0.3,3.2,0.5,4.4,5.4,8.1c11.7,9,23.7,21,32.4,32.6
		c43.6,58.3,42.5,135.2-2.9,191.9c-13.2,16.5-31.5,32.1-49.2,42c-4,2.2-5.3,4.4-4.9,7.8c0.3,1.8,1.8,3.9,3.4,4.5
		c2.5,1,4.3,0.7,8.3-1.6c24.5-14.3,45.1-33.3,60.3-55.6c27.3-40.2,36.2-87.9,24.9-134.2c-9.3-38.3-32.4-73.1-65.1-97.9
		C373.9,111.5,372.1,111,369.1,112.4z"/>
	<path id="svg_5" class="st0" d="M146.1,112.2c-1.9,0.4-13.6,10.1-21.6,17.8c-24.1,23.5-40.4,51.8-48.1,83.2
		c-5.7,23.4-6.3,47.2-1.8,70.4c5.5,28.5,18,54.5,37.3,77.8c4.5,5.5,17.1,18.1,22.8,22.7c8.2,6.8,16.6,12.7,25.8,18.2
		c3.5,2.1,4.7,2.6,6.2,2.7c3.9,0.3,6.8-2.3,6.8-6.1c0-3.1-1.2-4.5-6.6-7.6c-22.2-13-42.1-31.7-56.2-52.8
		c-18.4-27.7-27.8-61.3-26.1-93.1c1.2-22.2,6.2-41.6,15.8-61.1c10.9-22.2,26.3-41.1,46.2-57c5.6-4.5,6.2-5,6.9-6.1
		c1.4-2.4,0.6-6.2-1.7-8C150.7,112.3,147.8,111.8,146.1,112.2L146.1,112.2z"/>
	<path id="svg_6" class="st0" d="M345.7,142.3c-1.5,0.9-2.3,2.5-2.3,4.4c0,2.1,0.9,3.3,4.3,5.9c11.7,8.9,23.4,21.6,31,33.7
		c13.5,21.3,20.2,45.2,19.4,69.1c-0.5,15.1-3.1,27.4-8.6,41.3c-10.3,26-30.3,49.1-55.4,63.9c-1.8,1-3.6,2.3-4.1,2.7
		c-2.7,2.4-2.5,6.4,0.5,8.2c2.1,1.3,4,0.9,8.3-1.6c36-21.2,60.6-55.8,67.7-95.2c1.8-9.9,2.4-24.8,1.5-34.7
		c-3.5-36.6-22.1-70.2-52-94c-2.3-1.8-4.7-3.6-5.3-3.9C349.2,141.4,347.1,141.5,345.7,142.3L345.7,142.3z"/>
	<path id="svg_7" class="st0" d="M169.6,142.3c-0.4,0.2-2.4,1.6-4.4,3.2c-30.4,23.6-49.6,58-53.2,94.9c-0.5,5.2-0.5,18.8,0,24
		c1.6,16.1,6.2,32.2,13.5,46.7c7.1,14.2,14.8,24.9,26.4,36.4c8.5,8.6,17.4,15.6,27.5,21.7c4.1,2.5,5.6,3.2,6.9,3.3
		c3.1,0.3,5.5-1.9,5.5-5.2c0-2.2-1.3-3.5-6.4-6.5c-26.5-15.8-47.2-40.8-56.7-68.4c-4.8-13.9-6.7-25.2-6.7-39.9
		c0-9.3,0.4-13.4,1.8-21.6c5.5-30.1,22.5-57.6,47.7-77.2c2.8-2.2,4.5-3.8,4.8-4.5c1.5-3.6-0.8-7.3-4.6-7.2
		C170.9,142,170,142.2,169.6,142.3L169.6,142.3z"/>
	<path id="svg_8" class="st0" d="M323,171.1c-1.4,0.9-1.8,1.4-2.3,3c-0.4,1.1-0.4,1.5,0.1,3c0.5,1.3,1.2,2.1,3.8,4.2
		c27.6,21.8,40.3,54.7,33.5,87c-3.6,17.6-12.4,33.3-25.8,46.2c-5.8,5.6-11.2,9.7-19.2,14.5c-1.3,0.8-2.4,1.8-2.8,2.5
		c-1.8,3.5,0.6,7.5,4.4,7.5c3.3,0,15.3-8.2,23.8-16.2c18.1-17,28.5-37.8,31.3-62.1c0.5-4.9,0.3-18.9-0.5-23.5
		c-3.7-21.7-13-39.9-28.3-55.3c-4.4-4.4-10.9-9.9-13-11C326.5,170.3,324.3,170.4,323,171.1L323,171.1z"/>
	<path id="svg_9" class="st0" d="M193,172.9c-2.4,1.4-8.2,6.3-13,11.1c-9,9-14.7,17-20,28.1c-9,18.8-11.6,39.1-7.6,59.5
		c4.9,25.5,20.9,49.1,43.5,64.1c4.9,3.2,8.2,5.1,9.6,5.3c2.6,0.4,5.7-2.2,5.7-4.9c0-2-1-3.6-3.3-4.9c-8.3-5-13.7-9.2-19.6-14.9
		c-19.2-18.6-28.9-43-27.3-68.4c1.2-18.4,7.8-34.9,20-50c3-3.7,10.7-11.3,14.4-14.1c4.6-3.5,5.7-5.6,4.4-8.4
		C198.9,172.9,195.3,171.6,193,172.9L193,172.9z"/>
	<path id="svg_10" class="st0" d="M301.3,194.5c-2.3,1.2-3.4,4.5-2.1,7c0.3,0.5,2.1,2.2,4,3.8c12.8,10.4,20.6,24.4,22.6,40.4
		c0.6,4.7,0.2,13-0.8,17.7c-3.5,16.8-14.2,31.6-29.4,40.8c-1.5,0.9-3.2,2.2-3.7,2.9c-2.5,3.2,0,8,4.2,7.9c2.1,0,5.2-1.8,11.6-6.6
		c19.4-14.5,30.2-37.7,28.5-61c-1-14.5-6.7-28.6-16-39.7c-4.4-5.2-12.4-12.5-14.8-13.4C304,193.8,302.6,193.9,301.3,194.5
		L301.3,194.5z"/>
	<path id="svg_11" class="st0" d="M213.8,195.1c-3.6,2.2-11.4,9.7-15.5,14.8c-4.8,6.1-8.7,13.5-11.2,21.2
		c-7.4,22.3-2.7,46.9,12.5,65.5c7,8.5,20.2,18.7,24.4,18.8c1.7,0,3-0.7,4.3-2.4c0.9-1.2,0.9-4,0-5.3c-0.4-0.5-2.6-2.2-5.1-3.8
		c-5.7-3.8-8.8-6.4-12.6-10.4c-10.7-11.3-16.7-26-16.7-41c0-18.2,8.8-35.7,24-47.7c2.7-2.1,3.4-3.2,3.5-5.3
		C221.6,195.5,217.2,193.1,213.8,195.1L213.8,195.1z"/>
	<path id="svg_12" class="st0" d="M251.5,220.3c-17.2,2.8-29.8,16.7-29.8,32.9c0,11.4,7.1,22.7,17.9,28.4
		c10.9,5.8,24.4,5.9,35.6,0.3c3.5-1.8,5.3-3.1,8.5-6.1c3.2-3.1,5.5-6.1,7.1-9.7c2.3-4.9,2.6-6.4,2.6-12.7c0-5.6-0.1-5.9-1.2-9.2
		c-1.8-5.2-4.1-8.8-8.5-13.4c-4.7-4.9-10.1-8-17.2-9.9C263.5,220.2,254.7,219.8,251.5,220.3L251.5,220.3z M262.8,225.4
		c3.9,0.5,9.3,2.4,12.8,4.5c3.5,2.1,8.2,6.6,10,9.6c6.5,11,4.9,23.6-4.1,32.6c-3.4,3.4-6.1,5.2-9.9,6.9c-5.1,2.2-7.1,2.5-13.9,2.5
		c-5.6,0-6.4-0.1-9.4-1c-18.6-5.7-27.1-23.5-18.9-39.4c1.9-3.7,7.1-9,10.9-11.3C247.3,225.8,254.8,224.3,262.8,225.4L262.8,225.4z"
		/>
</g>
</svg>
