<?xml version="1.0" encoding="utf-8"?>
<!-- Generator: Adobe Illustrator 25.4.1, SVG Export Plug-In . SVG Version: 6.00 Build 0)  -->
<svg version="1.1" id="Layer_1" xmlns="http://www.w3.org/2000/svg" xmlns:xlink="http://www.w3.org/1999/xlink" x="0px" y="0px"
	 viewBox="0 0 20 20" style="enable-background:new 0 0 20 20;" xml:space="preserve">
<style type="text/css">
	.st0{fill:#FFFFFF;}
</style>
<path class="st0" d="M17.5,6h-15C2.2,6,2,5.8,2,5.5S2.2,5,2.5,5h15C17.8,5,18,5.2,18,5.5S17.8,6,17.5,6z"/>
<path class="st0" d="M17.5,11h-15C2.2,11,2,10.8,2,10.5S2.2,10,2.5,10h15c0.3,0,0.5,0.2,0.5,0.5S17.8,11,17.5,11z"/>
<path class="st0" d="M17.5,16h-15C2.2,16,2,15.8,2,15.5S2.2,15,2.5,15h15c0.3,0,0.5,0.2,0.5,0.5S17.8,16,17.5,16z"/>
</svg>
