<?xml version="1.0" encoding="utf-8"?>
<!-- Generator: Adobe Illustrator 25.3.1, SVG Export Plug-In . SVG Version: 6.00 Build 0)  -->
<svg version="1.1" id="Layer_1" xmlns="http://www.w3.org/2000/svg" xmlns:xlink="http://www.w3.org/1999/xlink" x="0px" y="0px"
	 viewBox="0 0 1080 1080" style="enable-background:new 0 0 1080 1080;" xml:space="preserve">
<style type="text/css">
	.st0{fill:#1B5733;}
	.st1{fill:#FFFFFF;}
	.st2{fill:#FBE914;}
	.st3{opacity:0.6;}
	.st4{fill:#DCDDDE;}
</style>
<g>
	<path class="st1" d="M540,58C273.83,58,58,273.83,58,540s215.83,482,482,482s482-215.83,482-482
		C1021.81,273.83,806.17,58.19,540,58z M557.16,196.99l167.59-66.92c19.07,8.58,37.37,18.49,55.1,29.74l0.38,0.19
		c17.35,11.06,33.94,23.07,49.57,36.42l1.33,1.14c7.05,5.91,13.92,12.2,20.59,18.69c0.76,0.76,1.72,1.53,2.48,2.48
		c7.05,6.86,13.73,13.92,20.21,20.97c0.57,0.57,1.14,1.33,1.53,1.91c5.72,6.48,11.25,13.16,16.59,19.83
		c1.33,1.53,2.48,3.24,3.81,4.77c5.72,7.44,11.44,15.25,16.78,23.07l-33.37,142.05l-164.35,54.72l-158.25-126.6V196.99z
		 M183.46,266.21c1.33-1.53,2.48-3.24,3.81-4.77c5.34-6.67,10.68-13.35,16.4-19.64c0.57-0.76,1.14-1.33,1.72-2.1
		c6.48-7.25,13.16-14.3,20.21-20.97c0.76-0.76,1.53-1.53,2.48-2.29c6.67-6.29,13.35-12.58,20.4-18.49l1.53-1.33
		c15.63-13.16,32.03-25.17,49.19-36.23l0.57-0.38c17.54-11.06,35.84-20.97,54.72-29.74l168.36,66.73v162.26l-158.25,126.6
		l-164.35-54.72l-33.37-142.05C172.02,281.27,177.55,273.64,183.46,266.21z M164.01,786.53c-4.77-7.25-9.15-14.49-13.54-21.93
		l-0.95-1.72c-4.19-7.44-8.39-15.06-12.2-22.69l-0.19-0.19c-8.01-16.21-15.06-32.79-21.16-49.76v-0.19
		c-2.86-8.01-5.53-16.21-7.82-24.6l-0.95-3.05c-2.29-7.82-4.19-15.63-5.91-23.64c-0.19-0.76-0.38-1.53-0.57-2.29
		c-4-17.92-6.86-36.04-8.58-54.34l98.19-117.64l163.21,54.34l47.28,189.52l-77.79,103.53L164.01,786.53z M646.96,977
		c-8.01,1.91-16.21,3.62-24.6,5.34c-1.14,0.19-2.29,0.38-3.43,0.57c-7.05,1.33-14.11,2.29-21.16,3.24
		c-1.91,0.19-3.81,0.57-5.72,0.76c-6.67,0.76-13.35,1.33-20.02,1.91c-2.1,0.19-4.19,0.38-6.29,0.57
		c-8.58,0.57-17.16,0.76-25.93,0.76c-8.01,0-15.83-0.19-23.64-0.57c-0.95,0-1.91-0.19-2.86-0.19c-7.05-0.38-13.92-0.95-20.97-1.53
		l-0.76-0.19c-15.25-1.72-30.32-4-45.38-7.25l-94.95-148.91l76.65-102.2h223.84l77.79,102.77L646.96,977z M979.48,636.48
		c-0.19,0.76-0.38,1.53-0.57,2.29c-1.72,8.01-3.81,15.83-5.91,23.64l-0.95,3.05c-2.48,8.2-4.96,16.4-7.82,24.6v0.19
		c-6.1,16.97-13.16,33.56-21.16,49.76l-0.19,0.19c-3.81,7.63-7.82,15.25-12.2,22.69l-0.95,1.72c-4.19,7.44-8.77,14.87-13.54,21.93
		l-158.44,24.98l-78.55-103.34l47.28-189.52l163.21-54.34l98.19,117.64C986.16,600.25,983.3,618.36,979.48,636.48z"/>
</g>
</svg>
