<?xml version="1.0" encoding="utf-8"?>
<!-- Generator: Adobe Illustrator 25.3.1, SVG Export Plug-In . SVG Version: 6.00 Build 0)  -->
<svg version="1.1" id="Layer_1" xmlns="http://www.w3.org/2000/svg" xmlns:xlink="http://www.w3.org/1999/xlink" x="0px" y="0px"
	 viewBox="0 0 1080 1080" style="enable-background:new 0 0 1080 1080;" xml:space="preserve">
<style type="text/css">
	.st0{fill:#FBE914;}
	.st1{fill:#FFFFFF;}
	.st2{fill:#1B5733;}
	.st3{opacity:0.6;}
	.st4{fill:#DCDDDE;}
</style>
<g>
	<polygon class="st0" points="61.21,526.58 99.81,559.6 66.49,597.93 109.57,624.84 82.37,667.73 129,687.88 108.54,734.36 
		157.66,747.3 144.38,796.32 194.88,801.79 189.02,852.24 239.78,850.16 241.47,900.92 291.34,891.33 731.55,924.37 779.44,941.28 
		788.67,891.33 838.54,900.92 840.23,850.16 890.99,852.24 885.14,801.78 935.63,796.32 922.35,747.29 971.47,734.36 951.02,687.87 
		997.65,667.73 970.44,624.84 1013.51,597.93 980.2,559.58 1018.79,526.58 980.2,493.56 1013.51,455.22 970.44,428.3 997.64,385.41 
		951.01,365.27 971.47,318.78 922.34,305.85 935.63,256.82 885.13,251.36 890.98,200.91 840.23,202.99 838.54,152.23 788.65,161.81 
		779.44,111.86 731.55,128.78 714.97,80.76 670.15,104.66 646.55,59.68 605.83,90.04 575.76,49.1 540,85.17 504.24,49.1 
		474.17,90.04 433.45,59.68 409.84,104.66 365.03,80.76 348.46,128.78 300.56,111.86 291.34,161.82 241.46,152.23 239.76,203 
		189.02,200.91 194.88,251.37 144.38,256.83 157.65,305.86 108.53,318.79 128.99,365.27 82.36,385.42 109.56,428.3 66.49,455.22 
		99.81,493.56 	"/>
	<path class="st1" d="M965.61,510.48c0,234.62-190.2,424.82-424.83,424.82c-234.63,0-424.83-190.2-424.83-424.82
		c0-234.63,190.2-424.83,424.83-424.83C775.4,85.64,965.61,275.85,965.61,510.48z"/>
	<g>
		<path class="st0" d="M891.1,510.48c0,193.47-156.85,350.31-350.31,350.31c-193.47,0-350.31-156.84-350.31-350.31
			c0-193.48,156.84-350.32,350.31-350.32C734.25,160.16,891.1,317,891.1,510.48z"/>
	</g>
	<g>
		<g>
			<polygon class="st2" points="526.43,127.93 511.84,113.71 532,110.77 541.02,92.5 550.04,110.77 570.2,113.71 555.61,127.93 
				559.05,148.01 541.02,138.53 522.98,148.01 			"/>
			<path class="st2" d="M541.02,96.36l7.89,15.97l17.63,2.57l-12.76,12.44l3.01,17.56l-15.77-8.29l-15.77,8.29l3.02-17.56
				L515.5,114.9l17.63-2.57L541.02,96.36 M541.02,88.65l-3.05,6.19l-7.09,14.37l-15.86,2.31l-6.83,1l4.94,4.82l11.48,11.18
				l-2.71,15.79l-1.17,6.81l6.12-3.21l14.19-7.46l14.19,7.46l6.11,3.21l-1.17-6.8l-2.71-15.8l11.47-11.18l4.94-4.82l-6.83-1
				l-15.86-2.31l-7.1-14.37L541.02,88.65L541.02,88.65z"/>
		</g>
		<polygon class="st2" points="541.02,136.61 525.24,144.89 541.02,118.82 		"/>
		<polygon class="st2" points="528.26,127.34 515.5,114.9 541.02,118.82 		"/>
		<polygon class="st2" points="541.02,118.82 566.54,114.9 553.78,127.34 		"/>
		<polygon class="st2" points="541.02,96.36 548.91,112.33 541.02,118.82 		"/>
		<polygon class="st2" points="541.02,118.82 553.78,127.34 556.79,144.89 		"/>
	</g>
	<g>
		<g>
			<polygon class="st2" points="915.83,517.77 901.24,503.55 921.4,500.62 930.42,482.34 939.44,500.62 959.6,503.55 945.01,517.77 
				948.46,537.86 930.42,528.37 912.38,537.86 			"/>
			<path class="st2" d="M930.42,486.2l7.89,15.98l17.63,2.56l-12.76,12.43l3.01,17.57l-15.77-8.29l-15.77,8.29l3.02-17.57
				l-12.76-12.43l17.64-2.56L930.42,486.2 M930.42,478.5l-3.06,6.19l-7.09,14.37l-15.86,2.3l-6.84,1l4.95,4.82L914,518.37
				l-2.71,15.8l-1.17,6.81l6.11-3.22l14.19-7.46l14.18,7.46l6.11,3.21l-1.17-6.8l-2.7-15.8l11.47-11.18l4.95-4.82l-6.84-1
				l-15.85-2.3l-7.09-14.37L930.42,478.5L930.42,478.5z"/>
		</g>
		<polygon class="st2" points="930.42,526.45 914.65,534.74 930.42,508.67 		"/>
		<polygon class="st2" points="917.66,517.18 904.9,504.74 930.42,508.67 		"/>
		<polygon class="st2" points="930.42,508.67 955.94,504.74 943.18,517.18 		"/>
		<polygon class="st2" points="930.42,486.2 938.31,502.18 930.42,508.67 		"/>
		<polygon class="st2" points="930.42,508.67 943.18,517.18 946.19,534.74 		"/>
	</g>
	<g>
		<g>
			<polygon class="st2" points="141.68,540.28 127.09,526.06 147.26,523.14 156.27,504.86 165.29,523.14 185.45,526.06 
				170.87,540.28 174.3,560.37 156.27,550.89 138.23,560.37 			"/>
			<path class="st2" d="M156.27,508.71l7.89,15.98l17.63,2.56l-12.76,12.43l3.01,17.57l-15.77-8.29l-15.77,8.29l3.02-17.57
				l-12.76-12.43l17.64-2.56L156.27,508.71 M156.27,501.01l-3.05,6.19l-7.09,14.37l-15.86,2.3l-6.84,1l4.95,4.82l11.48,11.18
				l-2.71,15.8l-1.17,6.81l6.11-3.22l14.19-7.46l14.18,7.46l6.11,3.21l-1.17-6.8l-2.7-15.8l11.47-11.18l4.94-4.82l-6.83-1
				l-15.85-2.3l-7.1-14.37L156.27,501.01L156.27,501.01z"/>
		</g>
		<polygon class="st2" points="156.27,548.96 140.5,557.26 156.27,531.18 		"/>
		<polygon class="st2" points="143.51,539.69 130.75,527.26 156.27,531.18 		"/>
		<polygon class="st2" points="156.27,531.18 181.79,527.26 169.03,539.69 		"/>
		<polygon class="st2" points="156.27,508.71 164.16,524.69 156.27,531.18 		"/>
		<polygon class="st2" points="156.27,531.18 169.03,539.69 172.04,557.26 		"/>
	</g>
	<g>
		<g>
			<g>
				<polygon class="st2" points="854.96,306.27 834.89,302.77 849.88,288.96 847.01,268.8 864.77,278.79 883.06,269.84 
					879.05,289.8 893.22,304.44 872.99,306.79 863.45,324.8 				"/>
				<path class="st2" d="M849.19,271.98l15.53,8.74l16-7.83l-3.51,17.46l12.39,12.8l-17.7,2.06l-8.34,15.75l-7.42-16.21l-17.55-3.07
					l13.11-12.07L849.19,271.98 M844.84,265.62l0.97,6.84l2.26,15.86l-11.79,10.85l-5.08,4.68l6.8,1.19l15.79,2.76l6.68,14.58
					l2.88,6.28l3.23-6.1l7.51-14.16l15.92-1.85l6.85-0.8l-4.8-4.96l-11.15-11.51l3.16-15.7l1.36-6.77l-6.2,3.04l-14.39,7.05
					l-13.97-7.86L844.84,265.62L844.84,265.62z"/>
			</g>
		</g>
		<polygon class="st2" points="871.9,305.21 863.56,320.96 861.86,290.52 		"/>
		<polygon class="st2" points="856.14,304.75 838.59,301.68 861.86,290.52 		"/>
		<polygon class="st2" points="861.86,290.52 880.71,272.89 877.21,290.35 		"/>
		<polygon class="st2" points="849.19,271.98 864.71,280.72 861.86,290.52 		"/>
		<polygon class="st2" points="861.86,290.52 877.21,290.35 889.6,303.15 		"/>
	</g>
	<g>
		<g>
			<g>
				<polygon class="st2" points="712.69,178.45 692.62,174.95 707.62,161.14 704.75,140.97 722.5,150.97 740.8,142.02 
					736.79,161.98 750.96,176.62 730.72,178.97 721.18,196.98 				"/>
				<path class="st2" d="M706.92,144.15l15.53,8.74l16-7.83l-3.51,17.46l12.39,12.8l-17.7,2.06l-8.34,15.75l-7.42-16.21l-17.55-3.06
					l13.11-12.07L706.92,144.15 M702.57,137.79l0.97,6.84l2.26,15.86l-11.8,10.86l-5.08,4.68l6.8,1.19l15.78,2.76l6.68,14.58
					l2.87,6.28l3.24-6.1l7.51-14.17l15.92-1.85l6.85-0.8l-4.8-4.96l-11.15-11.51l3.16-15.7l1.36-6.77l-6.2,3.03l-14.39,7.05
					l-13.97-7.86L702.57,137.79L702.57,137.79z"/>
			</g>
		</g>
		<polygon class="st2" points="729.64,177.39 721.29,193.13 719.6,162.7 		"/>
		<polygon class="st2" points="713.87,176.93 696.32,173.86 719.6,162.7 		"/>
		<polygon class="st2" points="719.6,162.7 738.45,145.07 734.94,162.52 		"/>
		<polygon class="st2" points="706.92,144.15 722.45,152.89 719.6,162.7 		"/>
		<polygon class="st2" points="719.6,162.7 734.94,162.52 747.33,175.33 		"/>
	</g>
	<g>
		<g>
			<g>
				<polygon class="st2" points="200.49,329.93 180.13,328.97 193.28,313.4 187.89,293.75 206.76,301.43 223.79,290.24 
					222.32,310.56 238.22,323.3 218.44,328.18 211.23,347.23 				"/>
				<path class="st2" d="M221.84,293.56l-1.29,17.77l13.9,11.14l-17.29,4.26l-6.3,16.67l-9.4-15.14l-17.8-0.83l11.5-13.62
					l-4.71-17.18l16.5,6.71L221.84,293.56 M225.74,286.92l-5.77,3.79l-13.39,8.8l-14.85-6.04l-6.4-2.6l1.83,6.66l4.24,15.45
					l-10.34,12.25l-4.46,5.28l6.91,0.32l16.01,0.75l8.45,13.62l3.65,5.86l2.44-6.46l5.67-14.99l15.56-3.84l6.7-1.65l-5.39-4.32
					l-12.51-10.02l1.16-15.99L225.74,286.92L225.74,286.92z"/>
			</g>
		</g>
		<polygon class="st2" points="201.46,328.27 183.66,327.43 210.46,312.94 		"/>
		<polygon class="st2" points="195.16,313.82 190.45,296.63 210.46,312.94 		"/>
		<polygon class="st2" points="210.46,312.94 234.45,322.47 217.16,326.74 		"/>
		<polygon class="st2" points="221.84,293.56 220.55,311.33 210.46,312.94 		"/>
		<polygon class="st2" points="210.46,312.94 217.16,326.74 210.86,343.4 		"/>
	</g>
	<g>
		<g>
			<g>
				<polygon class="st2" points="350.06,174.63 333.36,162.94 352.8,156.81 358.75,137.32 370.59,153.9 390.97,153.54 
					378.86,169.93 385.49,189.19 366.17,182.75 349.89,195 				"/>
				<path class="st2" d="M359.37,141.12l10.36,14.5l17.82-0.31l-10.59,14.33l5.8,16.85l-16.9-5.64l-14.23,10.72l0.14-17.82
					l-14.6-10.22l17-5.37L359.37,141.12 M358.12,133.52l-2.01,6.61l-4.68,15.32l-15.29,4.83l-6.59,2.08l5.66,3.96l13.13,9.19
					l-0.13,16.02l-0.05,6.9l5.51-4.15l12.8-9.64l15.2,5.07l6.55,2.19l-2.25-6.52l-5.22-15.16l9.52-12.89l4.1-5.56l-6.91,0.12
					l-16.02,0.28l-9.32-13.04L358.12,133.52L358.12,133.52z"/>
			</g>
		</g>
		<polygon class="st2" points="351.77,173.75 337.17,163.53 367.58,165.61 		"/>
		<polygon class="st2" points="354.17,158.16 359.37,141.12 367.58,165.61 		"/>
		<polygon class="st2" points="367.58,165.61 382.75,186.49 365.86,180.85 		"/>
		<polygon class="st2" points="387.54,155.31 376.96,169.64 367.58,165.61 		"/>
		<polygon class="st2" points="367.58,165.61 365.86,180.85 351.63,191.57 		"/>
	</g>
	<g>
		<polygon class="st2" points="527.48,967.08 535.4,991.46 561.04,991.46 540.3,1006.52 548.22,1030.9 527.48,1015.83 
			506.74,1030.9 514.67,1006.52 493.93,991.46 519.56,991.46 		"/>
		<g>
			<polygon class="st2" points="457.9,958.53 463.72,976.44 482.56,976.44 467.32,987.51 473.14,1005.43 457.9,994.36 
				442.66,1005.43 448.49,987.51 433.25,976.44 452.08,976.44 			"/>
			<polygon class="st2" points="597.06,958.53 602.89,976.44 621.72,976.44 606.48,987.51 612.3,1005.43 597.06,994.36 
				581.83,1005.43 587.65,987.51 572.41,976.44 591.24,976.44 			"/>
		</g>
	</g>
	<g class="st3">
		<g>
			<polygon class="st2" points="572.65,257.05 572.65,282.26 781.9,269.66 572.65,257.05 			"/>
			<polygon class="st2" points="583.13,281.63 583.13,306.84 792.38,294.24 583.13,281.63 			"/>
			<polygon class="st2" points="593.61,306.21 593.61,331.42 802.86,318.82 593.61,306.21 			"/>
			<polygon class="st2" points="604.1,330.79 604.1,356 813.35,343.39 604.1,330.79 			"/>
			<polygon class="st2" points="614.58,355.37 614.58,380.58 823.83,367.98 614.58,355.37 			"/>
			<polygon class="st2" points="625.06,379.95 625.06,405.16 834.31,392.55 625.06,379.95 			"/>
			<polygon class="st2" points="635.55,404.53 635.55,429.74 844.79,417.14 635.55,404.53 			"/>
			<polygon class="st2" points="646.03,429.11 646.03,454.32 855.27,441.71 646.03,429.11 			"/>
		</g>
		<g>
			<polygon class="st2" points="477.1,306.21 477.1,331.42 267.85,318.82 477.1,306.21 			"/>
			<g>
				<polygon class="st2" points="498.06,257.05 498.06,282.26 288.81,269.66 498.06,257.05 				"/>
				<polygon class="st2" points="487.58,281.63 487.58,306.84 278.33,294.24 487.58,281.63 				"/>
				<polygon class="st2" points="466.61,330.79 466.61,356 257.37,343.39 466.61,330.79 				"/>
				<polygon class="st2" points="456.13,355.37 456.13,380.58 246.89,367.98 456.13,355.37 				"/>
				<polygon class="st2" points="445.65,379.95 445.65,405.16 236.4,392.55 445.65,379.95 				"/>
				<polygon class="st2" points="435.17,404.53 435.17,429.74 225.92,417.14 435.17,404.53 				"/>
			</g>
		</g>
		<path class="st1" d="M545.65,696.22c0.83-0.03,1.67-0.07,2.5-0.12c0.82-0.04,1.63-0.1,2.45-0.15
			c57.18-3.63,110.43-27.61,151.3-68.48c42.37-42.37,66.59-98.04,68.8-157.59c0.02-0.54,0.04-1.08,0.06-1.62
			c0.02-0.83,0.05-1.65,0.07-2.48c0.03-1.63,0.06-3.25,0.06-4.85c0-1.77-0.02-3.53-0.07-5.29c-0.01-0.57-0.03-1.14-0.05-1.72
			c-0.03-1.2-0.08-2.4-0.13-3.6c-0.03-0.66-0.06-1.32-0.09-1.99c-0.06-1.17-0.14-2.33-0.21-3.49c-0.05-0.79-0.11-1.58-0.16-2.37
			c-0.11-1.38-0.22-2.75-0.35-4.13c-0.1-1.01-0.21-2.01-0.31-3.01c-0.07-0.62-0.13-1.24-0.2-1.86c-0.13-1.15-0.27-2.29-0.42-3.43
			c-0.04-0.31-0.08-0.62-0.13-0.94c-6.82-50.85-29.95-97.83-66.85-134.73c-44.49-44.49-103.63-68.98-166.54-68.98
			c-62.91,0-122.06,24.5-166.54,68.98c-44.48,44.49-68.98,103.63-68.98,166.54c0,62.91,24.5,122.06,68.98,166.54
			c31.06,31.06,69.27,52.36,110.91,62.4c0.6,0.15,1.2,0.29,1.81,0.43c1.03,0.24,2.06,0.48,3.1,0.7c1.21,0.26,2.42,0.52,3.63,0.77
			c0.39,0.07,0.77,0.16,1.15,0.23c1.66,0.33,3.33,0.63,4.99,0.93c0.2,0.03,0.4,0.07,0.6,0.1c1.8,0.31,3.6,0.6,5.4,0.87
			c0.03,0,0.07,0.01,0.1,0.01c5.67,0.84,11.4,1.47,17.16,1.9c0.07,0,0.14,0.01,0.21,0.02c1.83,0.13,3.66,0.24,5.49,0.34
			c0.19,0.01,0.37,0.02,0.56,0.02c1.78,0.09,3.57,0.15,5.36,0.2c0.2,0,0.39,0.01,0.58,0.01c1.83,0.04,3.66,0.07,5.5,0.07
			c1.72,0,3.46-0.02,5.19-0.07c0.67-0.01,1.35-0.03,2.01-0.06C543.6,696.3,544.62,696.27,545.65,696.22L545.65,696.22z"/>
		<path class="st4" d="M770.82,455.64c-0.01-0.57-0.03-1.14-0.05-1.72c-0.03-1.2-0.08-2.4-0.13-3.6c-0.03-0.66-0.06-1.32-0.09-1.99
			c-0.06-1.17-0.14-2.33-0.21-3.49c-0.05-0.79-0.11-1.58-0.16-2.37c-0.11-1.38-0.22-2.75-0.35-4.13c-0.1-1.01-0.21-2.01-0.31-3.01
			c-0.07-0.62-0.13-1.24-0.2-1.86c-0.13-1.15-0.27-2.29-0.42-3.43c-0.04-0.31-0.08-0.62-0.13-0.94
			c-6.82-50.85-29.95-97.83-66.85-134.73c-25.71-25.71-56.31-44.72-89.71-56.21c5,14.54,8.58,29.61,10.65,45.04
			c0.04,0.31,0.09,0.62,0.13,0.93c0.15,1.14,0.29,2.29,0.42,3.43c0.07,0.62,0.14,1.24,0.21,1.86c0.11,1,0.22,2,0.31,3.01
			c0.13,1.37,0.25,2.75,0.35,4.13c0.06,0.79,0.12,1.58,0.17,2.37c0.08,1.17,0.15,2.33,0.21,3.49c0.04,0.66,0.07,1.32,0.09,1.99
			c0.05,1.2,0.1,2.4,0.13,3.6c0.02,0.57,0.03,1.14,0.05,1.71c0.04,1.76,0.07,3.53,0.07,5.29c0,1.59-0.03,3.22-0.06,4.85
			c-0.02,0.83-0.04,1.66-0.07,2.48c-0.02,0.54-0.04,1.08-0.06,1.62c-2.21,59.55-26.43,115.22-68.8,157.59
			c-40.88,40.87-94.13,64.86-151.3,68.49c-0.81,0.05-1.63,0.11-2.45,0.15c-0.83,0.04-1.66,0.08-2.5,0.12
			c-1.03,0.04-2.06,0.08-3.09,0.11c-0.67,0.02-1.34,0.04-2.01,0.06c-1.74,0.04-3.47,0.07-5.2,0.07c-1.84,0-3.67-0.03-5.5-0.07
			c-0.2,0-0.39-0.01-0.58-0.01c-1.79-0.04-3.58-0.11-5.36-0.2c-0.18-0.01-0.37-0.02-0.56-0.03c-1.84-0.09-3.67-0.2-5.49-0.34
			c-0.07-0.01-0.14-0.01-0.21-0.02c-5.76-0.43-11.48-1.06-17.16-1.9c-0.03,0-0.06-0.01-0.1-0.01c-1.81-0.27-3.61-0.56-5.4-0.87
			c-0.2-0.03-0.4-0.07-0.6-0.1c-1.67-0.29-3.33-0.6-4.99-0.93c-0.38-0.08-0.77-0.16-1.15-0.24c-1.21-0.25-2.42-0.5-3.63-0.76
			c-1.03-0.23-2.07-0.46-3.1-0.71c-0.6-0.14-1.21-0.28-1.81-0.43c-7.18-1.73-14.25-3.8-21.21-6.2c11.49,33.39,30.5,64,56.21,89.71
			c31.06,31.06,69.27,52.36,110.91,62.4c0.6,0.15,1.2,0.29,1.81,0.43c1.03,0.24,2.06,0.48,3.1,0.7c1.21,0.26,2.42,0.52,3.63,0.77
			c0.39,0.07,0.77,0.16,1.15,0.23c1.66,0.33,3.33,0.63,4.99,0.93c0.2,0.03,0.4,0.07,0.6,0.1c1.8,0.31,3.6,0.6,5.4,0.87
			c0.03,0,0.07,0.01,0.1,0.01c5.67,0.84,11.4,1.47,17.16,1.9c0.07,0,0.14,0.01,0.21,0.02c1.83,0.13,3.66,0.24,5.49,0.34
			c0.19,0.01,0.37,0.02,0.56,0.02c1.78,0.09,3.57,0.15,5.36,0.2c0.2,0,0.39,0.01,0.58,0.01c1.83,0.04,3.66,0.07,5.5,0.07
			c1.72,0,3.46-0.02,5.19-0.07c0.67-0.01,1.35-0.03,2.01-0.06c1.03-0.03,2.06-0.07,3.09-0.11c0.83-0.03,1.67-0.07,2.5-0.12
			c0.82-0.04,1.63-0.1,2.45-0.15c57.17-3.63,110.43-27.61,151.3-68.48c42.37-42.37,66.59-98.04,68.8-157.59
			c0.02-0.54,0.04-1.08,0.06-1.62c0.02-0.83,0.05-1.65,0.07-2.48c0.03-1.63,0.06-3.25,0.06-4.85
			C770.88,459.16,770.86,457.4,770.82,455.64L770.82,455.64z"/>
		<path class="st2" d="M705.96,512.52c-0.87-0.5-1.75-0.97-2.63-1.45c-1.76-0.94-3.53-1.84-5.31-2.73
			c-0.89-0.45-1.78-0.87-2.68-1.31c-0.89-0.43-1.79-0.86-2.68-1.27c-1.79-0.85-3.6-1.67-5.4-2.46c-1.8-0.82-3.62-1.58-5.44-2.36
			c-1.82-0.78-3.65-1.51-5.47-2.26c-0.91-0.38-1.83-0.73-2.75-1.09l-2.75-1.08c-0.8-0.32-1.62-0.62-2.42-0.93
			c-0.09-0.7-0.18-1.39-0.26-2.09c-0.2-1.69-0.45-3.37-0.74-5.05c-0.28-1.68-0.56-3.36-0.89-5.02c-0.32-1.67-0.66-3.34-1.04-5
			c-0.39-1.65-0.75-3.32-1.17-4.96l-1.32-4.93c-0.43-1.64-0.98-3.25-1.47-4.88c-0.48-1.63-1.04-3.23-1.6-4.84
			c-0.56-1.6-1.11-3.21-1.75-4.78c-0.61-1.58-1.22-3.17-1.89-4.73c-0.66-1.57-1.33-3.12-2.04-4.66c-0.71-1.54-1.43-3.08-2.19-4.59
			c-0.76-1.52-1.54-3.03-2.36-4.51c-0.8-1.5-1.66-2.96-2.52-4.43c-0.89-1.45-1.76-2.9-2.72-4.32c-0.94-1.42-1.92-2.81-2.95-4.17
			c0.17,0.84,0.36,1.67,0.56,2.5l0.57,2.47l1.18,4.9l2.37,9.72c0.39,1.61,0.81,3.22,1.17,4.83c0.4,1.6,0.8,3.2,1.16,4.81
			c0.18,0.81,0.39,1.6,0.59,2.4l0.56,2.41c0.36,1.61,0.78,3.19,1.12,4.8l1.1,4.8l1.07,4.8l1.04,4.79c0.3,1.61,0.67,3.2,1.01,4.8
			c0.35,1.6,0.6,3.22,0.95,4.81c0.35,1.6,0.64,3.21,0.93,4.82c0.27,1.61,0.65,3.2,0.91,4.82c0.29,1.61,0.55,3.22,0.87,4.83
			l0.67,3.36l2.78,0.78c1.9,0.53,3.78,1.09,5.68,1.61l2.85,0.76c0.95,0.25,1.9,0.52,2.86,0.76c1.91,0.47,3.82,0.98,5.74,1.43
			c1.92,0.44,3.84,0.92,5.77,1.33c1.93,0.43,3.86,0.85,5.81,1.23c0.97,0.2,1.94,0.39,2.92,0.57c0.98,0.18,1.95,0.38,2.93,0.54
			c1.96,0.35,3.92,0.67,5.9,0.96c0.99,0.14,1.98,0.29,2.97,0.4c1,0.12,1.99,0.25,3,0.34C707.7,513.5,706.83,513.01,705.96,512.52
			L705.96,512.52z"/>
		<path class="st2" d="M604.18,427.83c-1.56-0.74-3.14-1.4-4.72-2.09c-1.58-0.69-3.19-1.29-4.78-1.95c-1.6-0.64-3.22-1.21-4.83-1.81
			c-1.61-0.59-3.24-1.15-4.87-1.69c-1.63-0.56-3.26-1.08-4.9-1.59c-1.64-0.51-3.27-1.03-4.93-1.49l-4.95-1.4l-4.97-1.31
			c-3.32-0.87-6.66-1.61-9.99-2.39l-5.02-1.06c-1.68-0.33-3.35-0.7-5.03-1.01c-3.37-0.62-6.73-1.25-10.12-1.79l-2.72-0.43
			l-1.88,1.86c-2.33,2.32-4.7,4.59-6.96,6.96c-1.14,1.18-2.27,2.36-3.4,3.56c-1.12,1.19-2.25,2.39-3.34,3.61l-3.29,3.65l-3.21,3.72
			c-2.14,2.48-4.21,5.02-6.27,7.56c-1.03,1.27-2.03,2.57-3.04,3.86c-1.01,1.28-2.01,2.59-2.98,3.9c-0.98,1.31-1.97,2.61-2.91,3.95
			c-0.95,1.33-1.92,2.65-2.84,4.01c-1.87,2.69-3.7,5.41-5.46,8.18c-0.88,1.38-1.75,2.78-2.59,4.19c-0.83,1.42-1.68,2.83-2.47,4.28
			c1.26-1.07,2.46-2.18,3.7-3.27l3.62-3.31l3.59-3.33l3.56-3.35c4.72-4.47,9.38-8.99,14.02-13.49l13.86-13.52l3.47-3.36
			c1.14-1.13,2.3-2.25,3.46-3.36l4.99-4.82l37.25,6.22l9.99,1.69c1.67,0.27,3.33,0.56,4.99,0.86c1.67,0.28,3.34,0.55,5,0.87
			c1.67,0.3,3.34,0.56,5.01,0.88l5.02,0.9l5.03,0.92c1.69,0.31,3.37,0.66,5.07,0.94c-1.49-0.87-3.01-1.66-4.52-2.49
			C607.3,429.32,605.75,428.57,604.18,427.83L604.18,427.83z"/>
		<path class="st2" d="M455.92,323.02l15.7,0.4l7.87,0.23l7.88,0.26c1.32,0.05,2.64,0.07,3.95,0.14c1.32,0.07,2.65,0.07,3.96,0.15
			l3.98,0.14c1.34,0.05,2.67,0.13,4.01,0.14c-1.23-0.53-2.48-1-3.73-1.49c-1.25-0.49-2.52-0.9-3.79-1.34
			c-1.28-0.43-2.55-0.83-3.83-1.21c-1.28-0.39-2.57-0.77-3.86-1.1c-1.29-0.34-2.59-0.7-3.88-1.01l-3.91-0.92
			c-2.61-0.56-5.23-1.12-7.86-1.58l-3.94-0.69c-1.32-0.23-2.64-0.4-3.96-0.61c-2.64-0.4-5.29-0.73-7.93-1.04
			c-2.65-0.33-5.3-0.55-7.96-0.8c-2.65-0.25-5.32-0.4-7.99-0.56l-1.76-0.1l-1.43,1.04c-1.55,1.13-3.21,2.22-4.64,3.44
			c-1.45,1.21-2.95,2.39-4.31,3.65c-1.39,1.25-2.76,2.52-4.05,3.83c-1.31,1.3-2.65,2.58-3.88,3.94c-1.25,1.35-2.51,2.68-3.71,4.06
			c-1.22,1.36-2.43,2.74-3.58,4.15c-1.15,1.41-2.36,2.78-3.46,4.22l-3.35,4.3l-3.23,4.38c-1.07,1.46-2.09,2.96-3.13,4.44
			c-1.04,1.48-2.04,3-3.03,4.51c-1.01,1.5-1.97,3.04-2.93,4.58c-0.98,1.52-1.9,3.09-2.82,4.65c-0.94,1.54-1.81,3.14-2.71,4.72
			c-0.88,1.58-1.73,3.19-2.56,4.8c-0.82,1.63-1.62,3.26-2.38,4.92c1.33-1.26,2.59-2.56,3.88-3.83l3.79-3.87l3.74-3.89l3.71-3.9
			l14.67-15.59l7.32-7.7c1.21-1.29,2.48-2.51,3.69-3.79c1.21-1.28,2.46-2.5,3.71-3.73l1.86-1.85l1.88-1.81
			c0.63-0.59,1.24-1.22,1.89-1.79c0.64-0.58,1.28-1.14,1.91-1.73c1.25-1.2,2.56-2.25,3.85-3.35c0.64-0.57,1.3-1.06,1.96-1.55
			l0.71-0.55L455.92,323.02L455.92,323.02z"/>
		<path class="st2" d="M366.78,446.17c-0.42-1.26-0.85-2.51-1.23-3.77l-1.22-3.77c-0.39-1.26-0.76-2.53-1.17-3.79l-1.14-3.8
			l-1.1-3.82c-0.39-1.27-0.71-2.55-1.06-3.83c-0.38-1.27-0.7-2.56-1.04-3.84l-0.99-3.86c-0.34-1.29-0.62-2.59-0.94-3.88
			c-0.33-1.3-0.58-2.6-0.9-3.91c-0.31-1.31-0.55-2.62-0.86-3.93l-0.8-3.96l-0.76-4c-0.29-1.34-0.47-2.69-0.76-4.04
			c-0.31,1.34-0.56,2.7-0.79,4.06c-0.23,1.36-0.41,2.73-0.56,4.1c-0.16,1.37-0.25,2.75-0.36,4.13c-0.08,1.38-0.15,2.76-0.17,4.14
			c-0.03,1.38-0.04,2.77-0.01,4.15c0.02,1.38,0.05,2.77,0.15,4.14c0.07,1.38,0.14,2.77,0.28,4.14c0.12,1.38,0.25,2.76,0.41,4.13
			c0.17,1.37,0.34,2.75,0.55,4.11c0.21,1.36,0.39,2.74,0.66,4.09l0.77,4.07c0.28,1.35,0.6,2.69,0.89,4.04
			c0.31,1.35,0.65,2.68,0.99,4.02c0.34,1.34,0.73,2.66,1.1,3.98c0.39,1.32,0.73,2.66,1.17,3.97l0.68,2.1
			c-0.31,0.85-0.61,1.7-0.89,2.56c-0.5,1.43-0.97,2.87-1.43,4.3c-0.47,1.44-0.95,2.87-1.36,4.33l-1.27,4.36
			c-0.42,1.45-0.77,2.93-1.17,4.39c-0.39,1.46-0.75,2.93-1.09,4.41c-0.68,2.95-1.32,5.92-1.86,8.9c-0.26,1.5-0.57,2.98-0.77,4.49
			c-0.21,1.5-0.47,3-0.65,4.51c-0.17,1.51-0.38,3.01-0.52,4.53c-0.14,1.51-0.28,3.02-0.38,4.54c-0.11,1.52-0.17,3.03-0.23,4.55
			c-0.05,1.52-0.07,3.04-0.06,4.56c0.02,1.53,0.05,3.04,0.14,4.57c0.11,1.53,0.2,3.03,0.39,4.55c0.47-1.45,0.84-2.92,1.3-4.36
			l1.26-4.32c0.45-1.44,0.83-2.87,1.29-4.29c0.41-1.43,0.85-2.85,1.29-4.27c0.41-1.43,0.88-2.84,1.31-4.25
			c0.41-1.42,0.89-2.82,1.33-4.24c0.88-2.82,1.8-5.63,2.7-8.44l1.38-4.2c0.44-1.4,0.92-2.8,1.4-4.19l1.4-4.19l1.42-4.18l2.87-8.36
			c0.48-1.4,0.95-2.79,1.46-4.17c0.51-1.38,0.97-2.78,1.45-4.18l0.62-1.79l-0.6-1.75L366.78,446.17L366.78,446.17z"/>
		<path class="st2" d="M484.36,582.23c-1.27,0.54-2.61,1.15-4.02,1.83c-1.4,0.67-2.85,1.41-4.33,2.21
			c-2.96,1.58-5.99,3.42-8.98,5.35c-2.97,1.95-5.88,4.02-8.52,6.11c-1.33,1.04-2.58,2.1-3.76,3.12c-1.18,1.02-2.26,2.05-3.26,3.01
			c-1.99,1.93-3.57,3.7-4.65,5c-1.08,1.3-1.63,2.16-1.63,2.16s1.02-0.02,2.7-0.27c0.84-0.12,1.85-0.3,2.98-0.53
			c1.13-0.25,2.39-0.57,3.74-0.96c1.35-0.39,2.78-0.88,4.28-1.43c1.5-0.54,3.03-1.22,4.61-1.93c3.14-1.45,6.34-3.24,9.41-5.25
			c3.07-2.01,6-4.25,8.58-6.56c2.59-2.3,4.82-4.7,6.61-6.89c0.89-1.1,1.67-2.14,2.33-3.11c0.66-0.95,1.21-1.84,1.63-2.57
			c0.85-1.47,1.24-2.41,1.24-2.41s-1,0.21-2.6,0.74C489.11,580.34,486.89,581.15,484.36,582.23L484.36,582.23z"/>
		<path class="st2" d="M340.32,549.32l4.69-14.08c3.37,0.66,7.33,1.13,11.82,1.13c4.04,0,8.52-0.39,13.36-1.34
			c18.78,37.82,57.15,58.76,66.07,63.23c0.41,6.43,3.32,26.7,22.63,56.09l-11.59,3.72c-22.54-10.9-43.34-25.62-61.56-43.85
			C366.63,595.11,351.36,573.15,340.32,549.32L340.32,549.32z M570.88,229.56c0.21,0.18,0.43,0.35,0.69,0.48l0,0l30.93,15.89
			c1.43,13,1.81,24.11,1.91,29.07c-10.56,1.77-47.96,9.03-78.07,27.42c-13.21-3.75-30.43-6.54-51.23-8.29
			c-11.23-0.94-20.62-1.32-25.26-1.47c-0.07-8.04,0.54-30.6,8.86-47.23c27.2-11.32,56.62-17.26,86.97-17.26
			C554.15,228.17,562.56,228.65,570.88,229.56L570.88,229.56z M731.54,325.42c0.67,2.68,4.09,17.67,0.92,33.73
			c-24.49-15.47-47.09-16.56-54.18-16.46c-4.6-9.1-25.49-46.5-67.36-66.97c-0.08-4.45-0.41-15.67-1.81-29.04l16.82-2.04
			c0.86-0.11,1.63-0.47,2.25-0.99c28.67,11.22,54.97,28.34,77.4,50.77C715.24,304.06,723.9,314.45,731.54,325.42L731.54,325.42z
			 M564.96,679.65l-2.44-4.88c38.06-11.56,55.31-30.1,59.69-35.5c0.43,0.02,0.93,0.02,1.5,0.02c9.43,0,37.79-2.6,78.6-29.35
			l3.34,4.22c-0.02,0.02-0.04,0.04-0.07,0.07C667.45,652.36,618.09,675.19,564.96,679.65L564.96,679.65z M500.93,559.46
			c9.92,3.22,56.1,17.55,92.58,17.63c1.8,8.07,8.18,32.95,23.25,58.57c-4.57,5.39-21.94,23.24-59.41,33.85
			c-4.57,0.14-49.29,1.01-91.2-16.01c-12.29-18.08-18.02-32.59-20.65-41.62c-1.94-6.66-2.53-11.36-2.71-13.76
			C477.91,579.46,495.91,564.07,500.93,559.46L500.93,559.46z M346.55,528.94c-0.11-0.42-0.3-0.82-0.57-1.17l-21.91-28.02
			c-3-14.8-4.55-29.99-4.55-45.44c0-9.03,0.54-17.98,1.58-26.82l24.48-52.07l30.43-2.98c-1.87,9.94-3.89,35.36,10.89,76.45
			c-16.5,44.74-18.07,70.75-17.99,79.79C359.77,530.47,352.19,530.02,346.55,528.94L346.55,528.94z M340.16,371.64l-14.9,31.71
			c3.46-15.09,8.46-29.71,14.9-43.7V371.64L340.16,371.64z M523.92,308.49l12.23,81.45c-30.62,28.75-56.36,60.83-61.5,67.34
			c-2.11,0.1-4.25,0.16-6.44,0.16c-30.39,0-67.25-9.13-75.36-11.24c-16.85-47.14-10.59-72.72-9.64-76.01
			c3.51-5.05,39.71-56.51,64.33-71.1C454.11,299.25,495.32,300.53,523.92,308.49L523.92,308.49z M706.9,605.28
			c4.37-8.06,19.96-39.57,20.28-79.31c4.64-5.25,26.06-30.91,34.06-64.99l9.94,10.3c-3.82,51.82-25.1,100.16-60.99,138.17
			L706.9,605.28L706.9,605.28z M502.57,553.16c-12.63-32.39-21.36-82.85-22.85-91.82c4.95-6.28,30.54-38.2,60.97-66.75
			c9.46,1.44,60.44,9.61,91.4,22.22c3.22,6.26,20.36,41.34,24.99,86.36c-2.91,5.6-21.79,39.72-61.96,67.42
			C559.36,570.92,511.38,556,502.57,553.16L502.57,553.16z M732.43,366.9c2.38,2.71,24.24,29.19,23.65,87.11
			c-6.12,33.52-27.54,60.38-33.16,66.95l-59.5-19.61c-4.78-44.44-20.89-78.38-25.15-86.73c5.34-6.75,25.24-32.9,40.14-65.43
			C685.03,349.16,708.32,350.34,732.43,366.9L732.43,366.9z M556.23,695.61c0.85-0.04,1.71-0.07,2.56-0.12
			c0.84-0.04,1.67-0.1,2.51-0.15c58.63-3.72,113.24-28.32,155.16-70.23c43.45-43.45,68.29-100.54,70.55-161.61
			c0.02-0.56,0.04-1.11,0.06-1.67c0.02-0.85,0.05-1.7,0.07-2.55c0.03-1.68,0.06-3.33,0.06-4.97c0-1.81-0.02-3.62-0.07-5.43
			c-0.01-0.59-0.03-1.17-0.05-1.76c-0.04-1.23-0.08-2.46-0.13-3.69c-0.03-0.68-0.06-1.36-0.1-2.04c-0.06-1.2-0.14-2.39-0.22-3.58
			c-0.06-0.81-0.11-1.62-0.17-2.43c-0.11-1.41-0.23-2.82-0.36-4.24c-0.1-1.03-0.21-2.05-0.32-3.08c-0.07-0.63-0.14-1.27-0.21-1.9
			c-0.14-1.18-0.28-2.35-0.43-3.52c-0.04-0.32-0.09-0.64-0.13-0.96c-7-52.15-30.72-100.33-68.55-138.17
			c-45.62-45.62-106.27-70.74-170.79-70.74c-64.52,0-125.17,25.12-170.79,70.74c-45.62,45.62-70.74,106.27-70.74,170.79
			c0,64.52,25.13,125.17,70.74,170.79c31.85,31.85,71.03,53.69,113.74,63.99c0.62,0.15,1.23,0.3,1.85,0.44
			c1.06,0.25,2.12,0.49,3.18,0.72c1.24,0.27,2.48,0.53,3.73,0.79c0.39,0.08,0.79,0.16,1.18,0.24c1.7,0.34,3.41,0.65,5.12,0.95
			c0.2,0.03,0.41,0.07,0.61,0.11c1.84,0.32,3.69,0.62,5.54,0.89c0.03,0,0.07,0.01,0.1,0.02c5.82,0.86,11.69,1.51,17.6,1.94
			c0.07,0,0.14,0.01,0.21,0.02c1.87,0.14,3.75,0.25,5.63,0.34c0.19,0.01,0.38,0.02,0.57,0.03c1.83,0.09,3.66,0.16,5.5,0.2
			c0.2,0,0.4,0.01,0.6,0.01c1.88,0.04,3.75,0.07,5.64,0.07c1.77,0,3.55-0.02,5.33-0.07c0.69-0.02,1.38-0.04,2.07-0.06
			C554.11,695.69,555.17,695.66,556.23,695.61L556.23,695.61z"/>
	</g>
	<path class="st0" d="M514.81,951.47c129.91,0,259.83,10.87,388.36,32.56c-0.03-0.03,46.03-14.2,46.03-14.2V761.03H80.4l0,172.02
		v36.79h0l0.66,0.39l45.4,13.78c0,0,0.03-0.03,0,0C254.99,962.31,384.9,951.47,514.81,951.47"/>
	<g>
		<g>
			<path class="st2" d="M203.23,920.65c-4.19,11.37-6.29,16.69-10.48,25.71c-31.49,3.13-62.94,6.65-94.34,10.56
				c0-56.28,0-112.56,0-168.84c21.76,0,43.53,0,65.29,0c-0.07,45.28-0.11,90.56-0.16,135.83
				C176.76,922.77,189.99,921.68,203.23,920.65z"/>
			<path class="st2" d="M319.57,913.31c-4.32,10.61-6.48,15.54-10.8,23.74c-31.75,2.05-63.46,4.49-95.15,7.33
				c0.12-52.1,0.16-104.2,0.29-156.3c31.73,0,63.45,0,95.18,0c4.27,7.93,6.41,12.73,10.68,23.08c-13.45,0.14-26.89,0.3-40.34,0.48
				c-0.02,10.6-0.04,21.21-0.06,31.81c12.96-0.35,25.93-0.68,38.89-0.98c-0.02,10.07-0.04,20.13-0.06,30.2
				c-12.97,0.44-25.93,0.92-38.89,1.44c-0.03,13.79-0.05,27.57-0.08,41.36C292.66,914.69,306.11,913.97,319.57,913.31z"/>
			<path class="st2" d="M504.01,930.5c-22.19,0.14-44.37,0.46-66.56,0.96c-1.51-2.87-2.26-4.42-3.77-7.71
				c-0.23-0.11-0.35-0.16-0.58-0.27c-13.95,0.35-27.89,0.77-41.84,1.24c0,0.1-1.36,3.24-4.08,8.34c-22.18,0.91-44.35,2-66.52,3.28
				c20.43-39.64,31.28-84.21,47.56-125.61c-8.82,0.07-13.23,0.11-22.06,0.19c4.08-10.33,6.13-15.08,10.21-22.82
				c29.88,0,59.76,0,89.65,0C470.57,833.25,479.21,885.46,504.01,930.5z M422.97,899.18c-3.74-9.31-7.28-18.73-10.71-28.16
				c-3.38,9.59-6.84,19.17-10.49,28.66C410.25,899.46,414.49,899.36,422.97,899.18z"/>
			<path class="st2" d="M658.88,922.97c0.01,2.86-2.36,5.2-7.1,7.1c-4.74,1.89-9.92,2.64-15.54,2.44c-33.22-1.1-66.44-1.77-99.68-2
				c-5.62-0.03-10.71-0.97-15.26-3c-4.55-2.03-6.83-4.4-6.83-7.19c0-40.69,0-81.39,0.01-122.08c0-2.79,2.27-5.17,6.82-7.2
				c4.54-2.02,9.62-2.95,15.23-2.95c35,0,70.01,0,105.01,0c4.08,7.62,6.12,12.3,10.2,22.49c-24.08-0.17-48.17-0.29-72.26-0.38
				c0.03,32.9,0.05,65.8,0.07,98.7c5.46,0.08,8.19,0.13,13.66,0.22c-0.02-22.06-0.04-44.11-0.06-66.17
				c21.87,0.21,43.74,0.49,65.6,0.83C658.8,870.18,658.83,896.58,658.88,922.97z"/>
			<path class="st2" d="M823.45,932.92c0.01,3.11-2.31,5.58-6.94,7.44c-4.63,1.87-9.75,2.46-15.36,1.99
				c-36.54-3.01-73.1-5.5-109.71-7.45c-5.62-0.29-10.71-1.5-15.26-3.8c-4.55-2.3-6.84-4.84-6.84-7.71
				c-0.09-45.1-0.13-90.2-0.24-135.3c21.67,0,43.33,0,65,0c0.12,42.01,0.17,84.02,0.26,126.04c9.41,0.5,14.11,0.76,23.51,1.31
				c-0.09-42.45-0.14-84.9-0.26-127.34c21.86,0,43.72,0,65.58,0C823.3,836.37,823.35,884.64,823.45,932.92z"/>
			<path class="st2" d="M939.55,930.13c-4.28,11.44-6.42,16.71-10.7,25.46c-31.61-3.83-63.25-7.27-94.94-10.32
				c-0.12-52.4-0.16-104.79-0.27-157.19c31.73,0,63.45,0,95.18,0c4.04,8.69,7.57,17.76,10.74,26.79
				c-13.44-0.31-26.87-0.6-40.31-0.87c0.01,11.48,0.02,22.95,0.03,34.43c12.95,0.56,25.89,1.15,38.83,1.77c0,11.29,0,22.57,0,33.86
				c-12.93-0.91-25.87-1.78-38.81-2.61c0.01,14.91,0.02,29.81,0.04,44.72C912.74,927.43,926.15,928.75,939.55,930.13z"/>
		</g>
	</g>
	<path class="st0" d="M831.19,773.38H250.01c-25.13,0-45.5-20.37-45.5-45.5v-99.23c0-25.13,20.37-45.5,45.5-45.5h581.18
		c25.13,0,45.5,20.37,45.5,45.5v99.23C876.69,753.01,856.32,773.38,831.19,773.38z"/>
	<g>
		<path class="st2" d="M300.42,744.96V619.75h94.98v33.04h-57.07v12.39h55.75v33.04h-55.75v46.74H300.42z"/>
		<path class="st2" d="M485.7,744.96l-4.51-14.64h-45.05l-4.51,14.64h-42.99l46.18-125.21h47.68l46.18,125.21H485.7z M458.66,656.92
			l-12.39,40.36h24.78L458.66,656.92z"/>
		<path class="st2" d="M525.86,727.32l19.71-28.16c9.39,9.01,23.47,16.15,40.36,16.15c7.13,0,13.89-1.88,13.89-6.76
			c0-12.01-69.83,0.19-69.83-49.18c0-21.21,17.65-41.49,52-41.49c20.46,0,38.86,5.82,53.12,17.46l-20.27,26.84
			c-10.89-8.26-24.97-12.39-36.79-12.39c-7.51,0-9.57,2.44-9.57,5.63c0,11.83,69.64,1.69,69.64,48.24
			c0,27.6-20.46,43.55-54.06,43.55C557.39,747.21,539.18,739.33,525.86,727.32z"/>
		<path class="st2" d="M643.74,682.45c0-38.48,29.85-64.76,68.52-64.76c38.67,0,68.52,26.28,68.52,64.76
			c0,38.48-29.85,64.76-68.52,64.76C673.58,747.21,643.74,720.93,643.74,682.45z M742.29,682.45c0-17.46-11.83-31.35-30.03-31.35
			c-18.21,0-30.03,13.89-30.03,31.35c0,17.46,11.83,31.35,30.03,31.35C730.46,713.8,742.29,699.91,742.29,682.45z"/>
	</g>
</g>
</svg>
