<?xml version="1.0" encoding="utf-8"?>
<!-- Generator: Adobe Illustrator 25.3.1, SVG Export Plug-In . SVG Version: 6.00 Build 0)  -->
<svg version="1.1" id="Layer_1" xmlns="http://www.w3.org/2000/svg" xmlns:xlink="http://www.w3.org/1999/xlink" x="0px" y="0px"
	 viewBox="0 0 1080 1080" style="enable-background:new 0 0 1080 1080;" xml:space="preserve">
<style type="text/css">
	.st0{fill:#1B5733;}
	.st1{fill:#FFFFFF;}
	.st2{fill:#FBE914;}
	.st3{opacity:0.6;}
	.st4{fill:#DCDDDE;}
</style>
<g>
	<path id="svg_2" class="st1" d="M860.91,169.53c-5.65,2.17-8.26,10.65-5.21,15.43c0.87,1.09,6.52,6.52,12.82,12.17
		c74.3,64.96,125.14,151.86,143.17,244.63c5.21,26.51,6.73,42.8,7.39,73c0.43,27.81-0.43,44.32-3.69,66.7
		c-15.64,106.89-71.69,203.79-158.81,275.48c-11.08,9.12-23.46,18.25-38.67,28.46c-11.51,7.82-13.04,9.56-13.04,14.99
		c0,6.95,5.87,11.73,12.82,10.65c1.74-0.22,7.6-3.69,16.08-9.56c86.9-58.66,150.99-141,184.02-235.94
		c25.64-73.87,31.07-154.03,15.64-230.07c-20.2-99.29-73.87-189.45-153.17-257.88C869.17,168.01,866.78,166.92,860.91,169.53
		L860.91,169.53z"/>
	<path id="svg_3" class="st1" d="M209.36,170.62c-3.69,2.39-19.12,15.86-30.42,26.72c-37.8,36.5-69.3,79.3-93.2,126.01
		C40.99,411.55,27.08,512.79,46.64,608.6c18.03,88.42,61.48,168.16,127.09,233.33c22.38,22.38,41.5,38.45,66.05,55.62
		c18.03,12.6,21.29,14.34,25.42,14.12c8.47-0.87,13.04-10.43,8.26-16.95c-0.87-1.09-7.17-5.87-14.12-10.65
		c-45.19-30.85-80.6-64.31-111.02-104.72c-47.36-62.35-76.26-133.39-85.16-209.43c-2.82-24.33-3.04-68.87-0.65-91.03
		c6.08-51.49,19.34-96.68,41.28-141.65c26.72-54.53,62.57-100.59,111.67-143.17c4.56-4.13,8.69-8.26,9.12-9.34
		c1.09-3.04,0.87-8.04-0.87-10.65C220.88,169.31,214.14,167.57,209.36,170.62L209.36,170.62z"/>
	<path id="svg_4" class="st1" d="M777.05,219.28c-4.56,2.17-6.73,5.43-6.95,10.65c-0.65,6.95,1.09,9.56,11.73,17.6
		c25.42,19.55,51.49,45.62,70.39,70.83c94.72,126.66,92.33,293.73-6.3,416.91c-28.68,35.85-68.44,69.74-106.89,91.25
		c-8.69,4.78-11.51,9.56-10.65,16.95c0.65,3.91,3.91,8.47,7.39,9.78c5.43,2.17,9.34,1.52,18.03-3.48
		c53.23-31.07,97.98-72.35,131.01-120.79c59.31-87.34,78.65-190.97,54.1-291.56c-20.2-83.21-70.39-158.81-141.43-212.69
		C787.48,217.33,783.57,216.24,777.05,219.28z"/>
	<path id="svg_5" class="st1" d="M292.57,218.85c-4.13,0.87-29.55,21.94-46.93,38.67c-52.36,51.06-87.77,112.54-104.5,180.76
		c-12.38,50.84-13.69,102.54-3.91,152.95c11.95,61.92,39.11,118.4,81.04,169.02c9.78,11.95,37.15,39.32,49.53,49.32
		c17.81,14.77,36.06,27.59,56.05,39.54c7.6,4.56,10.21,5.65,13.47,5.87c8.47,0.65,14.77-5,14.77-13.25c0-6.73-2.61-9.78-14.34-16.51
		c-48.23-28.24-91.46-68.87-122.1-114.71c-39.97-60.18-60.4-133.18-56.7-202.26c2.61-48.23,13.47-90.38,34.33-132.74
		c23.68-48.23,57.14-89.29,100.37-123.84c12.17-9.78,13.47-10.86,14.99-13.25c3.04-5.21,1.3-13.47-3.69-17.38
		C302.56,219.06,296.26,217.98,292.57,218.85L292.57,218.85z"/>
	<path id="svg_6" class="st1" d="M726.21,284.24c-3.26,1.96-5,5.43-5,9.56c0,4.56,1.96,7.17,9.34,12.82
		c25.42,19.34,50.84,46.93,67.35,73.22c29.33,46.28,43.89,98.2,42.15,150.12c-1.09,32.81-6.73,59.53-18.68,89.73
		c-22.38,56.49-65.83,106.67-120.36,138.83c-3.91,2.17-7.82,5-8.91,5.87c-5.87,5.21-5.43,13.9,1.09,17.82
		c4.56,2.82,8.69,1.96,18.03-3.48c78.21-46.06,131.66-121.23,147.08-206.83c3.91-21.51,5.21-53.88,3.26-75.39
		c-7.6-79.52-48.01-152.51-112.97-204.22c-5-3.91-10.21-7.82-11.51-8.47C733.82,282.29,729.25,282.5,726.21,284.24L726.21,284.24z"
		/>
	<path id="svg_7" class="st1" d="M343.62,284.24c-0.87,0.43-5.21,3.48-9.56,6.95c-66.05,51.27-107.76,126.01-115.58,206.18
		c-1.09,11.3-1.09,40.84,0,52.14c3.48,34.98,13.47,69.96,29.33,101.46c15.43,30.85,32.15,54.1,57.36,79.08
		c18.47,18.68,37.8,33.89,59.75,47.14c8.91,5.43,12.17,6.95,14.99,7.17c6.73,0.65,11.95-4.13,11.95-11.3c0-4.78-2.82-7.6-13.9-14.12
		c-57.57-34.33-102.54-88.64-123.18-148.6c-10.43-30.2-14.56-54.75-14.56-86.68c0-20.2,0.87-29.11,3.91-46.93
		c11.95-65.39,48.88-125.14,103.63-167.72c6.08-4.78,9.78-8.26,10.43-9.78c3.26-7.82-1.74-15.86-9.99-15.64
		C346.45,283.59,344.49,284.02,343.62,284.24L343.62,284.24z"/>
	<path id="svg_8" class="st1" d="M676.89,346.81c-3.04,1.96-3.91,3.04-5,6.52c-0.87,2.39-0.87,3.26,0.22,6.52
		c1.09,2.82,2.61,4.56,8.26,9.12c59.96,47.36,87.55,118.84,72.78,189.01c-7.82,38.24-26.94,72.35-56.05,100.37
		c-12.6,12.17-24.33,21.07-41.71,31.5c-2.82,1.74-5.21,3.91-6.08,5.43c-3.91,7.6,1.3,16.29,9.56,16.29
		c7.17,0,33.24-17.82,51.71-35.2c39.32-36.93,61.92-82.12,68-134.92c1.09-10.65,0.65-41.06-1.09-51.05
		c-8.04-47.14-28.24-86.68-61.48-120.14c-9.56-9.56-23.68-21.51-28.24-23.9C684.5,345.07,679.72,345.29,676.89,346.81L676.89,346.81
		z"/>
	<path id="svg_9" class="st1" d="M394.46,350.72c-5.21,3.04-17.81,13.69-28.24,24.12c-19.55,19.55-31.94,36.93-43.45,61.05
		c-19.55,40.84-25.2,84.95-16.51,129.27c10.65,55.4,45.41,106.67,94.51,139.26c10.65,6.95,17.81,11.08,20.86,11.51
		c5.65,0.87,12.38-4.78,12.38-10.65c0-4.35-2.17-7.82-7.17-10.65c-18.03-10.86-29.76-19.99-42.58-32.37
		c-41.71-40.41-62.79-93.42-59.31-148.6c2.61-39.97,16.95-75.82,43.45-108.63c6.52-8.04,23.25-24.55,31.28-30.63
		c9.99-7.6,12.38-12.17,9.56-18.25C407.28,350.72,399.46,347.9,394.46,350.72L394.46,350.72z"/>
	<path id="svg_10" class="st1" d="M629.75,397.65c-5,2.61-7.39,9.78-4.56,15.21c0.65,1.09,4.56,4.78,8.69,8.26
		c27.81,22.59,44.75,53.01,49.1,87.77c1.3,10.21,0.43,28.24-1.74,38.45c-7.6,36.5-30.85,68.65-63.87,88.64
		c-3.26,1.96-6.95,4.78-8.04,6.3c-5.43,6.95,0,17.38,9.12,17.16c4.56,0,11.3-3.91,25.2-14.34c42.15-31.5,65.61-81.91,61.92-132.53
		c-2.17-31.5-14.56-62.14-34.76-86.25c-9.56-11.3-26.94-27.16-32.15-29.11C635.62,396.13,632.57,396.34,629.75,397.65L629.75,397.65
		z"/>
	<path id="svg_11" class="st1" d="M439.65,398.95c-7.82,4.78-24.77,21.07-33.67,32.15c-10.43,13.25-18.9,29.33-24.33,46.06
		c-16.08,48.45-5.87,101.89,27.16,142.3c15.21,18.47,43.89,40.63,53.01,40.84c3.69,0,6.52-1.52,9.34-5.21
		c1.96-2.61,1.96-8.69,0-11.51c-0.87-1.09-5.65-4.78-11.08-8.26c-12.38-8.26-19.12-13.9-27.37-22.59
		c-23.25-24.55-36.28-56.49-36.28-89.07c0-39.54,19.12-77.56,52.14-103.63c5.87-4.56,7.39-6.95,7.6-11.51
		C456.6,399.82,447.04,394.61,439.65,398.95L439.65,398.95z"/>
	<path id="svg_12" class="st1" d="M521.56,453.7c-37.37,6.08-64.74,36.28-64.74,71.48c0,24.77,15.43,49.32,38.89,61.7
		c23.68,12.6,53.01,12.82,77.34,0.65c7.6-3.91,11.51-6.73,18.47-13.25c6.95-6.73,11.95-13.25,15.43-21.07
		c5-10.65,5.65-13.9,5.65-27.59c0-12.17-0.22-12.82-2.61-19.99c-3.91-11.3-8.91-19.12-18.47-29.11
		c-10.21-10.65-21.94-17.38-37.37-21.51C547.63,453.48,528.51,452.61,521.56,453.7L521.56,453.7z M546.11,464.78
		c8.47,1.09,20.2,5.21,27.81,9.78s17.81,14.34,21.73,20.86c14.12,23.9,10.65,51.27-8.91,70.83c-7.39,7.39-13.25,11.3-21.51,14.99
		c-11.08,4.78-15.43,5.43-30.2,5.43c-12.17,0-13.9-0.22-20.42-2.17c-40.41-12.38-58.88-51.06-41.06-85.6
		c4.13-8.04,15.43-19.55,23.68-24.55C512.43,465.65,528.73,462.39,546.11,464.78L546.11,464.78z"/>
</g>
</svg>
