<?xml version="1.0" encoding="utf-8"?>
<!-- Generator: Adobe Illustrator 25.3.1, SVG Export Plug-In . SVG Version: 6.00 Build 0)  -->
<svg version="1.1" id="Layer_1" xmlns="http://www.w3.org/2000/svg" xmlns:xlink="http://www.w3.org/1999/xlink" x="0px" y="0px"
	 viewBox="0 0 1080 1080" style="enable-background:new 0 0 1080 1080;" xml:space="preserve">
<style type="text/css">
	.st0{fill:#1B5733;}
	.st1{fill:#FFFFFF;}
	.st2{fill:#FBE914;}
	.st3{opacity:0.6;}
	.st4{fill:#DCDDDE;}
</style>
<g>
	<path class="st1" d="M973.27,480.35L973.27,480.35L599.61,106.68C583.69,90.76,562.58,82,540.04,82s-43.64,8.76-59.56,24.68
		L107,480.17c-0.18,0.18-0.18,0.18-0.36,0.36c-32.73,32.91-32.55,86.22,0.18,119.13c15.03,15.03,34.7,23.61,55.99,24.51
		c0.89,0,1.79,0.18,2.68,0.18h14.85v274.93c0,54.38,44.18,98.74,98.74,98.74h146.14c14.85,0,26.83-11.98,26.83-26.83V755.45
		c0-24.86,20.21-45.08,45.08-45.08h86.22c24.86,0,45.08,20.21,45.08,45.08v215.54c0,14.85,11.98,26.83,26.83,26.83H801.2
		c54.38,0,98.74-44.18,98.74-98.74V624.16h13.77c22.54,0,43.64-8.76,59.56-24.68C1006,566.74,1006,513.26,973.27,480.35z"/>
</g>
</svg>
