<?xml version="1.0" encoding="utf-8"?>
<!-- Generator: Adobe Illustrator 25.3.1, SVG Export Plug-In . SVG Version: 6.00 Build 0)  -->
<svg version="1.1" id="Capa_1" xmlns="http://www.w3.org/2000/svg" xmlns:xlink="http://www.w3.org/1999/xlink" x="0px" y="0px"
	 viewBox="0 0 512 512" style="enable-background:new 0 0 512 512;" xml:space="preserve">
<style type="text/css">
	.st0{fill:#FFFFFF;}
</style>
<g>
	<g>
		<g>
			<path class="st0" d="M453.8,100.6c-36.2,36.7-59.5,86-63.1,140.6H508C504.9,188.3,484.7,139.8,453.8,100.6z"/>
		</g>
	</g>
	<g>
		<g>
			<path class="st0" d="M270.8,4v237.2h90.3c3.7-63.4,30.8-120.7,73.1-162.9C392,36.3,334,7.7,270.8,4z"/>
		</g>
	</g>
	<g>
		<g>
			<path class="st0" d="M390.6,270.8c3.6,54.6,26.9,104.9,63.1,141.6c31-39.2,51.1-88.7,54.2-141.6H390.6z"/>
		</g>
	</g>
	<g>
		<g>
			<path class="st0" d="M77.8,78.4c42.3,42.2,69.4,99.4,73.1,162.9h90.3V4C178,7.7,120,36.3,77.8,78.4z"/>
		</g>
	</g>
	<g>
		<g>
			<path class="st0" d="M361.1,270.8h-90.3V508c63.2-3.7,121.2-31.3,163.4-73.4C391.9,392.4,364.8,334.2,361.1,270.8z"/>
		</g>
	</g>
	<g>
		<g>
			<path class="st0" d="M150.9,270.8c-3.7,63.4-30.8,121.6-73.1,163.8C120,476.7,178,504.3,241.2,508V270.8H150.9z"/>
		</g>
	</g>
	<g>
		<g>
			<path class="st0" d="M4,270.8c3.1,52.9,23.3,102.4,54.2,141.6c36.2-36.7,59.5-87,63.1-141.6H4z"/>
		</g>
	</g>
	<g>
		<g>
			<path class="st0" d="M58.2,100.6C27.3,139.8,7.1,188.3,4,241.2h117.4C117.8,186.6,94.4,137.3,58.2,100.6z"/>
		</g>
	</g>
</g>
</svg>
