<?xml version="1.0" encoding="utf-8"?>
<!-- Generator: Adobe Illustrator 25.3.1, SVG Export Plug-In . SVG Version: 6.00 Build 0)  -->
<svg version="1.1" id="Capa_1" xmlns="http://www.w3.org/2000/svg" xmlns:xlink="http://www.w3.org/1999/xlink" x="0px" y="0px"
	 viewBox="0 0 512 512" style="enable-background:new 0 0 512 512;" xml:space="preserve">
<style type="text/css">
	.st0{fill:#FFFFFF;}
</style>
<path class="st0" d="M335.2,9c28.7-4.3,55.9-5.9,80.1-5.9c12.8,0,25.6,0.5,38.1,1.3c28.8,2.1,52.1,25.3,54.1,54.1
	c2.2,30.7,2.5,72.2-4.4,118.2L335.2,9z M8.9,335.1c-6.9,46-6.6,87.5-4.4,118.2c2.1,28.8,25.3,52.1,54.1,54.1
	c12.4,0.9,25.3,1.3,38.1,1.3c0,0,0,0,0,0c24.2,0,51.3-1.6,80-5.8L8.9,335.1z M496.8,210.5c-13.9,62.4-42.3,130-97,188.6
	c-0.2,0.2-0.4,0.5-0.7,0.7c-58.3,54.5-125.7,83-188.7,96.9L15.2,301.5c13.9-62.4,42.3-130,97-188.6c0.2-0.2,0.4-0.5,0.7-0.7
	c58.3-54.5,125.7-83,188.7-96.9L496.8,210.5z M360.7,211.6l-20.2-20.2l15.7-15.7c5.5-5.5,5.5-14.4,0-20c-5.5-5.5-14.4-5.5-20,0
	l-15.7,15.7l-20.2-20.2c-5.5-5.5-14.4-5.5-20,0c-5.5,5.5-5.5,14.4,0,20l20.2,20.2l-23.1,23.1l-20.2-20.2c-5.5-5.5-14.4-5.5-20,0
	c-5.5,5.5-5.5,14.4,0,20l20.2,20.2l-23.1,23.1l-20.2-20.2c-5.5-5.5-14.4-5.5-20,0c-5.5,5.5-5.5,14.4,0,20l20.2,20.2l-23.1,23.1
	l-20.2-20.2c-5.5-5.5-14.4-5.5-20,0c-5.5,5.5-5.5,14.4,0,20l20.2,20.2l-15.7,15.7c-5.5,5.5-5.5,14.4,0,20c2.8,2.8,6.4,4.1,10,4.1
	c3.6,0,7.2-1.4,10-4.1l15.7-15.7l20.2,20.2c2.8,2.8,6.4,4.1,10,4.1s7.2-1.4,10-4.1c5.5-5.5,5.5-14.4,0-20l-20.2-20.2l23.1-23.1
	l20.2,20.2c2.8,2.8,6.4,4.1,10,4.1c3.6,0,7.2-1.4,10-4.1c5.5-5.5,5.5-14.4,0-20l-20.2-20.2l23.1-23.1l20.2,20.2
	c2.8,2.8,6.4,4.1,10,4.1c3.6,0,7.2-1.4,10-4.1c5.5-5.5,5.5-14.4,0-20l-20.2-20.2l23.1-23.1l20.2,20.2c2.8,2.8,6.4,4.1,10,4.1
	c3.6,0,7.2-1.4,10-4.1C366.2,226.1,366.2,217.2,360.7,211.6z"/>
</svg>
