<?xml version="1.0" encoding="utf-8"?>
<!-- Generator: Adobe Illustrator 25.3.1, SVG Export Plug-In . SVG Version: 6.00 Build 0)  -->
<svg version="1.1" id="Capa_1" xmlns="http://www.w3.org/2000/svg" xmlns:xlink="http://www.w3.org/1999/xlink" x="0px" y="0px"
	 viewBox="0 0 512 512" style="enable-background:new 0 0 512 512;" xml:space="preserve">
<style type="text/css">
	.st0{fill:#FFFFFF;}
</style>
<g>
	<g>
		<path class="st0" d="M125.7,3.6C95.5,3.6,71,28.2,71,58.4c0,30.4,24.6,54.9,54.7,54.9c30.3,0,55.1-24.5,55.1-54.9
			C180.8,28.2,156.1,3.6,125.7,3.6z"/>
		<path class="st0" d="M35.5,436c-4.6,8.3-0.2,15,9.9,15h30.5c10.1,0,18.3-6.7,18.3-15c0-0.1,0-0.2,0-0.3l62.5-129.5
			c6,0,11.9-2.3,16.4-7l61.4-63.4c0.5-0.5,0.8-1.1,1.3-1.6l23.9,22.8l-77.7,70.5c-5.7,5.1-8.9,12.4-9,20.1c-0.1,7.7,3.1,15,8.6,20.2
			l120.6,113.3c5.3,5,12,7.4,18.8,7.4c7.3,0,14.6-2.9,20-8.6c10.4-11,9.8-28.4-1.2-38.8l-99-93l47.2-42.8l17.3,54.8
			c1.5,4.8,4.4,9.1,8.2,12.4l119.6,104c11.4,9.9,28.8,8.7,38.7-2.7c9.9-11.4,8.7-28.7-2.7-38.7l-113.7-98.9l-13.4-42.6v-84.9
			c0-15.1-9.4-35.3-21-45.1L232.9,79c-4-3.5-9.2-5.6-14.9-5.6c-12.6,0-22.9,10.2-22.9,22.9v114.5l-54.9,56.8
			c-8.5,8.8-8.5,22.5-0.3,31.4L80.7,421.6c-1.5-0.3-3.1-0.6-4.8-0.6H62.2C52.1,421,40.2,427.7,35.5,436z"/>
		<circle class="st0" cx="71" cy="488.6" r="19.8"/>
	</g>
</g>
</svg>
