<?xml version="1.0" encoding="utf-8"?>
<!-- Generator: Adobe Illustrator 25.3.1, SVG Export Plug-In . SVG Version: 6.00 Build 0)  -->
<svg version="1.1" id="Capa_1" xmlns="http://www.w3.org/2000/svg" xmlns:xlink="http://www.w3.org/1999/xlink" x="0px" y="0px"
	 viewBox="0 0 512 512" style="enable-background:new 0 0 512 512;" xml:space="preserve">
<style type="text/css">
	.st0{fill:#FFFFFF;}
</style>
<g>
	<path class="st0" d="M430.9,233.9v33c32.3,16.1,51.1,36.1,51.1,56c0,45.4-91.4,81.1-181.8,88.6c-8.3,0.7-14.4,7.9-13.7,16.2
		c0.6,7.9,7.5,14.3,16.2,13.7c78.7-6.5,209.4-40.5,209.4-118.5C512,280.2,470.3,250.9,430.9,233.9L430.9,233.9z"/>
	<path class="st0" d="M165.8,360.6c-8.3-8.5-22.8-4.3-25.3,7.3l-6.6,30.3C34.6,371.5-13.1,314,81.3,266.9v-33
		c-123.8,53.4-104.4,153.7,46.2,193.7l-6,27.3c-2.6,11.7,9,21.6,20.2,17.1l75-30c9.9-4,12.6-16.8,5.1-24.4L165.8,360.6z"/>
	<path class="st0" d="M262.7,40.9c-4.6-2.6-10.3-2.6-14.9,0.1l-121.6,70.2c20.6,11.9,118.7,68.5,129.8,75L386,110.7L262.7,40.9z"/>
	<path class="st0" d="M111.2,277.5c0,5.4,2.9,10.3,7.5,13l122.4,70.6v-149l-129.9-75L111.2,277.5L111.2,277.5z"/>
	<path class="st0" d="M400.9,277.5V136.7L271.1,212v149l122.4-70.6C398.1,287.8,400.9,282.8,400.9,277.5z"/>
</g>
</svg>
