<?xml version="1.0" encoding="utf-8"?>
<!-- Generator: Adobe Illustrator 25.3.1, SVG Export Plug-In . SVG Version: 6.00 Build 0)  -->
<svg version="1.1" id="Layer_1" xmlns="http://www.w3.org/2000/svg" xmlns:xlink="http://www.w3.org/1999/xlink" x="0px" y="0px"
	 viewBox="0 0 512 512" style="enable-background:new 0 0 512 512;" xml:space="preserve">
<style type="text/css">
	.st0{fill:#FFFFFF;}
</style>
<path class="st0" d="M256,3.2C116.4,3.2,3.2,116.4,3.2,256S116.4,508.8,256,508.8S508.8,395.6,508.8,256
	C508.7,116.4,395.6,3.3,256,3.2z M265,76.1L352.9,41c10,4.5,19.6,9.7,28.9,15.6l0.2,0.1c9.1,5.8,17.8,12.1,26,19.1l0.7,0.6
	c3.7,3.1,7.3,6.4,10.8,9.8c0.4,0.4,0.9,0.8,1.3,1.3c3.7,3.6,7.2,7.3,10.6,11c0.3,0.3,0.6,0.7,0.8,1c3,3.4,5.9,6.9,8.7,10.4
	c0.7,0.8,1.3,1.7,2,2.5c3,3.9,6,8,8.8,12.1L434.2,199L348,227.7l-83-66.4V76.1z M69,112.4c0.7-0.8,1.3-1.7,2-2.5
	c2.8-3.5,5.6-7,8.6-10.3c0.3-0.4,0.6-0.7,0.9-1.1c3.4-3.8,6.9-7.5,10.6-11c0.4-0.4,0.8-0.8,1.3-1.2c3.5-3.3,7-6.6,10.7-9.7l0.8-0.7
	c8.2-6.9,16.8-13.2,25.8-19l0.3-0.2c9.2-5.8,18.8-11,28.7-15.6l88.3,35v85.1l-83,66.4l-86.2-28.7l-17.5-74.5
	C63,120.3,65.9,116.3,69,112.4z M58.8,385.3c-2.5-3.8-4.8-7.6-7.1-11.5l-0.5-0.9C49,369,46.8,365,44.8,361l-0.1-0.1
	c-4.2-8.5-7.9-17.2-11.1-26.1v-0.1c-1.5-4.2-2.9-8.5-4.1-12.9l-0.5-1.6c-1.2-4.1-2.2-8.2-3.1-12.4c-0.1-0.4-0.2-0.8-0.3-1.2
	c-2.1-9.4-3.6-18.9-4.5-28.5l51.5-61.7l85.6,28.5l24.8,99.4l-40.8,54.3L58.8,385.3z M312.1,485.2c-4.2,1-8.5,1.9-12.9,2.8
	c-0.6,0.1-1.2,0.2-1.8,0.3c-3.7,0.7-7.4,1.2-11.1,1.7c-1,0.1-2,0.3-3,0.4c-3.5,0.4-7,0.7-10.5,1c-1.1,0.1-2.2,0.2-3.3,0.3
	c-4.5,0.3-9,0.4-13.6,0.4c-4.2,0-8.3-0.1-12.4-0.3c-0.5,0-1-0.1-1.5-0.1c-3.7-0.2-7.3-0.5-11-0.8l-0.4-0.1c-8-0.9-15.9-2.1-23.8-3.8
	L157,408.9l40.2-53.6h117.4l40.8,53.9L312.1,485.2z M486.5,306.6c-0.1,0.4-0.2,0.8-0.3,1.2c-0.9,4.2-2,8.3-3.1,12.4l-0.5,1.6
	c-1.3,4.3-2.6,8.6-4.1,12.9v0.1c-3.2,8.9-6.9,17.6-11.1,26.1l-0.1,0.1c-2,4-4.1,8-6.4,11.9l-0.5,0.9c-2.2,3.9-4.6,7.8-7.1,11.5
	l-83.1,13.1L329,344.2l24.8-99.4l85.6-28.5l51.5,61.7C490,287.6,488.5,297.1,486.5,306.6z"/>
</svg>
