<?xml version="1.0" encoding="utf-8"?>
<!-- Generator: Adobe Illustrator 25.3.1, SVG Export Plug-In . SVG Version: 6.00 Build 0)  -->
<svg version="1.1" id="Capa_1" xmlns="http://www.w3.org/2000/svg" xmlns:xlink="http://www.w3.org/1999/xlink" x="0px" y="0px"
	 viewBox="0 0 512 512" style="enable-background:new 0 0 512 512;" xml:space="preserve">
<style type="text/css">
	.st0{fill:#FFFFFF;}
</style>
<g>
	<g>
		<g>
			<path class="st0" d="M9.5,410.4c-8.4,8.4-8.4,22.1,0,30.5L40,471.6c8.4,8.4,22.1,8.4,30.5,0l76.4-76.3l-61.1-61.1L9.5,410.4z"/>
			<path class="st0" d="M101.1,318.9l61.1,61.1c25.8-25.8,71-3.2,124.6,2.4L98.7,194.3C104.3,247.9,126.9,293.1,101.1,318.9z"/>
			<path class="st0" d="M421.7,334.1c75.9-74.8,76.8-197,1.9-272.9c0,0,0,0-0.1-0.1c-74.7-76.9-197.6-78.6-274.5-3.9
				c-0.7,0.7-1.4,1.4-2.2,2.1C117.8,86.2,100.3,123.4,98,163l220,220C357.6,380.7,394.8,363.2,421.7,334.1z"/>
			<circle class="st0" cx="444" cy="444.9" r="64.8"/>
		</g>
	</g>
</g>
</svg>
