<?xml version="1.0" encoding="utf-8"?>
<!-- Generator: Adobe Illustrator 25.3.1, SVG Export Plug-In . SVG Version: 6.00 Build 0)  -->
<svg version="1.1" id="Layer_1" xmlns="http://www.w3.org/2000/svg" xmlns:xlink="http://www.w3.org/1999/xlink" x="0px" y="0px"
	 viewBox="0 0 512 512" style="enable-background:new 0 0 512 512;" xml:space="preserve">
<style type="text/css">
	.st0{fill:#FFFFFF;}
</style>
<g>
	<g>
		<path class="st0" d="M450.3,91.9c-17.8,26.5-30.9,55.1-39.3,85.4l24.1,9.2c12.6,4.8,18.9,18.9,14,31.5c-4.8,12.6-19,18.9-31.5,14
			l-15.8-6.1c-2,19.7-2,39.7,0,59.9l15.8-6.1c12.6-4.8,26.7,1.5,31.5,14c4.8,12.6-1.5,26.7-14,31.5l-24.1,9.2
			c8.4,30.2,21.5,59,39.3,85.4C530.5,325.3,530.6,186.8,450.3,91.9z"/>
	</g>
</g>
<g>
	<g>
		<path class="st0" d="M345.7,359.7c-12.6,4.8-26.7-1.5-31.5-14c-4.8-12.6,1.5-26.7,14-31.5l26.9-10.3c-4.3-31.1-4.5-63.4,0-95.9
			l-26.9-10.3c-12.6-4.8-18.9-18.9-14-31.5c4.8-12.6,18.9-18.9,31.5-14l19.7,7.6C376,123.4,392.7,88.8,415,57.3
			c-92.3-73.9-224.2-75-317.9,0c22.3,31.5,39,66.1,49.6,102.4l19.7-7.6c12.6-4.8,26.7,1.5,31.5,14c4.8,12.5-1.5,26.7-14,31.5
			L157,208c4.3,31.1,4.5,63.4,0,95.9l26.9,10.3c12.6,4.8,18.9,18.9,14,31.5c-4.8,12.6-19,18.9-31.5,14l-19.7-7.6
			c-10.6,36.4-27.3,70.9-49.6,102.4c92.2,73.9,224.1,75,317.9,0c-22.3-31.5-39-66.1-49.6-102.4L345.7,359.7z"/>
	</g>
</g>
<g>
	<g>
		<path class="st0" d="M94.3,279.9l15.8,6.1c2-19.7,2-39.7,0-59.9l-15.8,6.1c-12.6,4.8-26.7-1.5-31.5-14c-4.8-12.6,1.5-26.7,14-31.5
			l24.1-9.2c-8.4-30.2-21.5-59-39.3-85.4c-80.2,94.8-80.3,233.3,0,328.3c17.8-26.5,30.9-55.1,39.3-85.4l-24.1-9.2
			c-12.6-4.9-18.9-19.1-14-31.6C67.5,281.4,81.7,275.1,94.3,279.9z"/>
	</g>
</g>
</svg>
