<?xml version="1.0" encoding="utf-8"?>
<!-- Generator: Adobe Illustrator 25.3.1, SVG Export Plug-In . SVG Version: 6.00 Build 0)  -->
<svg version="1.1" id="Capa_1" xmlns="http://www.w3.org/2000/svg" xmlns:xlink="http://www.w3.org/1999/xlink" x="0px" y="0px"
	 viewBox="0 0 512 512" style="enable-background:new 0 0 512 512;" xml:space="preserve">
<style type="text/css">
	.st0{fill:#FFFFFF;}
</style>
<g>
	<g>
		<path class="st0" d="M53.7,407.7c-27.9,0-50.6,22.7-50.6,50.6s22.6,50.6,50.6,50.6h50.6V407.7H53.7z"/>
	</g>
</g>
<g>
	<g>
		<path class="st0" d="M475.1,3.2C464,3.2,454,8.6,447.9,17L286.2,237.5l10.4-14.2l67.1,52L345.6,304l-68.9-53.4l-29.6,40.4
			l73.9,51.9L503.6,54.9c3.3-5.2,5.2-11.4,5.2-18C508.8,18.3,493.7,3.2,475.1,3.2z"/>
	</g>
</g>
<g>
	<g>
		<path class="st0" d="M227.2,318.1l-60.6,82.7c-3.2,4.3-8.2,6.9-13.6,6.9h-15v101.1h49.8c17.3,0,33.4-8.9,42.7-23.5l72.4-114.1
			L227.2,318.1z"/>
	</g>
</g>
<g>
	<g>
		<path class="st0" d="M154.9,239.1H20c-9.3,0-16.9,7.6-16.9,16.9v33.7c0,9.3,7.6,16.9,16.9,16.9h134.8c9.3,0,16.9-7.6,16.9-16.9
			V256C171.7,246.7,164.2,239.1,154.9,239.1z"/>
	</g>
</g>
</svg>
