<?xml version="1.0" encoding="utf-8"?>
<!-- Generator: Adobe Illustrator 25.3.1, SVG Export Plug-In . SVG Version: 6.00 Build 0)  -->
<svg version="1.1" id="Layer_1" xmlns="http://www.w3.org/2000/svg" xmlns:xlink="http://www.w3.org/1999/xlink" x="0px" y="0px"
	 viewBox="0 0 512 512" style="enable-background:new 0 0 512 512;" xml:space="preserve">
<style type="text/css">
	.st0{fill-rule:evenodd;clip-rule:evenodd;fill:#FFFFFF;}
</style>
<path class="st0" d="M508.7,329.1l-34.1-145c-9.2-39-45.2-79.2-100-79.2H137.4c-40.1,0-87.4,25.8-100,79.2l-34.1,145
	c-9.3,39.3,20.6,77.1,61.1,77.1c17.2,0,33.4-9.2,42.2-23.9l26.3-43.8c4.5-7.5,12.7-12.1,21.4-12.1h203.4c8.7,0,17,4.7,21.4,12.1
	l26.3,43.8c8.8,14.7,25,23.9,42.2,23.9C488.1,406.2,518,368.5,508.7,329.1z M192.1,230.5h-17v17c0,8.2-6.7,14.9-14.9,14.9
	c-8.2,0-14.9-6.7-14.9-14.9v-17h-17c-8.2,0-14.9-6.7-14.9-14.9c0-8.2,6.7-14.9,14.9-14.9h17v-17c0-8.2,6.7-14.9,14.9-14.9
	c8.2,0,14.9,6.7,14.9,14.9v17h17c8.2,0,14.9,6.7,14.9,14.9C207,223.9,200.4,230.5,192.1,230.5z M319.9,230.5
	c-8.2,0-14.9-6.7-14.9-14.9c0-8.2,6.7-14.9,14.9-14.9c8.2,0,14.9,6.7,14.9,14.9C334.8,223.9,328.1,230.5,319.9,230.5z M351.8,262.5
	c-8.2,0-14.9-6.7-14.9-14.9s6.7-14.9,14.9-14.9c8.2,0,14.9,6.7,14.9,14.9S360,262.5,351.8,262.5z M351.8,198.6
	c-8.2,0-14.9-6.7-14.9-14.9c0-8.2,6.7-14.9,14.9-14.9c8.2,0,14.9,6.7,14.9,14.9C366.7,191.9,360,198.6,351.8,198.6z M383.7,230.5
	c-8.2,0-14.9-6.7-14.9-14.9c0-8.2,6.7-14.9,14.9-14.9c8.2,0,14.9,6.7,14.9,14.9C398.6,223.9,392,230.5,383.7,230.5z"/>
</svg>
