<?xml version="1.0" encoding="utf-8"?>
<!-- Generator: Adobe Illustrator 25.3.1, SVG Export Plug-In . SVG Version: 6.00 Build 0)  -->
<svg version="1.1" id="Capa_1" xmlns="http://www.w3.org/2000/svg" xmlns:xlink="http://www.w3.org/1999/xlink" x="0px" y="0px"
	 viewBox="0 0 512 512" style="enable-background:new 0 0 512 512;" xml:space="preserve">
<style type="text/css">
	.st0{fill:#FFFFFF;}
</style>
<g>
	<g>
		<path class="st0" d="M6.9,170c-4.1,8.4-3.1,11,4.5,16.6c2,1.5,4.7,2.5,5.8,4.5c2.4,4.1,5.6,4,9.5,3.1c0.3-0.1,0.7,0,1,0
			c8.7,32,43.7,36.4,70.5,45.1c2.1,0.7,3.5,1.3,3.9,3.9c0.9,6.8,2.3,13.4,3.6,20.3c-0.3,0-0.9,0-1.5-0.2c-16.5-4.3-33.7-6.7-48.6-16
			c-3.3-2.1-7-2-10.4,0.4c-1.6,1.1-3.4,2-5.1,3c-6.4,3.9-9.9,9.4-9.5,17.2c0.6,11.3,0.9,22.5,1.3,33.8c0.3,8.2,1,16.2,5.4,23.5
			c6.4,10.6,16.9,16.5,26.8,23.1c2.9,2,5.6,3.8,8,6.5c3.2,3.7,7.1,7.3,11.4,9.3c11.3,5.4,23.4,8.3,36,8.7c5.5,0.2,6.8-2.1,4.3-7.1
			c-0.6-1.2-1.4-2.2-2-3.4c-3.4-6.2-6.9-12.3-10.2-18.5c-1.1-2-1.8-4.3-2.7-6.4c-7.6-0.1-13.9,2.1-18.1,9.6
			c-1.1-1.9-1.7-2.7-2.1-3.6c-3-7-6.1-13.9-8.8-21c-1.8-4.7-3.3-9.6-4.6-14.6c-0.8-3.2,0.6-6,3.8-6.8c9-2,18.1-3,27.1-0.1
			c6.6,2.1,13.1,4.7,19.7,6.8c11.8,3.8,22.1,2.2,30.2-8.3c2.7-3.4,6.5-6,10.1-8.7c3.3-2.6,7-3.1,11-1c2.8,1.4,5.8,2.6,8.8,3.1
			c0,0,12.6,3.8,20.9,4.3c9.6,0.5,18.6,1.3,27.6,1.3c19.5-0.2,39.1-0.1,58.5-1.4c15.8-1.1,32-0.1,47.4-5.7c4.6-1.7,6.6-0.1,8.4,4.5
			c3.9,10.3,9.5,19.6,18.8,25.6c12.2,7.9,24.1,16.9,39.6,17.8c1.1,0.1,2.5,0.4,3.4,1c4.4,3.2,9.5,3.5,14.6,3.8
			c3.4,0.2,6.8,0.7,10.1,1.3c6.5,1.2,10.5,5,11.9,11.5c2.6,12.3,1.6,24.2-3.1,35.9c-4.9,12-3.7,23.2,4.6,33.1
			c4.7,5.6,10,10.8,15,16.1c0.8,0.8,1.8,1.5,2.8,2.1c4.8,2.7,9.7,5.5,14.6,8.1c2.2,1.2,4.5,2.1,6.7,3.1c0.4-0.3,0.7-0.6,1.1-0.9
			c-0.8-13.2-1.6-26.3-2.5-39.5c0-0.7-0.9-1.6-1.6-1.8c-4.5-1.2-9.1-2.2-13.3,0.5c-2.7,1.8-4.2,0.5-4.9-1.5c-0.9-2.8-1.8-6-1.2-8.8
			c3.4-18,6.9-36,11.1-53.8c1.9-8.2,1.8-10.9-5.6-15.1c-4.6-2.6-9.7-4.5-14.7-6.5c-10.7-4.5-18.3-12-19.4-23.7
			c-0.8-8.2,0.6-16.6,1.3-25c0.8-9.7,3.3-19.5-0.3-29.2c-0.3-0.7,0.2-2.3,0.8-2.7c2.3-1.3,4.8-3.3,7.1-3.1c1.3,0.1,2.6,3.7,3.5,5.9
			c0.5,1.1,0.3,2.6,0.4,3.9c0.2,5,0,10,0.9,14.9c0.5,3,2.2,6.4,4.5,8.2c2.9,2.4,4.7,4.8,4.9,8.4c0.2,4.1-0.2,8.2,0.4,12.1
			c0.3,2.1,1.9,4,3,5.9c1.8-1.1,4-1.8,5.2-3.4c3-3.9,5.9-7.5,10.7-9.5c1.7-0.7,3.4-2.4,4.2-4c1.9-4.3,3.9-8.6,4.8-13.2
			c1.5-7.8,3.8-15.2,9.4-20.8c7.7-7.8,10-17.3,10.1-27.7c0.2-9.7-2.7-18.2-11.4-23.6c-13.6-8.4-27.5-10.8-41.6-1.1
			c-1.4,1-2.9,1.8-4.4,2.6c-4.7,2.8-9.1,6.5-14.2,8.3c-11.2,4-22.5,5.6-32.6-3.4c-0.6-0.6-1.6-0.8-2.5-1.1
			c-6.4-2.2-12.7-4.4-19.1-6.6c3-5.9,5.9-11.7,8.8-17.5c-7-2.7-10.6-2.5-15.8,1.5c-11.5,8.9-24.6,12.8-38.9,12.3
			c-19.8-0.7-39.5-2.4-59-6.2c-17.6-3.5-32.2-11.5-42.7-26.3c-1.1-1.5-2.3-2.9-3.5-4.2c-4.1-4.3-9.2-3.1-10.8,2.6
			c-0.6,2.1-0.8,4.4-1.2,6.6c-0.9,4.1-2,4.7-5.9,3.5c-1.9-0.6-3.7-1.1-5.9-1.8c-8.8-3.8-18.1-10.4-18.1-10.4c-1.3-1.2-3-2.2-3.7-3.6
			c-1-2.1-1.2-4.5-1.7-6.8c-1.2-5.2-2.1-10.5-3.8-15.6c-2.7-8-10.6-13.3-11.9-22.1c-0.1-0.3-0.6-0.6-0.7-0.9
			c-0.5-1.1-1.3-2.2-1.4-3.4c-0.5-7.2-3.5-13.2-8.8-17.9c-3.5-3.1-7.6-5.4-9-10.3c-0.2-0.9-1.2-1.7-2.1-2.3
			c-3.9-3.1-7.8-6.4-11.9-9.2c-6.4-4.5-13.7-5.5-21.4-5.3c-1.8,0.1-4-0.2-5.5-1.2c-11.6-7.5-20.9-6.6-31.3,2.8
			c-5.2,4.7-10.5,9.2-18.1,10.3C50,76,44.2,85.3,45.2,92.8c0.1,1-0.7,2.8-1.4,3.1c-6,2.1-7.4,7.2-8.3,12.4
			c-1.6,9.2-5.5,17.4-9.9,25.5C19.1,145.7,12.9,157.8,6.9,170z M58.8,279.5c-2,2.9-4.1,5.7-6.1,8.6c-0.4-0.1-0.8-0.2-1.2-0.3
			c0.5-2.7,0.5-5.7,1.7-8.1c0.5-1.1,3.5-0.9,5.4-1.3C58.6,278.8,58.7,279.2,58.8,279.5z M101.1,162.6C91,164,81,165.2,71,167
			c5.2-5.5,10.3-11.3,15.9-16.5c3.2-2.9,7.9-1.7,10.1,2.2C98.6,155.5,99.5,158.7,101.1,162.6z M32.3,191.5c3.3-2.6,4.2-6.9,6.2-10.4
			c1-1.8,1.7-5.4,4.8-3.4c2.9,1.9,1.3,4.7-0.3,6.9c-0.6,0.8-1.4,1.6-2.2,2.2c-3,2.3-4,4.7-0.8,7.7c0.8,0.8,1.2,2.4,1.3,3.6
			c0.2,3.4,2.1,4,4.8,2.9c2.4-1,4.7-2.2,7-3.4c1-0.5,1.9-1.4,3-1.8c5-1.9,6.7-4.2,6-9.5c-0.8-5.5,2.6-9.1,5.2-13.1
			c0.1-0.1,0.3-0.2,0.4-0.3c2.4-0.5,4.8-0.9,7.2-1.3c8.7-1.2,17.4-2.4,26.4-3.7c0.3,6.4,0.7,12.7,1,19.1c0.2,3.9-0.2,7.9,0.5,11.8
			c0.7,4.2,1.9,8.4,3.6,12.2c2.7,6.1,1.8,16-2.6,20.5c-0.6,0.6-2.2,0.7-3.2,0.5c-13.8-3.1-29.2-4.5-42.3-10.5
			c-3.8-1.7-7.4-3.8-10.7-6.4C45,213.1,28.2,194.8,32.3,191.5z"/>
	</g>
</g>
</svg>
