<?xml version="1.0" encoding="utf-8"?>
<!-- Generator: Adobe Illustrator 25.3.1, SVG Export Plug-In . SVG Version: 6.00 Build 0)  -->
<svg version="1.1" id="Capa_1" xmlns="http://www.w3.org/2000/svg" xmlns:xlink="http://www.w3.org/1999/xlink" x="0px" y="0px"
	 viewBox="0 0 512 512" style="enable-background:new 0 0 512 512;" xml:space="preserve">
<style type="text/css">
	.st0{fill:#FFFFFF;}
</style>
<g>
	<path class="st0" d="M256,1C115.4,1,1,115.4,1,256s114.4,255,255,255s255-114.4,255-255S396.6,1,256,1z M235.5,20.9H275v39.6h-39.6
		V20.9H235.5z M434.1,256c0,98.2-79.9,178.1-178.1,178.1S77.9,354.2,77.9,256S157.8,77.9,256,77.9S434.1,157.8,434.1,256z
		 M103.7,75.8l28,28l-28,28l-28-28L103.7,75.8z M59.7,275.8H20.2v-39.6h39.6L59.7,275.8L59.7,275.8z M103.7,436.2l-28-28l28-28
		l28,28L103.7,436.2z M275,491.1h-39.6v-39.6H275V491.1z M408.3,436.2l-28-28l28-28l28,28L408.3,436.2z M408.3,131.7l-28-28l28-28
		l28,28L408.3,131.7z M450.8,275.8v-39.6h39.6v39.6H450.8z"/>
	<path class="st0" d="M110.9,256c0,80,65.1,145.1,145.1,145.1S401.1,336,401.1,256S336,110.9,256,110.9S110.9,176,110.9,256z
		 M325.4,243.7c6.8,11.1,9.1,21,9.1,32.8c0,29.1-20.5,44.7-43.8,44.7c-15.9,0-25-7.5-29.9-13.8l8.4,29.9h-26.5l8.2-29.2
		c-5.1,6.1-14,13.7-29.3,13.7c-23.3,0-43.9-15.9-43.9-45c0-11.8,2.2-22,9-33.1c10.7-17.4,69.6-67.3,69.6-67.3
		S314.7,226.3,325.4,243.7z"/>
</g>
</svg>
