<?xml version="1.0" encoding="utf-8"?>
<!-- Generator: Adobe Illustrator 25.3.1, SVG Export Plug-In . SVG Version: 6.00 Build 0)  -->
<svg version="1.1" id="Capa_1" xmlns="http://www.w3.org/2000/svg" xmlns:xlink="http://www.w3.org/1999/xlink" x="0px" y="0px"
	 viewBox="0 0 440 440" style="enable-background:new 0 0 440 440;" xml:space="preserve">
<style type="text/css">
	.st0{fill:#FFFFFF;}
</style>
<g>
	<g id="Layer_1_61_">
		<g>
			<path class="st0" d="M177.7,321.1c0,0-0.1,0.1-0.1,0.1l4.1,23.3l23.3,4.1c0,0,0.1-0.1,0.1-0.1l-4.4-22.9L177.7,321.1z"/>
			<path class="st0" d="M384,142.1c-90.4-90.4-142.3-44-150.7-12.4c-4,15.1-3.6,21.3-3.6,21.3c-13.6-6.7-48.3-16.1-78.1,93.2
				l-64.1,78.9c14.4,24.8,30.8,46.5,49.9,65.5c19.1,19.1,40.8,35.5,65.5,49.9l78.9-64.1c25.6-11.9,67.2-16.6,93.8-43.2
				C430.2,276.8,465.9,224,384,142.1z M256.2,336.3c-5.4,5.4-14.1,5.4-19.5,0c-1.3-1.3-2.2-2.7-2.9-4.3l-16.8-3.3l3.3,16.8
				c1.6,0.7,3,1.6,4.3,2.9c5.4,5.4,5.4,14.1,0,19.5c-5.4,5.4-14.1,5.4-19.5,0c-1.2-1.2-2.1-2.6-2.8-4.1l-17.8-3.1l3.1,17.8
				c1.5,0.7,2.9,1.6,4.1,2.8c5.4,5.4,5.4,14.1,0,19.5c-5.4,5.4-14.1,5.4-19.5,0c-5.4-5.4-5.4-14.1,0-19.5c0,0,0.1-0.1,0.1-0.1
				l-4.1-23.3l-23.3-4.1c0,0-0.1,0.1-0.1,0.1c-5.4,5.4-14.1,5.4-19.5,0c-5.4-5.4-5.4-14.1,0-19.5c5.4-5.4,14.1-5.4,19.5,0
				c1.2,1.2,2.1,2.6,2.8,4.1l17.8,3.1l-3.1-17.8c-1.5-0.7-2.9-1.6-4.1-2.8c-5.4-5.4-5.4-14.1,0-19.5c5.4-5.4,14.1-5.4,19.5,0
				c1.3,1.3,2.2,2.7,2.9,4.3l16.8,3.3l-3.3-16.8c-1.6-0.7-3-1.6-4.3-2.9c-5.4-5.4-5.4-14.1,0-19.5c5.4-5.4,14.1-5.4,19.5,0
				c5.4,5.4,5.4,14.1,0,19.4l4.4,22.9l22.9,4.4c5.4-5.3,14.1-5.3,19.4,0C261.6,322.2,261.6,330.9,256.2,336.3z"/>
			<path class="st0" d="M115.5,266.6l-5.8-7.5l-22.5,6.4c0,0,0,0.1,0,0.1l14,18.7L115.5,266.6z"/>
			<path class="st0" d="M63.9,292.3c1.6,0.5,3.1,1.4,4.3,2.4l17.3-5.3l-10.8-14.5c-1.6,0.1-3.3-0.1-4.9-0.7
				c-7.2-2.4-11.2-10.1-8.8-17.4c2.4-7.2,10.1-11.2,17.4-8.8c1.7,0.6,3.2,1.4,4.5,2.5l16.5-4.7l-10.5-13.5c-1.7,0.1-3.4-0.1-5.1-0.6
				c-7.2-2.4-11.2-10.1-8.8-17.4c2.4-7.2,10.1-11.2,17.4-8.8c7.2,2.4,11.1,10.1,8.8,17.3l14.3,18.5L138,235c0.7-2.1,1.9-3.9,3.3-5.4
				c12.7-41.6,26-64.3,26-64.3s-13.8-36.8-55.8-20.4c49.7-23.6,13.6-61.2,13.6-61.2s42.7,32.5,84,50.3c2-0.3,4.1-0.5,6.2-0.5
				c0.9,0,1.8,0,2.7,0.1c0.5-2.3,1.1-4.7,1.8-7.4c5.8-21.7,25.4-44.8,56.2-49.7c-10.2-22.9-34.6-47.1-85.6-63.7
				c-110-36-141,19.6-165,92.9c-11.7,35.8,2.9,75,3.8,103.2L7.7,308.1c24,15.6,48.5,27.5,74.1,35.9c0.9,0.3,1.7,0.6,2.6,0.8
				c-3.1-4.8-6.1-9.7-9-14.7l-4.8-8.3l12.7-15.6l-10.5,3.2c0,0.1,0,0.1,0,0.2c-2.4,7.2-10.1,11.2-17.4,8.8
				c-7.2-2.4-11.2-10.1-8.8-17.4C48.9,293.8,56.7,289.9,63.9,292.3z"/>
		</g>
	</g>
</g>
</svg>
