<?xml version="1.0" encoding="utf-8"?>
<!-- Generator: Adobe Illustrator 25.3.1, SVG Export Plug-In . SVG Version: 6.00 Build 0)  -->
<svg version="1.1" id="Capa_1" xmlns="http://www.w3.org/2000/svg" xmlns:xlink="http://www.w3.org/1999/xlink" x="0px" y="0px"
	 viewBox="0 0 512 512" style="enable-background:new 0 0 512 512;" xml:space="preserve">
<style type="text/css">
	.st0{fill:#FFFFFF;}
</style>
<g>
	<path class="st0" d="M426.3,434.1c-29.4,0.4-56.4,11.2-77.4,28.9c13.6,28.8,43.1,49,77.3,49h0c35.2,0,65.2-21.4,78.2-51
		c-21-16.8-47.6-26.9-76.6-26.9C427.4,434.1,426.8,434.1,426.3,434.1z"/>
	<path class="st0" d="M426.3,340.8L426.3,340.8c-50.6,0-88.9,43.6-85.5,90.6c24.3-16.9,53.7-27,85.5-27.3c0.5,0,1.1,0,1.6,0
		c31,0,59.8,9.3,83.9,25.2C515.1,387.2,478.6,340.8,426.3,340.8L426.3,340.8z"/>
	<path class="st0" d="M362.9,316c60.7-29.7,109-91.7,115.8-161.6c9-93.1-60.1-162.6-153.6-153.6c-91.1,8.8-171.2,88.9-180,180
		c-1.4,15-0.9,29.6,1.6,43.4c-5.2,36-20.8,61.8-31,75.5c0,0,0,0,0,0c-6.9,9.2,1.8-0.2-111.3,112.9c-5.8,5.9-5.8,15.3,0,21.2
		c4.5,4.5,37.9,37.9,42.4,42.4c5.8,5.8,15.3,5.9,21.2,0C180.9,363,172.1,371.2,180.4,364.8c13.3-10.4,39-26.4,74.9-31.9
		C288.2,338.7,326.3,333.9,362.9,316L362.9,316z M180.3,156.2l33.2,33.2l-35.9,35.9C172.4,203.6,173.4,179.8,180.3,156.2z
		 M189.8,255.5l44.9-44.9l34.3,34.3L224,289.8C210.4,281.6,198.5,270.1,189.8,255.5L189.8,255.5z M270.3,48.2l42.2,42.2l-28.3,28.3
		L236.5,71C247.2,61.9,258.5,54.3,270.3,48.2z M333.7,111.6l17.6,17.6l16.7,16.7l-28.3,28.3c-20.8-20.8-13.2-13.2-34.3-34.3
		L333.7,111.6z M443.5,179l-33.2-33.2l35.9-35.9C451.6,132.7,450,156.6,443.5,179L443.5,179z M318.4,195.4l-28.3,28.3
		c-17.2-17.2-17-17-34.3-34.3l28.3-28.3L318.4,195.4z M254.3,301.9l35.9-35.9l33.2,33.2C299.8,306.1,275.9,307.1,254.3,301.9
		L254.3,301.9z M353.5,287l-42.2-42.2l28.3-28.3l47.7,47.7C376.6,273.3,365.3,280.9,353.5,287L353.5,287z M408.5,243l-47.6-47.6
		l28.3-28.3l42.2,42.2C425.2,221,417.6,232.3,408.5,243L408.5,243z M434.1,79.7l-44.9,44.9c-17.2-17.2-17-17-34.3-34.3l44.9-44.9
		C414.3,54.2,425.9,66.1,434.1,79.7z M369.5,33.2l-35.9,35.9L300.5,36C322.9,29.4,346.8,27.9,369.5,33.2z M215.3,92.2l47.6,47.7
		l-28.3,28.3L192.5,126C198.6,114.2,206.2,102.9,215.3,92.2z M207.6,314.9c-22.2,8.9-38.6,20.3-48.5,28.4
		c-7.2-7.3-15.6-15.7-22.1-22.2c0,0,0,0,0,0c8-10,19.1-26.5,27.8-48.8c5.6,9,12.9,18.3,22,26.8C193.5,305.3,200.4,310.5,207.6,314.9
		C207.6,314.9,207.6,314.9,207.6,314.9z"/>
</g>
</svg>
