<?xml version="1.0" encoding="utf-8"?>
<!-- Generator: Adobe Illustrator 25.3.1, SVG Export Plug-In . SVG Version: 6.00 Build 0)  -->
<svg version="1.1" id="Capa_1" xmlns="http://www.w3.org/2000/svg" xmlns:xlink="http://www.w3.org/1999/xlink" x="0px" y="0px"
	 viewBox="0 0 512 512" style="enable-background:new 0 0 512 512;" xml:space="preserve">
<style type="text/css">
	.st0{fill:#FFFFFF;}
</style>
<g>
	<g>
		<path class="st0" d="M269.4,265.6c-8.5,118.7-72.8,188.6-117.1,223c21,9.4,43.4,15.9,66.9,19.3l9.6-7.8
			c58.3-47.3,128.9-131.4,145.2-263.8C341.5,238.5,306.4,247.4,269.4,265.6z"/>
	</g>
</g>
<g>
	<g>
		<path class="st0" d="M500.5,185.7l-12.9-7.9c-46-28.4-166.5-85.4-313.1-24.4c18.5,29.3,44.8,57.9,81.8,82.9
			c106.2-51.9,200-31.1,252.4-10.1C507,212.3,504.2,198.8,500.5,185.7z"/>
	</g>
</g>
<g>
	<g>
		<path class="st0" d="M256.1,1.7c-44.7,0-86.6,11.6-123.1,31.9l0.1,1.1c3,26.9,10.6,58.6,25.9,90.8c141.1-60.2,260.4-20,322.1,12.1
			C438.5,56.8,353.8,1.7,256.1,1.7z"/>
	</g>
</g>
<g>
	<g>
		<path class="st0" d="M103.7,52.7c-20.7,15.5-38.9,34-54,55l1.4,8.9C62.7,191.2,99,296,204,379.9c17.4-31.3,30.6-70.1,33.8-117.8
			C146,199.8,113.6,117,103.7,52.7z"/>
	</g>
</g>
<g>
	<g>
		<path class="st0" d="M25,150.1C10.2,182.4,1.6,218.3,1.6,256.2c0,91.1,48,170.8,119.9,215.7l3.1-2.2c18-12.9,41.4-33.7,62.4-62.8
			C84.8,326.5,42.1,227.8,25,150.1z"/>
	</g>
</g>
<g>
	<g>
		<path class="st0" d="M506.1,259.6c-26.7-11.8-60.8-22-100-23.9C391,368.9,325.2,456.8,265.3,510.3
			c134.5-4.8,242.3-113.8,245.1-248.8L506.1,259.6z"/>
	</g>
</g>
</svg>
